<svg width="25" height="24" viewBox="0 0 25 24" fill="none" xmlns="http://www.w3.org/2000/svg">
<path d="M4.28452 8.43374C4.33463 7.98274 4.45156 7.56515 4.6353 7.18931C4.89421 6.67985 5.25334 6.27895 5.7294 5.99499C6.19711 5.71103 6.73998 5.56904 7.35802 5.56904C7.951 5.56904 8.48552 5.71103 8.95323 5.99499C9.42094 6.27895 9.78842 6.67985 10.039 7.18931C10.2227 7.56515 10.3396 7.98274 10.3981 8.43374L14.6826 5.96158C13.6637 2.87973 10.7572 0.65813 7.33296 0.65813C3.90869 0.65813 1.01893 2.87973 0 5.96158L4.28452 8.43374Z" fill="#0244C0"/>
<path d="M11.0579 22.5735C9.71325 21.9972 8.61915 21.2038 7.77561 20.1932C6.92372 19.1826 6.4059 18.005 6.22216 16.6771L11.9014 14.8313C12.0685 15.5245 12.3023 16.1342 12.6114 16.6437C12.9204 17.1531 13.2795 17.5457 13.6971 17.8129C14.1147 18.0802 14.5824 18.2138 15.0919 18.2138C15.5429 18.2138 15.9438 18.0885 16.2862 17.8463C16.637 17.6041 16.9042 17.27 17.0963 16.8608C17.2884 16.4516 17.3886 16.0006 17.3886 15.5078V1.04232H24.0535V15.8753C24.0535 17.3703 23.6943 18.6899 22.9677 19.8341C22.2411 20.9783 21.2305 21.8636 19.9276 22.49C18.6247 23.1164 17.1381 23.4254 15.4594 23.4254C13.8641 23.4337 12.3942 23.1414 11.0579 22.5735Z" fill="#0D1835"/>
</svg>
