<svg width="50" height="50" viewBox="0 0 50 50" fill="none" xmlns="http://www.w3.org/2000/svg">
<path d="M31.2507 8.33325C29.0405 8.33325 26.9209 9.21123 25.3581 10.774C23.7953 12.3368 22.9173 14.4564 22.9173 16.6666C22.9173 18.8767 23.7953 20.9963 25.3581 22.5591C26.9209 24.1219 29.0405 24.9999 31.2507 24.9999C33.4608 24.9999 35.5804 24.1219 37.1432 22.5591C38.706 20.9963 39.584 18.8767 39.584 16.6666C39.584 14.4564 38.706 12.3368 37.1432 10.774C35.5804 9.21123 33.4608 8.33325 31.2507 8.33325ZM31.2507 12.2916C31.8252 12.2916 32.3941 12.4047 32.9249 12.6246C33.4557 12.8445 33.938 13.1667 34.3442 13.573C34.7505 13.9792 35.0728 14.4615 35.2926 14.9923C35.5125 15.5231 35.6257 16.0921 35.6257 16.6666C35.6257 17.2411 35.5125 17.81 35.2926 18.3408C35.0728 18.8716 34.7505 19.3539 34.3442 19.7602C33.938 20.1664 33.4557 20.4887 32.9249 20.7086C32.3941 20.9284 31.8252 21.0416 31.2507 21.0416C30.6761 21.0416 30.1072 20.9284 29.5764 20.7086C29.0456 20.4887 28.5633 20.1664 28.1571 19.7602C27.7508 19.3539 27.4285 18.8716 27.2087 18.3408C26.9888 17.81 26.8756 17.2411 26.8756 16.6666C26.8756 15.5063 27.3366 14.3935 28.1571 13.573C28.9775 12.7525 30.0903 12.2916 31.2507 12.2916ZM8.33398 14.5833V20.8333H2.08398V24.9999H8.33398V31.2499H12.5007V24.9999H18.7507V20.8333H12.5007V14.5833H8.33398ZM31.2507 27.0833C25.6882 27.0833 14.584 29.8541 14.584 35.4166V41.6666H47.9173V35.4166C47.9173 29.8541 36.8131 27.0833 31.2507 27.0833ZM31.2507 31.0416C37.4381 31.0416 43.959 34.0833 43.959 35.4166V37.7083H18.5423V35.4166C18.5423 34.0833 25.0007 31.0416 31.2507 31.0416Z" fill="#0D1835"/>
</svg>
