<svg width="35" height="31" viewBox="0 0 35 31" fill="none" xmlns="http://www.w3.org/2000/svg">
<path d="M32.3327 0H6.54839C6.27468 0 6.05285 0.246812 6.05285 0.550711C6.05285 0.85461 6.27468 1.10142 6.54839 1.10142H32.3327C32.8416 1.10142 33.2559 1.56181 33.2559 2.12786V15.6894C32.9149 15.1072 32.4961 14.5874 32.0151 14.1461C30.8826 9.49188 32.2839 6.41085 32.2839 5.51449C32.2839 4.63063 31.5527 3.9967 30.8448 4.30514C30.6263 4.38467 29.3559 5.06006 27.5293 5.06006H23.2273C22.9536 5.06006 22.7318 5.30659 22.7318 5.61077C22.7318 5.91467 22.9536 6.16149 23.2273 6.16149H27.5293C29.544 6.16149 30.9511 5.42702 31.1607 5.34919C31.2893 5.30375 31.31 5.50285 31.2803 5.60396C30.5553 8.08542 30.3868 10.7467 30.8211 13.2892C30.0076 12.8433 29.0926 12.5931 28.1258 12.5931H19.726C19.8165 11.8785 19.862 11.1554 19.862 10.4254C19.862 8.25413 19.3941 6.27396 19.2126 5.76926C19.1239 5.46138 19.2039 5.31028 19.2422 5.33159C19.9359 5.64713 20.6003 5.8556 21.1611 5.97574C21.4307 6.03283 21.6896 5.83771 21.7412 5.53863C21.7928 5.23985 21.617 4.95129 21.3486 4.89391C20.424 4.69624 19.8308 4.38978 19.6006 4.30429C18.7848 3.95495 17.8997 4.80814 18.2665 6.09673C18.338 6.41398 19.2113 9.042 18.7242 12.5931H16.1844C15.7128 9.16952 16.5307 6.65965 16.6973 5.91382C16.9708 4.89136 16.1491 3.94217 15.3103 4.30514C15.2707 4.31991 15.2237 4.34036 15.159 4.36905C13.1934 5.23758 12.2877 5.06006 7.38283 5.06006C5.58388 5.06006 4.39778 4.42727 4.0658 4.30429C3.26868 3.95949 2.36115 4.79479 2.73198 6.09673C2.73249 6.09957 2.73326 6.10269 2.73454 6.10553C3.48591 8.72844 3.53191 11.5982 2.87127 14.2495C2.43655 14.6673 2.05473 15.1521 1.74012 15.6894V2.12786C1.74012 1.56181 2.1544 1.10142 2.66323 1.10142H4.5662C4.83966 1.10142 5.06175 0.85461 5.06175 0.550711C5.06175 0.246812 4.83966 0 4.5662 0H2.66323C1.60799 0 0.749023 0.954584 0.749023 2.12786V25.6735C0.749023 26.4043 1.28367 26.9982 1.941 26.9982H4.12074V29.0144C4.12074 29.6952 4.61885 30.2496 5.23221 30.2496H7.91211C8.52522 30.2496 9.02409 29.6952 9.02409 29.0144V26.9982H25.9719V29.0144C25.9719 29.6952 26.4708 30.2496 27.0839 30.2496H29.7638C30.3771 30.2496 30.8752 29.6952 30.8752 29.0144V26.9982H33.055C33.7123 26.9982 34.247 26.4043 34.247 25.6735C34.247 24.7681 34.247 3.33466 34.247 2.12786C34.247 0.954584 33.388 0 32.3327 0ZM8.03299 29.0144C8.03299 29.088 7.97881 29.1482 7.91211 29.1482H5.23221C5.16525 29.1482 5.11184 29.088 5.11184 29.0144V26.9982H8.03299V29.0144ZM29.8841 29.0144C29.8841 29.088 29.8307 29.1482 29.7638 29.1482H27.0839C27.0172 29.1482 26.963 29.088 26.963 29.0144V26.9982H29.8841V29.0144ZM33.2559 25.6735C33.2559 25.7968 33.1659 25.8968 33.055 25.8968C32.9453 25.8968 2.31566 25.8968 1.941 25.8968C1.83008 25.8968 1.74012 25.7968 1.74012 25.6735V23.4644H33.2559V25.6735ZM33.2559 22.363H1.74012C1.74012 18.6569 1.74012 20.1474 1.74012 19.3962C1.74012 16.4682 3.77215 13.6945 7.08407 13.6945C7.35778 13.6945 7.57961 13.4477 7.57961 13.1438C7.57961 12.8396 7.35778 12.5931 7.08407 12.5931C6.03291 12.5931 5.11056 12.7521 4.07858 13.3426C4.5087 10.8381 4.37657 8.21153 3.68142 5.7809C3.64283 5.67411 3.60552 5.41565 3.68193 5.33897C3.69446 5.3259 3.70187 5.32874 3.70775 5.33159C4.95799 5.90047 6.16862 6.16149 7.38283 6.16149C12.3393 6.16149 13.3713 6.34354 15.525 5.39265C15.5253 5.39265 15.6776 5.32818 15.6776 5.32789C15.6837 5.33017 15.7075 5.3455 15.7292 5.38754C15.7793 5.4841 15.7537 5.56675 15.7371 5.64003C15.5825 6.34695 14.72 8.9815 15.182 12.5931H9.06626C8.7928 12.5931 8.57071 12.8396 8.57071 13.1438C8.57071 13.4477 8.7928 13.6945 9.06626 13.6945H28.1258C30.9486 13.6945 33.2559 16.2478 33.2559 19.3962V22.363Z" fill="#0D1835"/>
</svg>
