<svg width="23" height="20" viewBox="0 0 23 20" fill="none" xmlns="http://www.w3.org/2000/svg">
<g clip-path="url(#clip0_203_1500)">
<path d="M21.3396 1.87506H4.08737C3.90423 1.87506 3.7558 2.00766 3.7558 2.17093C3.7558 2.3342 3.90423 2.4668 4.08737 2.4668H21.3396C21.6801 2.4668 21.9573 2.71414 21.9573 3.01825V10.3042C21.7291 9.99136 21.4489 9.71213 21.127 9.47501C20.3693 6.97455 21.3069 5.31927 21.3069 4.83771C21.3069 4.36285 20.8177 4.02228 20.344 4.18799C20.1978 4.23071 19.3478 4.59357 18.1256 4.59357H15.2472C15.0641 4.59357 14.9156 4.72601 14.9156 4.88943C14.9156 5.0527 15.0641 5.1853 15.2472 5.1853H18.1256C19.4736 5.1853 20.4152 4.79071 20.5554 4.7489C20.6414 4.72449 20.6553 4.83145 20.6354 4.88577C20.1503 6.21893 20.0376 7.64868 20.3281 9.01465C19.7838 8.77509 19.1717 8.64066 18.5248 8.64066H12.9045C12.965 8.25674 12.9955 7.86826 12.9955 7.4761C12.9955 6.30957 12.6824 5.24573 12.561 4.97458C12.5016 4.80917 12.5551 4.728 12.5808 4.73944C13.0449 4.90897 13.4895 5.02097 13.8647 5.08551C14.0451 5.11618 14.2183 5.01135 14.2528 4.85068C14.2874 4.69016 14.1697 4.53513 13.9902 4.5043C13.3715 4.3981 12.9746 4.23346 12.8205 4.18753C12.2747 3.99985 11.6825 4.45822 11.9279 5.15051C11.9758 5.32095 12.5601 6.73285 12.2342 8.64066H10.5348C10.2193 6.80136 10.7665 5.45294 10.878 5.05225C11.0609 4.50293 10.5112 3.99298 9.94995 4.18799C9.92344 4.19592 9.89198 4.20691 9.84872 4.22232C8.53355 4.68893 7.92753 4.59357 4.64569 4.59357C3.44202 4.59357 2.6484 4.2536 2.42627 4.18753C1.89292 4.00229 1.2857 4.45105 1.53382 5.15051C1.53417 5.15204 1.53468 5.15372 1.53553 5.15524C2.03827 6.56439 2.06905 8.10614 1.62702 9.53055C1.33615 9.755 1.08067 10.0155 0.870171 10.3042V3.01825C0.870171 2.71414 1.14736 2.4668 1.48782 2.4668H2.76109C2.94406 2.4668 3.09266 2.3342 3.09266 2.17093C3.09266 2.00766 2.94406 1.87506 2.76109 1.87506H1.48782C0.781763 1.87506 0.207031 2.38791 0.207031 3.01825V15.6681C0.207031 16.0607 0.564764 16.3798 1.00458 16.3798H2.46304V17.463C2.46304 17.8287 2.79632 18.1266 3.20672 18.1266H4.99983C5.41006 18.1266 5.74385 17.8287 5.74385 17.463V16.3798H17.0836V17.463C17.0836 17.8287 17.4174 18.1266 17.8276 18.1266H19.6207C20.0311 18.1266 20.3644 17.8287 20.3644 17.463V16.3798H21.8228C22.2627 16.3798 22.6204 16.0607 22.6204 15.6681C22.6204 15.1816 22.6204 3.6666 22.6204 3.01825C22.6204 2.38791 22.0457 1.87506 21.3396 1.87506ZM5.08071 17.463C5.08071 17.5025 5.04446 17.5349 4.99983 17.5349H3.20672C3.16192 17.5349 3.12618 17.5025 3.12618 17.463V16.3798H5.08071V17.463ZM19.7012 17.463C19.7012 17.5025 19.6655 17.5349 19.6207 17.5349H17.8276C17.783 17.5349 17.7467 17.5025 17.7467 17.463V16.3798H19.7012V17.463ZM21.9573 15.6681C21.9573 15.7343 21.8971 15.788 21.8228 15.788C21.7495 15.788 1.25526 15.788 1.00458 15.788C0.930363 15.788 0.870171 15.7343 0.870171 15.6681V14.4813H21.9573V15.6681ZM21.9573 13.8895H0.870171C0.870171 11.8984 0.870171 12.6992 0.870171 12.2956C0.870171 10.7226 2.22979 9.23239 4.44579 9.23239C4.62893 9.23239 4.77736 9.09979 4.77736 8.93652C4.77736 8.7731 4.62893 8.64066 4.44579 8.64066C3.74246 8.64066 3.12532 8.7261 2.43482 9.04333C2.72262 7.69781 2.63421 6.28668 2.16909 4.98083C2.14327 4.92346 2.1183 4.78461 2.16943 4.74341C2.17781 4.73639 2.18277 4.73792 2.1867 4.73944C3.02324 5.04507 3.83326 5.1853 4.64569 5.1853C7.96207 5.1853 8.65257 5.28311 10.0936 4.77225C10.0938 4.77225 10.1957 4.73761 10.1957 4.73746C10.1998 4.73868 10.2157 4.74692 10.2302 4.7695C10.2637 4.82138 10.2466 4.86578 10.2355 4.90515C10.1321 5.28494 9.55494 6.70035 9.86411 8.64066H5.77207C5.5891 8.64066 5.4405 8.7731 5.4405 8.93652C5.4405 9.09979 5.5891 9.23239 5.77207 9.23239H18.5248C20.4135 9.23239 21.9573 10.6042 21.9573 12.2956V13.8895Z" fill="#0D1835"/>
</g>
<defs>
<clipPath id="clip0_203_1500">
<rect width="22.4134" height="20" fill="white" transform="translate(0.207031 6.10352e-05)"/>
</clipPath>
</defs>
</svg>
