<svg width="40" height="40" viewBox="0 0 40 40" fill="none" xmlns="http://www.w3.org/2000/svg">
<path d="M13.125 3.125C13.125 2.95924 13.1908 2.80027 13.3081 2.68306C13.4253 2.56585 13.5842 2.5 13.75 2.5H28.125V5.625C28.125 6.12228 28.3225 6.59919 28.6742 6.95083C29.0258 7.30246 29.5027 7.5 30 7.5H33.125V17.5H34.375V6.875C34.375 6.70925 34.3091 6.55031 34.1919 6.43313L29.1919 1.43312C29.0747 1.31591 28.9157 1.25004 28.75 1.25H13.75C13.2527 1.25 12.7758 1.44754 12.4242 1.79917C12.0725 2.15081 11.875 2.62772 11.875 3.125V4.375H13.125V3.125ZM29.375 5.625V3.38375L32.2412 6.25H30C29.8342 6.25 29.6753 6.18415 29.5581 6.06694C29.4408 5.94973 29.375 5.79076 29.375 5.625Z" fill="#0D1835"/>
<path d="M11.875 10.625H13.125V13.75H11.875V10.625Z" fill="#0D1835"/>
<path d="M16.875 28.75H18.125V30H16.875V28.75Z" fill="#0D1835"/>
<path d="M33.125 28.125C33.125 28.2908 33.0592 28.4497 32.9419 28.5669C32.8247 28.6842 32.6658 28.75 32.5 28.75H31.25V30H32.5C32.9973 30 33.4742 29.8025 33.8258 29.4508C34.1775 29.0992 34.375 28.6223 34.375 28.125V23.75H33.125V28.125Z" fill="#0D1835"/>
<path d="M35 18.75H32.5C32.1136 18.7516 31.7371 18.8726 31.4221 19.0963C31.107 19.3201 30.8688 19.6357 30.74 20H30C29.8833 19.9994 29.7688 20.0314 29.6694 20.0925C29.57 20.1536 29.4897 20.2413 29.4375 20.3456L28.8125 21.5956C28.7703 21.6827 28.7489 21.7783 28.75 21.875V22.5H18.125C18.0342 22.5 17.9445 22.5198 17.8622 22.558C17.7798 22.5962 17.7068 22.6519 17.6481 22.7212C17.5895 22.7905 17.5466 22.8718 17.5225 22.9593C17.4985 23.0469 17.4938 23.1386 17.5087 23.2281L18.7587 30.7281C18.7831 30.8739 18.8584 31.0064 18.9713 31.102C19.0841 31.1975 19.2271 31.25 19.375 31.25H28.75V32.5H19.375C18.8777 32.5 18.4008 32.6975 18.0492 33.0492C17.6975 33.4008 17.5 33.8777 17.5 34.375C17.5 34.8723 17.6975 35.3492 18.0492 35.7008C18.4008 36.0525 18.8777 36.25 19.375 36.25H19.49C19.416 36.4502 19.3771 36.6616 19.375 36.875C19.375 37.3723 19.5725 37.8492 19.9242 38.2008C20.2758 38.5525 20.7527 38.75 21.25 38.75C21.7473 38.75 22.2242 38.5525 22.5758 38.2008C22.9275 37.8492 23.125 37.3723 23.125 36.875C23.1229 36.6616 23.084 36.4502 23.01 36.25H24.49C24.416 36.4502 24.3771 36.6616 24.375 36.875C24.375 37.3723 24.5725 37.8492 24.9242 38.2008C25.2758 38.5525 25.7527 38.75 26.25 38.75C26.7473 38.75 27.2242 38.5525 27.5758 38.2008C27.9275 37.8492 28.125 37.3723 28.125 36.875C28.1229 36.6616 28.084 36.4502 28.01 36.25H29.375V35H19.375C19.2092 35 19.0503 34.9342 18.9331 34.8169C18.8158 34.6997 18.75 34.5408 18.75 34.375C18.75 34.2092 18.8158 34.0503 18.9331 33.9331C19.0503 33.8158 19.2092 33.75 19.375 33.75H29.375C29.5408 33.75 29.6997 33.6842 29.8169 33.5669C29.9342 33.4497 30 33.2908 30 33.125V22.0225L30.3862 21.25H30.74C30.8688 21.6143 31.107 21.9299 31.4221 22.1537C31.7371 22.3774 32.1136 22.4984 32.5 22.5H35C35.4973 22.5 35.9742 22.3025 36.3258 21.9508C36.6775 21.5992 36.875 21.1223 36.875 20.625C36.875 20.1277 36.6775 19.6508 36.3258 19.2992C35.9742 18.9475 35.4973 18.75 35 18.75ZM21.875 36.875C21.875 36.9986 21.8383 37.1194 21.7697 37.2222C21.701 37.325 21.6034 37.4051 21.4892 37.4524C21.375 37.4997 21.2493 37.5121 21.1281 37.488C21.0068 37.4639 20.8955 37.4044 20.8081 37.3169C20.7206 37.2295 20.6611 37.1182 20.637 36.9969C20.6129 36.8757 20.6253 36.75 20.6726 36.6358C20.7199 36.5216 20.8 36.424 20.9028 36.3553C21.0056 36.2867 21.1264 36.25 21.25 36.25C21.4158 36.25 21.5747 36.3158 21.6919 36.4331C21.8092 36.5503 21.875 36.7092 21.875 36.875ZM26.875 36.875C26.875 36.9986 26.8383 37.1194 26.7697 37.2222C26.701 37.325 26.6034 37.4051 26.4892 37.4524C26.375 37.4997 26.2493 37.5121 26.1281 37.488C26.0068 37.4639 25.8955 37.4044 25.8081 37.3169C25.7206 37.2295 25.6611 37.1182 25.637 36.9969C25.6129 36.8757 25.6253 36.75 25.6726 36.6358C25.7199 36.5216 25.8 36.424 25.9028 36.3553C26.0056 36.2867 26.1264 36.25 26.25 36.25C26.4158 36.25 26.5747 36.3158 26.6919 36.4331C26.8092 36.5503 26.875 36.7092 26.875 36.875ZM19.2794 26.25H21.25V27.5H19.4875L19.2794 26.25ZM22.5 26.25H23.75V27.5H22.5V26.25ZM23.75 25H22.5V23.75H23.75V25ZM25 23.75H26.25V25H25V23.75ZM23.75 28.75V30H22.5V28.75H23.75ZM25 28.75H26.25V30H25V28.75ZM25 27.5V26.25H26.25V27.5H25ZM27.5 26.25H28.75V27.5H27.5V26.25ZM27.5 25V23.75H28.75V25H27.5ZM21.25 23.75V25H19.0712L18.8631 23.75H21.25ZM19.6956 28.75H21.25V30H19.9044L19.6956 28.75ZM27.5 30V28.75H28.75V30H27.5ZM35 21.25H32.5C32.3342 21.25 32.1753 21.1842 32.0581 21.0669C31.9408 20.9497 31.875 20.7908 31.875 20.625C31.875 20.4592 31.9408 20.3003 32.0581 20.1831C32.1753 20.0658 32.3342 20 32.5 20H35C35.1658 20 35.3247 20.0658 35.4419 20.1831C35.5592 20.3003 35.625 20.4592 35.625 20.625C35.625 20.7908 35.5592 20.9497 35.4419 21.0669C35.3247 21.1842 35.1658 21.25 35 21.25Z" fill="#0D1835"/>
<path d="M22.5 10.625H23.75C23.9158 10.625 24.0747 10.6908 24.1919 10.8081C24.3092 10.9253 24.375 11.0842 24.375 11.25H25.625C25.625 10.7527 25.4275 10.2758 25.0758 9.92417C24.7242 9.57254 24.2473 9.375 23.75 9.375V8.75H22.5V9.375C22.0027 9.375 21.5258 9.57254 21.1742 9.92417C20.8225 10.2758 20.625 10.7527 20.625 11.25C20.625 11.7473 20.8225 12.2242 21.1742 12.5758C21.5258 12.9275 22.0027 13.125 22.5 13.125H23.75C23.9158 13.125 24.0747 13.1908 24.1919 13.3081C24.3092 13.4253 24.375 13.5842 24.375 13.75C24.375 13.9158 24.3092 14.0747 24.1919 14.1919C24.0747 14.3092 23.9158 14.375 23.75 14.375H22.5C22.3342 14.375 22.1753 14.3092 22.0581 14.1919C21.9408 14.0747 21.875 13.9158 21.875 13.75H20.625C20.625 14.2473 20.8225 14.7242 21.1742 15.0758C21.5258 15.4275 22.0027 15.625 22.5 15.625V16.25H23.75V15.625C24.2473 15.625 24.7242 15.4275 25.0758 15.0758C25.4275 14.7242 25.625 14.2473 25.625 13.75C25.625 13.2527 25.4275 12.7758 25.0758 12.4242C24.7242 12.0725 24.2473 11.875 23.75 11.875H22.5C22.3342 11.875 22.1753 11.8092 22.0581 11.6919C21.9408 11.5747 21.875 11.4158 21.875 11.25C21.875 11.0842 21.9408 10.9253 22.0581 10.8081C22.1753 10.6908 22.3342 10.625 22.5 10.625Z" fill="#0D1835"/>
<path d="M23.125 6.25C21.8889 6.25 20.6805 6.61656 19.6527 7.30331C18.6249 7.99007 17.8238 8.96619 17.3508 10.1082C16.8777 11.2503 16.7539 12.5069 16.9951 13.7193C17.2362 14.9317 17.8315 16.0453 18.7056 16.9194C19.5797 17.7935 20.6933 18.3888 21.9057 18.6299C23.1181 18.8711 24.3747 18.7473 25.5168 18.2742C26.6588 17.8012 27.6349 17.0001 28.3217 15.9723C29.0084 14.9445 29.375 13.7361 29.375 12.5C29.3732 10.843 28.7141 9.2543 27.5424 8.08259C26.3707 6.91088 24.782 6.25182 23.125 6.25ZM23.125 17.5C22.1361 17.5 21.1694 17.2068 20.3471 16.6573C19.5249 16.1079 18.884 15.327 18.5056 14.4134C18.1272 13.4998 18.0281 12.4945 18.2211 11.5245C18.414 10.5546 18.8902 9.66373 19.5895 8.96447C20.2887 8.2652 21.1796 7.789 22.1495 7.59607C23.1195 7.40315 24.1248 7.50216 25.0384 7.8806C25.952 8.25904 26.7329 8.8999 27.2823 9.72215C27.8318 10.5444 28.125 11.5111 28.125 12.5C28.1235 13.8256 27.5962 15.0965 26.6589 16.0339C25.7215 16.9712 24.4506 17.4985 23.125 17.5Z" fill="#0D1835"/>
<path d="M12.5 15H6.25C5.4215 15.001 4.62722 15.3306 4.04139 15.9164C3.45555 16.5022 3.12599 17.2965 3.125 18.125V30.625C3.12599 31.4535 3.45555 32.2478 4.04139 32.8336C4.62722 33.4194 5.4215 33.749 6.25 33.75H12.5C13.3285 33.749 14.1228 33.4194 14.7086 32.8336C15.2944 32.2478 15.624 31.4535 15.625 30.625V18.125C15.624 17.2965 15.2944 16.5022 14.7086 15.9164C14.1228 15.3306 13.3285 15.001 12.5 15ZM14.375 30.625C14.375 31.1223 14.1775 31.5992 13.8258 31.9508C13.4742 32.3025 12.9973 32.5 12.5 32.5H6.25C5.75272 32.5 5.27581 32.3025 4.92417 31.9508C4.57254 31.5992 4.375 31.1223 4.375 30.625V18.125C4.375 17.6277 4.57254 17.1508 4.92417 16.7992C5.27581 16.4475 5.75272 16.25 6.25 16.25H12.5C12.9973 16.25 13.4742 16.4475 13.8258 16.7992C14.1775 17.1508 14.375 17.6277 14.375 18.125V30.625Z" fill="#0D1835"/>
<path d="M8.125 17.5H10.625V18.75H8.125V17.5Z" fill="#0D1835"/>
<path d="M5.625 17.5H6.875V18.75H5.625V17.5Z" fill="#0D1835"/>
<path d="M8.125 30H10.625V31.25H8.125V30Z" fill="#0D1835"/>
<path d="M8.75 26.25H10V27.5H8.75V26.25Z" fill="#0D1835"/>
<path d="M7.16562 24.665L8.04937 25.5487C8.40668 25.2081 8.88137 25.0181 9.375 25.0181C9.86863 25.0181 10.3433 25.2081 10.7006 25.5487L11.5844 24.665C10.9984 24.0791 10.2036 23.75 9.375 23.75C8.54636 23.75 7.75165 24.0791 7.16562 24.665Z" fill="#0D1835"/>
<path d="M5.3975 22.8974L6.28125 23.7812C7.10262 22.9623 8.21516 22.5024 9.375 22.5024C10.5348 22.5024 11.6474 22.9623 12.4688 23.7812L13.3525 22.8974C12.2968 21.844 10.8663 21.2524 9.375 21.2524C7.88365 21.2524 6.4532 21.844 5.3975 22.8974Z" fill="#0D1835"/>
<path d="M10 9.375H15V8.125H9.375C9.20924 8.125 9.05027 8.19085 8.93306 8.30806C8.81585 8.42527 8.75 8.58424 8.75 8.75V13.75H10V9.375Z" fill="#0D1835"/>
<path d="M6.25 10.625H7.5V11.875H6.25V10.625Z" fill="#0D1835"/>
<path d="M6.25 8.125H7.5V9.375H6.25V8.125Z" fill="#0D1835"/>
<path d="M8.75 5.625H10V6.875H8.75V5.625Z" fill="#0D1835"/>
<path d="M11.25 5.625H12.5V6.875H11.25V5.625Z" fill="#0D1835"/>
<path d="M13.75 5.625H15V6.875H13.75V5.625Z" fill="#0D1835"/>
</svg>
