<svg width="49" height="23" viewBox="0 0 49 23" fill="none" xmlns="http://www.w3.org/2000/svg">
<path d="M13.8873 17.3854C13.8873 20.047 12.1903 22.2047 10.0969 22.2047C8.00365 22.2047 6.30664 20.047 6.30664 17.3854C6.30664 14.7238 8.00365 12.5661 10.0969 12.5661C12.1903 12.5661 13.8873 14.7238 13.8873 17.3854Z" stroke="#0D1835" stroke-width="0.75" stroke-miterlimit="10" stroke-linecap="round" stroke-linejoin="round"/>
<path d="M13.8872 19.3131H35.8711" stroke="#0D1835" stroke-width="0.75" stroke-miterlimit="10" stroke-linecap="round" stroke-linejoin="round"/>
<path d="M10.6331 16.702L9.56104 18.0669" stroke="#0D1835" stroke-width="0.75" stroke-miterlimit="10" stroke-linecap="round" stroke-linejoin="round"/>
<path d="M43.4517 17.3854C43.4517 20.047 41.7548 22.2047 39.6614 22.2047C37.5681 22.2047 35.8711 20.047 35.8711 17.3854C35.8711 14.7238 37.5681 12.5661 39.6614 12.5661C41.7548 12.5661 43.4517 14.7238 43.4517 17.3854Z" stroke="#0D1835" stroke-width="0.75" stroke-miterlimit="10" stroke-linecap="round" stroke-linejoin="round"/>
<path d="M39.1255 16.702L40.1975 18.0669" stroke="#0D1835" stroke-width="0.75" stroke-miterlimit="10" stroke-linecap="round" stroke-linejoin="round"/>
<path d="M6.30646 18.3493L2.64944 17.0208C1.67313 16.6661 1 15.5315 1 14.2405V8.48476C1 7.51263 1.56939 6.6926 2.3281 6.572L5.13184 6.1264C6.41096 5.92307 7.65367 5.44476 8.80663 4.71167L12.4043 2.4246C13.8779 1.4877 15.503 1.00002 17.1505 1.00002H23.9044C25.7787 1.00002 27.614 1.6796 29.1953 2.95895L35.1129 7.74698C35.1129 7.74698 41.9847 7.74698 46.2717 10.2782C47.3333 10.9052 48 12.2748 48 13.7632V16.963C48 18.4551 47.3212 19.3131 46.4839 19.3131" stroke="#0D1835" stroke-width="0.75" stroke-miterlimit="10" stroke-linecap="round" stroke-linejoin="round"/>
<path d="M15.4036 7.74683H13.9414C12.9362 7.74683 11.9721 7.23906 11.2612 6.33522L10.0972 4.85532" stroke="#0D1835" stroke-width="0.75" stroke-miterlimit="10" stroke-linecap="round" stroke-linejoin="round"/>
<path d="M35.1129 7.74683H18.4355" stroke="#0D1835" stroke-width="0.75" stroke-miterlimit="10" stroke-linecap="round" stroke-linejoin="round"/>
<path d="M16.9194 15.4578H32.8387" stroke="#0D1835" stroke-width="0.75" stroke-miterlimit="10" stroke-linecap="round" stroke-linejoin="round"/>
<path d="M1 10.6384H2.5161" stroke="#0D1835" stroke-width="0.75" stroke-miterlimit="10" stroke-linecap="round" stroke-linejoin="round"/>
<path d="M45.7261 12.5662H47.558" stroke="#0D1835" stroke-width="0.75" stroke-miterlimit="10" stroke-linecap="round" stroke-linejoin="round"/>
<path d="M21.4678 7.74683V0.999865" stroke="#0D1835" stroke-width="0.75" stroke-miterlimit="10" stroke-linecap="round" stroke-linejoin="round"/>
<path d="M12.75 7.35535L13.7369 1.81258" stroke="#0D1835" stroke-width="0.75" stroke-miterlimit="10" stroke-linecap="round" stroke-linejoin="round"/>
</svg>
