<svg width="40" height="40" viewBox="0 0 40 40" fill="none" xmlns="http://www.w3.org/2000/svg">
<g clip-path="url(#clip0_693_2618)">
<path d="M35.6977 33.4516C34.8961 33.4516 34.2439 34.2213 34.2439 35.1672C34.2439 36.1132 34.8961 36.8829 35.6977 36.8829C36.4993 36.8829 37.1514 36.1132 37.1514 35.1672C37.1515 34.2212 36.4993 33.4516 35.6977 33.4516ZM35.6977 35.7892C35.5312 35.7892 35.3377 35.5174 35.3377 35.1672C35.3377 34.817 35.5312 34.5453 35.6977 34.5453C35.8641 34.5453 36.0577 34.817 36.0577 35.1672C36.0577 35.5174 35.8642 35.7892 35.6977 35.7892ZM26.4357 9.06244C26.4357 5.51377 23.5486 2.62674 20 2.62674C16.4514 2.62674 13.5643 5.51377 13.5643 9.06244C13.5643 12.6111 16.4514 15.4981 20 15.4981C23.5486 15.4981 26.4357 12.6111 26.4357 9.06244ZM14.658 9.06244C14.658 6.11689 17.0545 3.72049 20 3.72049C22.9455 3.72049 25.342 6.11689 25.342 9.06244C25.342 12.008 22.9456 14.4044 20 14.4044C17.0544 14.4044 14.658 12.008 14.658 9.06244ZM20.0185 13.2825C19.7227 13.2825 19.4793 13.0463 19.472 12.7488L19.4638 12.4054C18.9572 12.2887 18.6213 12.0093 18.3001 11.7063C18.0804 11.4991 18.0703 11.1529 18.2775 10.9331C18.4847 10.7135 18.8308 10.7032 19.0505 10.9106C19.4152 11.2546 19.6036 11.3692 19.9999 11.3692C20.5713 11.3692 21.0363 10.9803 21.0363 10.5023C21.0363 10.0242 20.5713 9.63533 19.9999 9.63533C18.8254 9.63533 17.8698 8.75572 17.8698 7.67463C17.8698 6.77072 18.538 6.0076 19.4435 5.78174L19.4345 5.40228C19.4273 5.10041 19.6662 4.84978 19.9681 4.84252C20.2692 4.83439 20.5207 5.07416 20.528 5.37619L20.538 5.79502C21.0337 5.92744 21.6001 6.2158 21.8616 6.61369C22.0275 6.86611 21.9573 7.20517 21.7049 7.37103C21.4527 7.53697 21.1134 7.46689 20.9476 7.21439C20.846 7.05978 20.3002 6.8076 20.0001 6.8076C19.4287 6.8076 18.9637 7.19658 18.9637 7.67455C18.9637 8.1526 19.4287 8.5415 20.0001 8.5415C21.1746 8.5415 22.1302 9.42111 22.1302 10.5022C22.1302 11.4057 21.4627 12.1685 20.5577 12.3947L20.5656 12.7224C20.5729 13.0242 20.3341 13.2749 20.0321 13.2823C20.0276 13.2824 20.023 13.2825 20.0185 13.2825ZM33.6719 28.0468C30.5702 28.0468 28.0469 30.5702 28.0469 33.6718C28.0469 36.7735 30.5702 39.2968 33.6719 39.2968C36.7735 39.2968 39.2969 36.7735 39.2969 33.6718C39.2969 30.5702 36.7735 28.0468 33.6719 28.0468ZM33.6719 38.2031C31.1734 38.2031 29.1406 36.1703 29.1406 33.6718C29.1406 31.1733 31.1734 29.1406 33.6719 29.1406C36.1704 29.1406 38.2031 31.1733 38.2031 33.6718C38.2031 36.1703 36.1704 38.2031 33.6719 38.2031ZM24.7445 32.2835C24.3877 32.2835 24.247 32.0106 24.2123 31.927C24.1777 31.8435 24.0843 31.551 24.3366 31.2986C24.5029 31.1324 24.5945 30.9112 24.5945 30.676C24.5945 30.4407 24.5029 30.2195 24.3366 30.0533L23.6184 29.3352C23.4522 29.1689 23.2311 29.0774 22.9959 29.0774C22.7606 29.0774 22.5395 29.1689 22.3733 29.3352C22.121 29.5876 21.8284 29.4942 21.7448 29.4595C21.6612 29.4249 21.3883 29.2841 21.3883 28.9273C21.3883 28.4418 20.9933 28.0468 20.5078 28.0468H19.4922C19.0067 28.0468 18.6117 28.4418 18.6117 28.9273C18.6117 29.2841 18.3388 29.4249 18.2552 29.4595C18.1716 29.4942 17.8791 29.5877 17.6267 29.3352C17.2836 28.9921 16.725 28.9919 16.3816 29.3353L15.6635 30.0533C15.4972 30.2195 15.4056 30.4407 15.4056 30.676C15.4056 30.9112 15.4972 31.1324 15.6635 31.2985C15.9158 31.5509 15.8224 31.8435 15.7877 31.927C15.753 32.0106 15.6123 32.2835 15.2555 32.2835C14.77 32.2835 14.375 32.6785 14.375 33.164V34.1796C14.375 34.6651 14.77 35.0601 15.2555 35.0601C15.6123 35.0601 15.7531 35.333 15.7877 35.4166C15.8223 35.5002 15.9158 35.7927 15.6635 36.045C15.4972 36.2113 15.4056 36.4324 15.4056 36.6677C15.4056 36.9028 15.4972 37.1239 15.6635 37.2903L16.3816 38.0085C16.7249 38.3517 17.2834 38.3518 17.6268 38.0084C17.8797 37.7555 18.172 37.8486 18.2556 37.8833C18.3392 37.9179 18.6119 38.0586 18.6119 38.4163C18.6119 38.9018 19.0069 39.2968 19.4923 39.2968H20.508C20.9934 39.2968 21.3884 38.9018 21.3884 38.4163C21.3884 38.0595 21.6613 37.9188 21.7449 37.8842C21.8286 37.8494 22.1211 37.756 22.3734 38.0085C22.5397 38.1747 22.7608 38.2663 22.996 38.2663C23.2312 38.2663 23.4523 38.1747 23.6186 38.0085L24.3368 37.2903C24.503 37.1239 24.5946 36.9028 24.5946 36.6677C24.5946 36.4324 24.503 36.2113 24.3367 36.0451C24.0845 35.7928 24.1778 35.5002 24.2125 35.4166C24.2472 35.333 24.3879 35.0601 24.7447 35.0601C25.2302 35.0601 25.6252 34.6651 25.6252 34.1796V33.164C25.625 32.6785 25.23 32.2835 24.7445 32.2835ZM24.5312 33.9792C23.936 34.052 23.4377 34.4285 23.2018 34.998C22.9659 35.5675 23.052 36.1861 23.4215 36.6585L22.9867 37.0933C22.5144 36.7238 21.8958 36.6377 21.3262 36.8736C20.7566 37.1095 20.3802 37.6077 20.3073 38.2031H19.6926C19.6198 37.6072 19.2435 37.1087 18.6741 36.8728C18.1047 36.6371 17.486 36.7235 17.0132 37.0933L16.5785 36.6585C16.948 36.1862 17.0341 35.5676 16.7982 34.998C16.5623 34.4285 16.064 34.052 15.4688 33.9792V33.3645C16.064 33.2917 16.5623 32.9152 16.7982 32.3457C17.0341 31.7761 16.948 31.1576 16.5785 30.6852L17.0133 30.2504C17.4857 30.6199 18.1044 30.7061 18.6738 30.4701C19.2434 30.2342 19.6198 29.736 19.6927 29.1406H20.3074C20.3802 29.7359 20.7566 30.2342 21.3263 30.4701C21.8957 30.706 22.5144 30.6198 22.9868 30.2504L23.4216 30.6852C23.0521 31.1576 22.9659 31.7761 23.2019 32.3457C23.4378 32.9152 23.9361 33.2917 24.5313 33.3645V33.9792H24.5312ZM33.0999 32.1763C33.0999 31.2304 32.4477 30.4607 31.6462 30.4607C30.8446 30.4607 30.1924 31.2304 30.1924 32.1763C30.1924 33.1224 30.8446 33.892 31.6462 33.892C32.4477 33.892 33.0999 33.1224 33.0999 32.1763ZM31.2861 32.1763C31.2861 31.8261 31.4796 31.5545 31.6461 31.5545C31.8126 31.5545 32.0061 31.8261 32.0061 32.1763C32.0061 32.5266 31.8126 32.7983 31.6461 32.7983C31.4796 32.7983 31.2861 32.5267 31.2861 32.1763ZM6.32812 28.0468C3.22648 28.0468 0.703125 30.5702 0.703125 33.6718C0.703125 36.7735 3.22648 39.2968 6.32812 39.2968C9.42977 39.2968 11.9531 36.7735 11.9531 33.6718C11.9531 30.5702 9.42977 28.0468 6.32812 28.0468ZM6.32812 38.2031C5.30062 38.2031 4.35234 37.8588 3.59141 37.2803C4.28516 36.5088 5.27688 36.0599 6.32828 36.0599C7.37961 36.0599 8.37133 36.5088 9.06492 37.2802C8.30398 37.8588 7.35563 38.2031 6.32812 38.2031ZM9.85008 36.5185C8.95195 35.5367 7.67828 34.966 6.32828 34.966C4.9782 34.966 3.70437 35.5367 2.80617 36.5185C2.17562 35.7399 1.79688 34.7495 1.79688 33.6718C1.79688 31.1733 3.82961 29.1406 6.32812 29.1406C8.82664 29.1406 10.8594 31.1733 10.8594 33.6718C10.8594 34.7494 10.4806 35.7399 9.85008 36.5185ZM20 30.6433C18.3301 30.6433 16.9715 32.0019 16.9715 33.6718C16.9715 35.3417 18.3301 36.7003 20 36.7003C21.6699 36.7003 23.0284 35.3417 23.0284 33.6718C23.0284 32.0019 21.6699 30.6433 20 30.6433ZM20 35.6066C18.9332 35.6066 18.0652 34.7387 18.0652 33.6718C18.0652 32.6049 18.9331 31.737 20 31.737C21.0668 31.737 21.9347 32.6049 21.9347 33.6718C21.9347 34.7387 21.0668 35.6066 20 35.6066ZM6.32828 29.9341C4.94969 29.9341 3.82812 31.0556 3.82812 32.434C3.82812 33.8126 4.94969 34.9342 6.32828 34.9342C7.70687 34.9342 8.82844 33.8126 8.82844 32.434C8.82844 31.0556 7.70687 29.9341 6.32828 29.9341ZM6.32828 33.8404C5.55273 33.8404 4.92188 33.2095 4.92188 32.434C4.92188 31.6586 5.55281 31.0278 6.32828 31.0278C7.10375 31.0278 7.73469 31.6586 7.73469 32.434C7.73469 33.2095 7.10383 33.8404 6.32828 33.8404ZM6.8225 27.5269H10.1235C10.4255 27.5269 10.6704 27.282 10.6704 26.98C10.6704 26.678 10.4255 26.4331 10.1235 26.4331H8.16109L17.5415 17.0527C18.152 17.2409 18.7923 17.3606 19.4531 17.4035V25.6597L18.0525 24.259C17.839 24.0456 17.4927 24.0456 17.2791 24.259C17.0655 24.4726 17.0655 24.8188 17.2791 25.0324L19.6134 27.3667C19.7202 27.4734 19.8601 27.5268 20.0001 27.5268C20.1401 27.5268 20.28 27.4734 20.3868 27.3667L22.721 25.0324C22.9346 24.8188 22.9346 24.4726 22.721 24.259C22.5075 24.0456 22.1612 24.0456 21.9477 24.259L20.5469 25.6597V17.4035C21.2077 17.3606 21.848 17.241 22.4585 17.0527L31.8389 26.4331H29.8765C29.5745 26.4331 29.3296 26.678 29.3296 26.98C29.3296 27.282 29.5745 27.5269 29.8765 27.5269H33.1775C33.4795 27.5269 33.7244 27.282 33.7244 26.98V23.6789C33.7244 23.3769 33.4795 23.132 33.1775 23.132C32.8755 23.132 32.6306 23.3769 32.6306 23.6789V25.678L23.5719 16.6192C26.3994 15.2773 28.3594 12.3946 28.3594 9.06244C28.3594 4.45306 24.6094 0.703064 20 0.703064C15.3906 0.703064 11.6406 4.45306 11.6406 9.06244C11.6406 12.3946 13.6006 15.2773 16.4281 16.6192L7.36938 25.678V23.6789C7.36938 23.3769 7.12453 23.132 6.8225 23.132C6.52047 23.132 6.27563 23.3769 6.27563 23.6789V26.98C6.27563 27.282 6.52039 27.5269 6.8225 27.5269ZM32.6306 26.3614V26.4331H32.5589L32.6306 26.3614ZM12.7344 9.06244C12.7344 5.05619 15.9937 1.79681 20 1.79681C24.0063 1.79681 27.2656 5.05619 27.2656 9.06244C27.2656 13.0687 24.0063 16.3281 20 16.3281C15.9937 16.3281 12.7344 13.0687 12.7344 9.06244ZM7.36938 26.3614L7.44109 26.4331H7.36938V26.3614ZM35.9299 30.8545L32.3609 37.0361C32.2597 37.2115 32.0759 37.3096 31.8869 37.3096C31.7941 37.3096 31.7001 37.286 31.6139 37.2363C31.3523 37.0853 31.2627 36.7508 31.4137 36.4893L34.9827 30.3077C35.1338 30.0461 35.4683 29.9567 35.7298 30.1075C35.9913 30.2585 36.0809 30.5929 35.9299 30.8545Z" fill="white"/>
</g>
<defs>
<clipPath id="clip0_693_2618">
<rect width="40" height="40" fill="white"/>
</clipPath>
</defs>
</svg>
