<svg width="50" height="50" viewBox="0 0 50 50" fill="none" xmlns="http://www.w3.org/2000/svg">
<g clip-path="url(#clip0_554_2546)">
<path d="M39.0578 25.6706C39.0578 28.8877 36.3441 31.6031 33.1253 31.6031H15.9229C13.4521 31.6031 11.4492 29.6002 11.4492 27.1294C11.4492 24.6586 13.4521 22.6558 15.9229 22.6558C16.0727 22.6558 16.2199 22.6639 16.3657 22.6785C16.8013 18.6419 20.2185 15.4993 24.3699 15.4993C27.5199 15.4993 30.2466 17.3094 31.5694 19.9454C32.0648 19.811 32.5871 19.7381 33.1254 19.7381C36.3229 19.738 39.0578 22.4812 39.0578 25.6706Z" stroke="#0D1835" stroke-width="1.5" stroke-miterlimit="10" stroke-linecap="round" stroke-linejoin="round"/>
<path d="M21.9277 24.9154L24.3714 27.3591L29.076 22.6545" stroke="#0D1835" stroke-width="1.5" stroke-miterlimit="10" stroke-linecap="round" stroke-linejoin="round"/>
<path d="M25.0006 6.50508C26.5272 6.50508 27.7648 5.26748 27.7648 3.74082C27.7648 2.21416 26.5272 0.976562 25.0006 0.976562C23.4739 0.976562 22.2363 2.21416 22.2363 3.74082C22.2363 5.26748 23.4739 6.50508 25.0006 6.50508Z" stroke="#0D1835" stroke-width="1.5" stroke-miterlimit="10" stroke-linecap="round" stroke-linejoin="round"/>
<path d="M25.0006 49.0234C26.5272 49.0234 27.7648 47.7858 27.7648 46.2591C27.7648 44.7325 26.5272 43.4949 25.0006 43.4949C23.4739 43.4949 22.2363 44.7325 22.2363 46.2591C22.2363 47.7858 23.4739 49.0234 25.0006 49.0234Z" stroke="#0D1835" stroke-width="1.5" stroke-miterlimit="10" stroke-linecap="round" stroke-linejoin="round"/>
<path d="M48.2134 26.9549C49.2929 25.8754 49.2929 24.1251 48.2134 23.0456C47.1339 21.9661 45.3837 21.9661 44.3042 23.0456C43.2247 24.1251 43.2247 25.8754 44.3042 26.9549C45.3837 28.0344 47.1339 28.0344 48.2134 26.9549Z" stroke="#0D1835" stroke-width="1.5" stroke-miterlimit="10" stroke-linecap="round" stroke-linejoin="round"/>
<path d="M5.69585 26.9544C6.77535 25.8749 6.77535 24.1246 5.69585 23.0451C4.61635 21.9656 2.86614 21.9656 1.78664 23.0451C0.707138 24.1246 0.707138 25.8749 1.78664 26.9544C2.86614 28.0339 4.61635 28.0339 5.69585 26.9544Z" stroke="#0D1835" stroke-width="1.5" stroke-miterlimit="10" stroke-linecap="round" stroke-linejoin="round"/>
<path d="M8.3131 6.74589C8.86789 5.32366 8.16468 3.72097 6.74245 3.16618C5.32021 2.61139 3.71752 3.3146 3.16273 4.73683C2.60795 6.15906 3.31115 7.76176 4.73339 8.31654C6.15562 8.87133 7.75831 8.16813 8.3131 6.74589Z" stroke="#0D1835" stroke-width="1.5" stroke-miterlimit="10" stroke-linecap="round" stroke-linejoin="round"/>
<path d="M46.8287 45.2554C47.3835 43.8332 46.6803 42.2305 45.2581 41.6757C43.8358 41.1209 42.2331 41.8241 41.6784 43.2464C41.1236 44.6686 41.8268 46.2713 43.249 46.8261C44.6712 47.3809 46.2739 46.6776 46.8287 45.2554Z" stroke="#0D1835" stroke-width="1.5" stroke-miterlimit="10" stroke-linecap="round" stroke-linejoin="round"/>
<path d="M46.9377 6.43998C47.3292 4.96431 46.4504 3.4506 44.9748 3.05902C43.4991 2.66743 41.9854 3.54625 41.5938 5.02192C41.2022 6.49758 42.081 8.01129 43.5567 8.40288C45.0324 8.79447 46.5461 7.91565 46.9377 6.43998Z" stroke="#0D1835" stroke-width="1.5" stroke-miterlimit="10" stroke-linecap="round" stroke-linejoin="round"/>
<path d="M8.42399 44.9651C8.81558 43.4895 7.93676 41.9758 6.46109 41.5842C4.98542 41.1926 3.47171 42.0714 3.08013 43.5471C2.68854 45.0227 3.56736 46.5364 5.04303 46.928C6.51869 47.3196 8.0324 46.4408 8.42399 44.9651Z" stroke="#0D1835" stroke-width="1.5" stroke-miterlimit="10" stroke-linecap="round" stroke-linejoin="round"/>
<path d="M46.0904 10.9448L46.0908 7.80801C45.005 8.7668 43.3475 8.725 42.3104 7.68809C41.2726 6.6501 41.2324 4.99355 42.1893 3.90771L27.7581 3.91826C27.6682 5.36182 26.4681 6.50527 25.0011 6.50527C23.5341 6.50527 22.3339 5.36182 22.244 3.91826L7.81475 3.91641C8.77061 5.00127 8.73144 6.65781 7.69355 7.6958C6.65664 8.73369 4.99795 8.77383 3.91211 7.81602V22.2414C5.35859 22.3294 6.50596 23.5314 6.50596 25.0004C6.50596 26.4703 5.35957 27.6715 3.91211 27.7584V42.1865C4.99697 41.2228 6.66445 41.261 7.70439 42.2999C8.74424 43.3408 8.78242 45.0103 7.81777 46.0951H22.243C22.3271 44.6447 23.5291 43.4944 25.001 43.4944C26.4729 43.4944 27.675 44.6447 27.759 46.0951H42.1884C41.2237 45.0103 41.2618 43.3381 42.3018 42.2973C43.3406 41.2573 45.0031 41.2192 46.089 42.1829L46.0909 27.7584C44.6435 27.6724 43.4961 26.4703 43.4961 25.0004C43.4961 23.5314 44.6425 22.3293 46.089 22.2414L46.0893 19.5434" stroke="#0D1835" stroke-width="1.5" stroke-miterlimit="10" stroke-linecap="round" stroke-linejoin="round"/>
<path d="M25 43.4941V31.6028" stroke="#0D1835" stroke-width="1.5" stroke-miterlimit="10" stroke-linecap="round" stroke-linejoin="round"/>
<path d="M25 15.5237V6.50488" stroke="#0D1835" stroke-width="1.5" stroke-miterlimit="10" stroke-linecap="round" stroke-linejoin="round"/>
<path d="M11.9868 25H6.50586" stroke="#0D1835" stroke-width="1.5" stroke-miterlimit="10" stroke-linecap="round" stroke-linejoin="round"/>
<path d="M43.4938 25H39.0156" stroke="#0D1835" stroke-width="1.5" stroke-miterlimit="10" stroke-linecap="round" stroke-linejoin="round"/>
<path d="M42.2995 42.2988L31.6035 31.6028" stroke="#0D1835" stroke-width="1.5" stroke-miterlimit="10" stroke-linecap="round" stroke-linejoin="round"/>
<path d="M18.2837 18.2827L7.69531 7.69434" stroke="#0D1835" stroke-width="1.5" stroke-miterlimit="10" stroke-linecap="round" stroke-linejoin="round"/>
<path d="M18.397 31.6028L7.70117 42.2986" stroke="#0D1835" stroke-width="1.5" stroke-miterlimit="10" stroke-linecap="round" stroke-linejoin="round"/>
<path d="M42.3114 7.6897L31.0078 18.9933" stroke="#0D1835" stroke-width="1.5" stroke-miterlimit="10" stroke-linecap="round" stroke-linejoin="round"/>
<circle cx="46.0898" cy="15.2441" r="0.976562" fill="#0D1835"/>
</g>
<defs>
<clipPath id="clip0_554_2546">
<rect width="50" height="50" fill="white"/>
</clipPath>
</defs>
</svg>
