<svg width="40" height="40" viewBox="0 0 40 40" fill="none" xmlns="http://www.w3.org/2000/svg">
<g clip-path="url(#clip0_693_2634)">
<path d="M6.25 39.3749H33.75C33.9158 39.3749 34.0747 39.3091 34.1919 39.1919C34.3092 39.0747 34.375 38.9157 34.375 38.7499V36.2499C34.375 36.0842 34.3092 35.9252 34.1919 35.808C34.0747 35.6908 33.9158 35.6249 33.75 35.6249H31.875V1.24994C31.875 1.08418 31.8092 0.925207 31.6919 0.807997C31.5747 0.690787 31.4158 0.624939 31.25 0.624939H8.75C8.58424 0.624939 8.42527 0.690787 8.30806 0.807997C8.19085 0.925207 8.125 1.08418 8.125 1.24994V35.6249H6.25C6.08424 35.6249 5.92527 35.6908 5.80806 35.808C5.69085 35.9252 5.625 36.0842 5.625 36.2499V38.7499C5.625 38.9157 5.69085 39.0747 5.80806 39.1919C5.92527 39.3091 6.08424 39.3749 6.25 39.3749ZM9.375 1.87494H30.625V35.6249H29.375V3.74994C29.375 3.58418 29.3092 3.42521 29.1919 3.308C29.0747 3.19079 28.9158 3.12494 28.75 3.12494H11.25C11.0842 3.12494 10.9253 3.19079 10.8081 3.308C10.6908 3.42521 10.625 3.58418 10.625 3.74994V35.6249H9.375V1.87494ZM28.125 17.4999H11.875V4.37494H28.125V17.4999ZM11.875 18.7499H28.125V35.6249H11.875V18.7499ZM6.875 36.8749H33.125V38.1249H6.875V36.8749Z" fill="white"/>
<path d="M16.8218 12.7056L16.2624 15.5C16.2439 15.5908 16.2458 15.6846 16.268 15.7746C16.2901 15.8646 16.3321 15.9485 16.3907 16.0203C16.4493 16.0921 16.5232 16.1499 16.6069 16.1897C16.6907 16.2294 16.7822 16.25 16.8749 16.25C16.963 16.2499 17.0501 16.2314 17.1305 16.1956L20.0399 14.8918L22.8637 16.1925C22.9682 16.2406 23.084 16.259 23.1983 16.2456C23.3125 16.2321 23.4209 16.1874 23.5114 16.1163C23.6019 16.0452 23.671 15.9505 23.7111 15.8426C23.7512 15.7348 23.7607 15.6179 23.7387 15.505L23.1793 12.7081L25.443 10.4443C25.5239 10.3634 25.581 10.2619 25.6082 10.1507C25.6353 10.0396 25.6314 9.92314 25.5969 9.81407C25.5624 9.70499 25.4987 9.60747 25.4126 9.53214C25.3265 9.4568 25.2213 9.40654 25.1087 9.38684L22.0193 8.84871L20.5574 5.96684C20.5047 5.86273 20.4238 5.77547 20.3241 5.71494C20.2243 5.6544 20.1096 5.62301 19.9929 5.62431C19.8762 5.62561 19.7622 5.65955 19.6638 5.7223C19.5654 5.78504 19.4866 5.87408 19.4362 5.97934L18.0612 8.84559L14.8955 9.38371C14.7825 9.40288 14.6768 9.45279 14.5902 9.52798C14.5036 9.60317 14.4394 9.70073 14.4046 9.81C14.3697 9.91926 14.3656 10.036 14.3927 10.1474C14.4197 10.2589 14.4769 10.3607 14.558 10.4418L16.8218 12.7056ZM18.5899 10.0243C18.6885 10.0075 18.7816 9.96732 18.8614 9.90707C18.9413 9.84682 19.0055 9.76829 19.0487 9.67809L20.0155 7.66246L21.0449 9.69059C21.0889 9.77728 21.1524 9.85253 21.2305 9.91036C21.3086 9.96818 21.3992 10.007 21.4949 10.0237L23.7068 10.4093L22.058 12.0581C21.9856 12.1307 21.9322 12.2199 21.9025 12.318C21.8727 12.4161 21.8675 12.52 21.8874 12.6206L22.2712 14.5418L20.3049 13.6356C20.2237 13.5987 20.1356 13.5797 20.0465 13.5797C19.9573 13.5797 19.8692 13.5987 19.788 13.6356L17.7255 14.56L18.1124 12.6225C18.1323 12.5219 18.1271 12.418 18.0974 12.3199C18.0676 12.2218 18.0142 12.1325 17.9418 12.06L16.2974 10.4156L18.5899 10.0243Z" fill="white"/>
<path d="M25 29.3749H15C14.8342 29.3749 14.6753 29.4408 14.5581 29.558C14.4408 29.6752 14.375 29.8342 14.375 29.9999V33.7499C14.375 33.9157 14.4408 34.0747 14.5581 34.1919C14.6753 34.3091 14.8342 34.3749 15 34.3749H25C25.1658 34.3749 25.3247 34.3091 25.4419 34.1919C25.5592 34.0747 25.625 33.9157 25.625 33.7499V29.9999C25.625 29.8342 25.5592 29.6752 25.4419 29.558C25.3247 29.4408 25.1658 29.3749 25 29.3749ZM24.375 33.1249H15.625V30.6249H24.375V33.1249Z" fill="white"/>
<path d="M25.625 19.9999H26.875V24.9999H25.625V19.9999Z" fill="white"/>
</g>
<defs>
<clipPath id="clip0_693_2634">
<rect width="40" height="40" fill="white"/>
</clipPath>
</defs>
</svg>
