<svg width="40" height="40" viewBox="0 0 40 40" fill="none" xmlns="http://www.w3.org/2000/svg">
<g clip-path="url(#clip0_792_2736)">
<path d="M38.4229 35.0039H36.6114C35.2455 32.3886 34.4252 29.1901 34.3649 26.2628C34.3418 26.2646 35.6126 26.2608 35.6126 26.2608C36.6456 26.2608 37.4861 25.4203 37.4861 24.3873V18.1422C37.4861 17.4535 36.9258 16.8932 36.2371 16.8932H34.6759C33.9872 16.8932 33.4269 17.4535 33.4269 18.1422V19.7034H32.1779V18.1422C32.1779 17.4535 31.6176 16.8932 30.9289 16.8932H29.0554C28.3667 16.8932 27.8064 17.4535 27.8064 18.1422V19.7034H26.5574V18.1422C26.5574 17.4535 25.9971 16.8932 25.3084 16.8932H23.7472C23.0585 16.8932 22.4982 17.4535 22.4982 18.1422V24.3873C22.4982 25.4203 23.3387 26.2608 24.3717 26.2608H25.6083C25.5052 29.199 24.6865 32.3963 23.3657 35.0039H21.5615C20.8728 35.0039 20.3125 35.5642 20.3125 36.2529V38.7509C20.3125 39.4396 20.8728 39.9999 21.5615 39.9999H38.4232C39.1119 39.9999 39.6722 39.4396 39.6722 38.7509V36.2529C39.6719 35.5642 39.1116 35.0039 38.4229 35.0039ZM23.7469 24.3873V18.1422H25.3081V20.328C25.3081 20.6728 25.5877 20.9525 25.9327 20.9525H28.4307C28.7756 20.9525 29.0552 20.6729 29.0552 20.328V18.1422H30.9288V20.328C30.9288 20.6728 31.2084 20.9525 31.5533 20.9525H34.0513C34.3962 20.9525 34.6759 20.6729 34.6759 20.328V18.1422H36.2371V24.3873C36.2371 24.7316 35.957 25.0118 35.6126 25.0118H24.3714C24.027 25.0118 23.7469 24.7316 23.7469 24.3873ZM26.8584 26.2608H33.1166C33.173 29.1697 33.9342 32.3303 35.2155 35.0039H24.7555C25.999 32.3385 26.7618 29.1769 26.8584 26.2608ZM38.4229 38.7509H21.5612V36.2529H38.4229L38.4237 38.7509C38.4237 38.7509 38.4234 38.7509 38.4229 38.7509Z" fill="white"/>
<path d="M12.8472 5.43633C13.1742 5.32679 13.3505 4.97281 13.2409 4.64578C13.1314 4.31875 12.7774 4.1425 12.4505 4.25195C11.1764 4.67875 10.3203 5.8689 10.3203 7.21328C10.3203 8.935 11.7211 10.3358 13.4429 10.3358C14.7813 10.3358 15.9698 9.48476 16.4001 8.21812C16.511 7.89156 16.3363 7.53687 16.0097 7.42593C15.6833 7.31539 15.3284 7.48984 15.2175 7.8164C14.9593 8.57625 14.2462 9.08679 13.443 9.08679C12.4099 9.08679 11.5695 8.24633 11.5695 7.21328C11.5694 6.40648 12.0829 5.69234 12.8472 5.43633Z" fill="white"/>
<path d="M18.4389 38.7509H2.51391C1.99734 38.7509 1.57711 38.3307 1.57711 37.8141V13.5028C1.57711 12.8355 1.83695 12.2082 2.30875 11.7365L12.3388 1.70633C12.6337 1.41148 13.0258 1.24898 13.4428 1.24898C13.8598 1.24898 14.252 1.41148 14.5468 1.70641L16.89 4.04961C15.2724 4.73625 13.9172 5.6293 12.9777 6.67742C12.7474 6.93422 12.769 7.32906 13.0259 7.5593C13.2827 7.78953 13.6775 7.76805 13.9077 7.51109C14.8076 6.50727 16.192 5.65219 17.8547 5.01437L24.5767 11.7365C25.0485 12.2082 25.3084 12.8355 25.3084 13.5028V15.0196C25.3084 15.3645 25.588 15.6441 25.9329 15.6441C26.2778 15.6441 26.5574 15.3645 26.5574 15.0196V13.5028C26.5574 12.502 26.1677 11.5609 25.4599 10.8532L19.1764 4.56969C20.913 4.06352 22.8627 3.77852 24.8401 3.77852C28.8862 3.77852 32.178 6.58008 32.178 10.0236C32.178 11.7845 31.2956 13.4734 29.757 14.6573C29.4836 14.8677 29.4325 15.2598 29.6428 15.5331C29.7658 15.693 29.9509 15.7769 30.1382 15.7768C30.2711 15.7768 30.4051 15.7345 30.5186 15.6472C32.367 14.225 33.4271 12.1752 33.4271 10.0236C33.4271 5.89133 29.575 2.52945 24.8401 2.52945C22.4742 2.52945 20.1758 2.90258 18.1734 3.56664L15.4301 0.823281C14.8992 0.292344 14.1935 0 13.4428 0C12.6921 0 11.9864 0.292344 11.4556 0.823203L1.42563 10.8532C0.717891 11.5609 0.328125 12.502 0.328125 13.5028V37.8142C0.328125 39.0195 1.30867 40 2.51391 40H18.4389C18.7838 40 19.0634 39.7204 19.0634 39.3755C19.0634 39.0306 18.7838 38.7509 18.4389 38.7509Z" fill="white"/>
<path d="M16.877 21.5769C17.222 21.5769 17.5016 21.2973 17.5016 20.9524V20.6401C17.5016 19.0905 16.2409 17.8298 14.6912 17.8298H14.0667V16.5808C14.0667 16.236 13.7871 15.9563 13.4422 15.9563C13.0973 15.9563 12.8177 16.2359 12.8177 16.5808V17.8298H12.1931C10.6435 17.8298 9.38281 19.0905 9.38281 20.6401V21.5769C9.38281 23.1265 10.6435 24.3872 12.1931 24.3872H14.6912C15.552 24.3872 16.2524 25.0876 16.2524 25.9485V26.8853C16.2524 27.7462 15.552 28.4465 14.6912 28.4465H12.1931C11.3323 28.4465 10.6319 27.7461 10.6319 26.8853V26.573C10.6319 26.2282 10.3523 25.9485 10.0073 25.9485C9.66242 25.9485 9.38281 26.2281 9.38281 26.573V26.8853C9.38281 28.4349 10.6435 29.6956 12.1931 29.6956H12.8177V30.9446C12.8177 31.2894 13.0973 31.5691 13.4422 31.5691C13.7871 31.5691 14.0667 31.2895 14.0667 30.9446V29.6956H14.6912C16.2409 29.6956 17.5016 28.4349 17.5016 26.8853V25.9485C17.5016 24.3989 16.2409 23.1382 14.6912 23.1382H12.1932C11.3323 23.1382 10.632 22.4378 10.632 21.5769V20.6401C10.632 19.7792 11.3323 19.0789 12.1932 19.0789H14.6912C15.5521 19.0789 16.2525 19.7793 16.2525 20.6401V20.9524C16.2525 21.2973 16.5321 21.5769 16.877 21.5769Z" fill="white"/>
<path d="M21.71 25.945C21.373 25.8722 21.0405 26.0864 20.9677 26.4236C20.0356 30.7401 16.9409 33.7548 13.442 33.7548C9.13758 33.7548 5.6357 29.2723 5.6357 23.7626C5.6357 18.2529 9.13766 13.7704 13.442 13.7704C16.4215 13.7704 19.1843 15.9968 20.4808 19.4422C20.6022 19.765 20.9623 19.9284 21.2852 19.8068C21.608 19.6854 21.7713 19.3252 21.6498 19.0023C20.9369 17.1078 19.8142 15.4998 18.4031 14.3525C16.9298 13.1545 15.2143 12.5213 13.442 12.5213C10.9956 12.5213 8.70477 13.7095 6.99148 15.867C5.31172 17.9822 4.38672 20.7862 4.38672 23.7625C4.38672 26.7387 5.3118 29.5428 6.99148 31.6579C8.70484 33.8154 10.9956 35.0036 13.442 35.0036C17.5345 35.0036 21.1313 31.5837 22.1887 26.687C22.2615 26.3501 22.0472 26.0178 21.71 25.945Z" fill="white"/>
</g>
<defs>
<clipPath id="clip0_792_2736">
<rect width="40" height="40" fill="white"/>
</clipPath>
</defs>
</svg>
