<svg width="30" height="30" viewBox="0 0 30 30" fill="none" xmlns="http://www.w3.org/2000/svg">
<circle cx="15" cy="15" r="15" fill="#0D1835"/>
<path fill-rule="evenodd" clip-rule="evenodd" d="M16.0601 19.0604C15.7788 19.3413 15.3976 19.4991 15.0001 19.4991C14.6026 19.4991 14.2213 19.3413 13.9401 19.0604L8.28209 13.4044C8.00083 13.123 7.84287 12.7414 7.84296 12.3435C7.84305 11.9457 8.00119 11.5641 8.28259 11.2829C8.56398 11.0016 8.94558 10.8437 9.34344 10.8437C9.7413 10.8438 10.1228 11.002 10.4041 11.2834L15.0001 15.8794L19.5961 11.2834C19.8789 11.01 20.2577 10.8586 20.651 10.8619C21.0443 10.8651 21.4206 11.0227 21.6988 11.3007C21.9771 11.5786 22.135 11.9548 22.1386 12.3481C22.1422 12.7414 21.9912 13.1203 21.7181 13.4034L16.0611 19.0614L16.0601 19.0604Z" fill="white"/>
</svg>
