<svg width="45" height="45" viewBox="0 0 45 45" fill="none" xmlns="http://www.w3.org/2000/svg">
<circle opacity="0.08" cx="22.5" cy="22.5" r="22" fill="white" stroke="#0D1835"/>
<g clip-path="url(#clip0_1075_2838)">
<path d="M32 23C32 17.4772 27.5228 13 22 13C16.4772 13 12 17.4772 12 23C12 27.9913 15.6569 32.1284 20.4375 32.8785V25.8906H17.8984V23H20.4375V20.7969C20.4375 18.2906 21.9305 16.9063 24.2147 16.9063C25.3088 16.9063 26.4531 17.1016 26.4531 17.1016V19.5625H25.1922C23.9499 19.5625 23.5625 20.3334 23.5625 21.1242V23H26.3359L25.8926 25.8906H23.5625V32.8785C28.3431 32.1284 32 27.9913 32 23Z" fill="#1877F2"/>
<path d="M25.8926 25.8906L26.3359 23H23.5625V21.1242C23.5625 20.3333 23.9499 19.5625 25.1922 19.5625H26.4531V17.1016C26.4531 17.1016 25.3088 16.9062 24.2146 16.9062C21.9305 16.9062 20.4375 18.2906 20.4375 20.7969V23H17.8984V25.8906H20.4375V32.8785C20.9544 32.9595 21.4768 33.0001 22 33C22.5232 33.0001 23.0456 32.9595 23.5625 32.8785V25.8906H25.8926Z" fill="white"/>
</g>
<defs>
<clipPath id="clip0_1075_2838">
<rect width="20" height="20" fill="white" transform="translate(12 13)"/>
</clipPath>
</defs>
</svg>
