<svg width="50" height="50" viewBox="0 0 50 50" fill="none" xmlns="http://www.w3.org/2000/svg">
<path d="M26.5625 3.125C18.9062 3.125 11.7109 7.21094 7.78122 13.7891L9.12497 14.5938C12.7734 8.48438 19.4609 4.69531 26.5625 4.69531C37.7656 4.69531 46.875 13.8047 46.875 25.0078C46.875 36.2109 37.7656 45.3203 26.5625 45.3203C15.3593 45.3203 6.24997 36.2109 6.24997 25.0078C6.24997 24.7578 6.24997 24.5 6.26559 24.25C6.26559 24.0391 6.19528 23.8359 6.04684 23.6797C5.89841 23.5312 5.69528 23.4453 5.48434 23.4453H3.84372L7.81247 17.7734L10.0156 20.9219C10.0156 20.9219 10.0547 20.9922 10.0781 21.0234L11.7734 23.4453H10.1718C9.75778 23.4453 9.41403 23.7656 9.3906 24.1797C9.37497 24.4531 9.36716 24.7266 9.36716 25.0078C9.36716 34.4844 17.0781 42.1953 26.5547 42.1953C36.0312 42.1953 43.7422 34.4844 43.7422 25.0078C43.7422 15.5312 36.0312 7.82031 26.5547 7.82031C19.664 7.82031 13.4609 11.9062 10.7578 18.2344L12.1953 18.8516C14.6562 13.1016 20.289 9.39063 26.5547 9.39063C35.1718 9.39063 42.1797 16.3984 42.1797 25.0156C42.1797 33.6328 35.1718 40.6406 26.5547 40.6406C17.9375 40.6406 10.9297 33.6328 10.9297 25.0156H13.2734C13.5625 25.0156 13.8359 24.8516 13.9687 24.5938C14.1015 24.3359 14.0859 24.0234 13.914 23.7812L11.414 20.2188C11.414 20.2188 11.375 20.1484 11.3515 20.1172L8.44528 15.9688C8.15622 15.5547 7.46091 15.5547 7.16403 15.9688L1.70309 23.7734C1.53903 24.0156 1.51559 24.3203 1.64841 24.5859C1.78122 24.8438 2.04684 25.0078 2.34372 25.0078H4.68747C4.68747 37.0703 14.5 46.8828 26.5625 46.8828C38.625 46.8828 48.4375 37.0703 48.4375 25.0078C48.4375 12.9453 38.625 3.125 26.5625 3.125Z" fill="#0D1835"/>
<path d="M20.0156 26.7344L19.0391 27.9531L22.9453 31.0781C23.0859 31.1875 23.2578 31.25 23.4297 31.25H23.5156C23.7266 31.2266 23.9141 31.1172 24.0391 30.9531L32.6328 20.0156L31.4062 19.0469L23.2969 29.3672L20.0078 26.7344H20.0156Z" fill="#0D1835"/>
<path d="M27.2734 14.875L27.4141 13.3203C26.8516 13.2656 26.2734 13.2656 25.7109 13.3203L25.8516 14.875C26.3203 14.8359 26.8047 14.8359 27.2734 14.875Z" fill="#0D1835"/>
<path d="M15.1094 22.4922L16.6328 22.8281C17.4766 18.9687 20.5156 15.9297 24.3828 15.0781L24.0469 13.5547C19.5859 14.5391 16.0781 18.0469 15.1094 22.4922Z" fill="#0D1835"/>
<path d="M16.6406 27.1797L15.1172 27.5156C16.0859 31.9688 19.5938 35.4766 24.0547 36.4531L24.3906 34.9297C20.5234 34.0781 17.4844 31.0391 16.6406 27.1797Z" fill="#0D1835"/>
<path d="M14.8438 25C14.8438 25.2812 14.8516 25.5547 14.8672 25.8281L16.4297 25.7344C16.4141 25.4922 16.4062 25.25 16.4062 25C16.4062 24.75 16.4063 24.5078 16.4297 24.2656L14.8672 24.1719C14.8516 24.4453 14.8438 24.7187 14.8438 25Z" fill="#0D1835"/>
<path d="M38.2812 25C38.2812 24.7187 38.2734 24.4453 38.2578 24.1719L36.6953 24.2656C36.7109 24.5078 36.7187 24.75 36.7187 25C36.7187 25.25 36.7188 25.4922 36.6953 25.7344L38.2578 25.8281C38.2734 25.5547 38.2812 25.2812 38.2812 25Z" fill="#0D1835"/>
<path d="M28.7422 34.9219L29.0781 36.4453C33.5391 35.4609 37.0469 31.9531 38.0156 27.5078L36.4922 27.1719C35.6484 31.0312 32.6094 34.0703 28.7422 34.9219Z" fill="#0D1835"/>
<path d="M29.0703 13.5469L28.7344 15.0703C32.6016 15.9219 35.6406 18.9609 36.4844 22.8203L38.0078 22.4844C37.0391 18.0313 33.5313 14.5234 29.0703 13.5469Z" fill="#0D1835"/>
<path d="M25.8516 35.125L25.7109 36.6797C25.9922 36.7031 26.2734 36.7109 26.5625 36.7109C26.8516 36.7109 27.1328 36.7031 27.4141 36.6797L27.2734 35.125C26.8047 35.1641 26.3203 35.1641 25.8516 35.125Z" fill="#0D1835"/>
</svg>
