<svg width="45" height="45" viewBox="0 0 45 45" fill="none" xmlns="http://www.w3.org/2000/svg">
<circle opacity="0.08" cx="22.5" cy="22.5" r="22" fill="white" stroke="#0D1835"/>
<g clip-path="url(#clip0_1075_2830)">
<path d="M18.9672 13.6578C16.9689 14.3511 15.2456 15.6668 14.0503 17.4119C12.8551 19.157 12.2509 21.2393 12.3267 23.3531C12.4024 25.4669 13.1539 27.5007 14.4709 29.1558C15.7879 30.8108 17.601 32 19.6438 32.5485C21.2999 32.9758 23.035 32.9946 24.7 32.6032C26.2083 32.2644 27.6028 31.5397 28.7469 30.5C29.9376 29.3849 30.802 27.9664 31.2469 26.3969C31.7305 24.6901 31.8166 22.8952 31.4985 21.15H22.1985V25.0078H27.5844C27.4768 25.6231 27.2461 26.2104 26.9062 26.7345C26.5663 27.2585 26.1242 27.7086 25.6063 28.0578C24.9486 28.4929 24.2072 28.7856 23.4297 28.9172C22.6499 29.0622 21.8501 29.0622 21.0703 28.9172C20.28 28.7538 19.5324 28.4276 18.875 27.9594C17.819 27.2119 17.0261 26.1499 16.6094 24.925C16.1857 23.6772 16.1857 22.3244 16.6094 21.0766C16.906 20.2019 17.3963 19.4056 18.0438 18.7469C18.7847 17.9793 19.7227 17.4306 20.755 17.1611C21.7872 16.8915 22.8737 16.9115 23.8953 17.2188C24.6934 17.4638 25.4232 17.8918 26.0266 18.4688C26.6339 17.8646 27.2401 17.2589 27.8453 16.6516C28.1578 16.325 28.4985 16.0141 28.8063 15.6797C27.8853 14.8226 26.8042 14.1557 25.625 13.7172C23.4777 12.9375 21.1281 12.9166 18.9672 13.6578Z" fill="white"/>
<path d="M18.9676 13.6578C21.1283 12.916 23.4779 12.9364 25.6254 13.7156C26.8048 14.1571 27.8854 14.8272 28.8051 15.6875C28.4926 16.0219 28.1629 16.3344 27.8441 16.6594C27.2379 17.2646 26.6322 17.8677 26.027 18.4687C25.4236 17.8918 24.6938 17.4637 23.8957 17.2187C22.8744 16.9104 21.7879 16.8893 20.7554 17.1577C19.7229 17.4262 18.7843 17.9738 18.0426 18.7406C17.3951 19.3993 16.9048 20.1956 16.6082 21.0703L13.3691 18.5625C14.5285 16.2634 16.5359 14.5047 18.9676 13.6578Z" fill="#E33629"/>
<path d="M12.5102 21.0469C12.6842 20.1841 12.9733 19.3485 13.3695 18.5625L16.6086 21.0766C16.1849 22.3244 16.1849 23.6772 16.6086 24.925C15.5294 25.7583 14.4497 26.5958 13.3695 27.4375C12.3776 25.463 12.075 23.2133 12.5102 21.0469Z" fill="#F8BD00"/>
<path d="M22.198 21.1484H31.498C31.8161 22.8936 31.73 24.6885 31.2464 26.3953C30.8015 27.9648 29.9371 29.3834 28.7464 30.4984C27.7011 29.6828 26.6511 28.8734 25.6058 28.0578C26.124 27.7082 26.5663 27.2576 26.9063 26.733C27.2462 26.2084 27.4766 25.6205 27.5839 25.0047H22.198C22.1964 23.7203 22.198 22.4344 22.198 21.1484Z" fill="#587DBD"/>
<path d="M13.3672 27.4375C14.4474 26.6042 15.5271 25.7667 16.6062 24.925C17.0238 26.1503 17.8178 27.2123 18.875 27.9594C19.5344 28.4254 20.2836 28.7489 21.075 28.9094C21.8548 29.0544 22.6546 29.0544 23.4344 28.9094C24.2119 28.7778 24.9533 28.485 25.6109 28.05C26.6562 28.8656 27.7063 29.675 28.7516 30.4906C27.6076 31.5308 26.2132 32.2561 24.7047 32.5953C23.0397 32.9867 21.3046 32.9679 19.6484 32.5406C18.3386 32.1909 17.1151 31.5744 16.0547 30.7297C14.9323 29.8386 14.0156 28.7156 13.3672 27.4375Z" fill="#319F43"/>
</g>
<defs>
<clipPath id="clip0_1075_2830">
<rect width="20" height="20" fill="white" transform="translate(12 13)"/>
</clipPath>
</defs>
</svg>
