<svg width="38" height="36" viewBox="0 0 38 36" fill="none" xmlns="http://www.w3.org/2000/svg">
<path d="M31.9836 15.1282C31.1078 15.1313 30.2898 15.4704 29.6781 16.0837L25.9188 19.2962C25.9273 19.2008 25.9312 19.1047 25.9312 19.0079C25.9312 17.1852 24.4484 15.7024 22.6258 15.7024H13.0711C11.8383 15.7024 10.7719 16.1446 9.9 17.0157L5.89531 21.0204L5.00781 20.1329C4.75469 19.8797 4.41719 19.7407 4.05781 19.7407C3.69844 19.7407 3.36094 19.8797 3.10781 20.1329L0.564063 22.6766C0.310938 22.9282 0.171875 23.2657 0.171875 23.6251C0.171875 23.9844 0.311719 24.3219 0.564844 24.5751L11.3039 35.3141C11.5656 35.5758 11.9102 35.7071 12.2539 35.7071C12.5977 35.7071 12.9422 35.5758 13.2039 35.3141L15.7477 32.7704C16.2719 32.2462 16.2719 31.3938 15.7477 30.8704L14.8586 29.9813C15.7812 29.0462 16.2602 28.5751 17.7242 28.3852L25.3117 27.4024C26.3875 27.2633 27.275 26.8649 28.1055 26.1485L34.3164 20.7954L34.3422 20.7719C35.6312 19.4829 35.6312 17.386 34.3422 16.0969C33.7141 15.4688 32.875 15.1243 31.9836 15.1282ZM15.0844 32.1079L12.5406 34.6516C12.382 34.8102 12.1242 34.8102 11.9664 34.6516L1.22734 23.9126C1.15156 23.836 1.10938 23.7344 1.10938 23.6251C1.10938 23.5157 1.15156 23.4141 1.22734 23.3376L3.77109 20.7938C3.84687 20.718 3.94922 20.6758 4.05859 20.6758C4.16797 20.6758 4.26953 20.718 4.34609 20.7938L15.0852 31.5329C15.243 31.6915 15.243 31.9493 15.0844 32.1079ZM33.6898 20.0962L27.493 25.4376C26.7984 26.0368 26.0883 26.3555 25.1906 26.4719L17.6031 27.4547C15.8242 27.6852 15.1648 28.3352 14.1945 29.318L6.55859 21.6821L10.5633 17.6774C11.2523 16.9883 12.0961 16.6383 13.0711 16.6383H22.625C23.9312 16.6383 24.993 17.7008 24.993 19.0063C24.993 19.654 24.732 20.2415 24.3094 20.6688L24.3008 20.6766C23.8297 21.0782 23.1766 21.2805 22.4453 21.3743H15.9094C15.6508 21.3743 15.4406 21.5844 15.4406 21.843C15.4406 22.1016 15.6508 22.3118 15.9094 22.3118H18.6016C18.9305 22.3165 19.2758 22.3305 19.6414 22.3454C20.5789 22.3837 21.5789 22.4251 22.5086 22.3118H22.6234C23.525 22.3118 24.3438 21.9493 24.9406 21.3618L30.3008 16.7829C30.3109 16.7743 30.3211 16.7649 30.3305 16.7555C30.7664 16.3126 31.3547 16.0672 31.9859 16.0649H31.9953C32.6328 16.0649 33.2297 16.311 33.6773 16.7587C34.5977 17.6782 34.6016 19.1719 33.6898 20.0962ZM13.3672 14.5118H22.0812C23.5984 14.5118 24.8336 13.2774 24.8336 11.7594V3.04537C24.8336 1.52819 23.5992 0.29303 22.0812 0.29303H13.3672C11.85 0.29303 10.6148 1.52741 10.6148 3.04537V11.7594C10.6148 13.2766 11.85 14.5118 13.3672 14.5118ZM11.5523 3.04537C11.5523 2.04459 12.3664 1.23053 13.3672 1.23053H22.0812C23.082 1.23053 23.8961 2.04459 23.8961 3.04537V11.7594C23.8961 12.7602 23.082 13.5743 22.0812 13.5743H13.3672C12.3664 13.5743 11.5523 12.7602 11.5523 11.7594V3.04537ZM14.282 7.45553C14.0992 7.27272 14.0992 6.97584 14.282 6.79225C14.4648 6.60944 14.7617 6.60944 14.9445 6.79225L16.8727 8.72037L20.5031 5.0899C20.6859 4.90709 20.9828 4.90709 21.1656 5.0899C21.3484 5.27272 21.3484 5.56959 21.1656 5.75319L17.2031 9.71569C17.1117 9.80709 16.9914 9.85319 16.8719 9.85319C16.7523 9.85319 16.632 9.80709 16.5406 9.71569L14.282 7.45553ZM37.6305 6.25319L32.7992 2.83053C32.6562 2.72897 32.4688 2.71647 32.3133 2.79694C32.1578 2.8774 32.0602 3.03834 32.0602 3.21334V4.65319H26.7617C26.5031 4.65319 26.293 4.86334 26.293 5.12194V8.15006C26.293 8.40866 26.5031 8.61881 26.7617 8.61881H32.0602V10.0587C32.0602 10.2337 32.1578 10.3946 32.3133 10.4751C32.3812 10.5102 32.4547 10.5274 32.5281 10.5274C32.6234 10.5274 32.7188 10.4985 32.7992 10.4415L37.6305 7.01881C37.7547 6.93131 37.8281 6.78834 37.8281 6.636C37.8281 6.48365 37.7547 6.34069 37.6305 6.25319ZM32.9969 9.15162V8.15006C32.9969 7.89147 32.7867 7.68131 32.5281 7.68131H27.2297V5.5899H32.5281C32.7867 5.5899 32.9969 5.37975 32.9969 5.12115V4.11959L36.5484 6.63522L32.9969 9.15162Z" fill="white"/>
</svg>
