<svg width="40" height="40" viewBox="0 0 40 40" fill="none" xmlns="http://www.w3.org/2000/svg">
<path fill-rule="evenodd" clip-rule="evenodd" d="M5.24505 5.24418L1.91172 8.57751C1.58672 8.90251 1.58672 9.43085 1.91172 9.75585C2.23672 10.0808 2.76505 10.0808 3.09005 9.75585L6.42339 6.42251C6.74839 6.09751 6.74839 5.56918 6.42339 5.24418C6.09839 4.91918 5.57005 4.91918 5.24505 5.24418Z" fill="white"/>
<path fill-rule="evenodd" clip-rule="evenodd" d="M29.4106 5.5892L32.7439 8.92253C33.0689 9.24753 33.5973 9.24753 33.9223 8.92253C34.2473 8.59753 34.2473 8.0692 33.9223 7.7442L30.5889 4.41086C30.2639 4.08586 29.7356 4.08586 29.4106 4.41086C29.0856 4.73586 29.0856 5.2642 29.4106 5.5892Z" fill="white"/>
<path fill-rule="evenodd" clip-rule="evenodd" d="M29.168 25.8334H29.1663C28.5038 25.8334 27.868 26.0967 27.3996 26.565C26.9313 27.0334 26.668 27.6692 26.668 28.3317V28.3334C26.668 29.7142 27.7871 30.8334 29.168 30.8334H30.8346C31.2946 30.8334 31.668 31.2067 31.668 31.6667V31.6684C31.668 31.8892 31.5805 32.1009 31.4246 32.2567C31.2688 32.4125 31.0571 32.5 30.8363 32.5C29.8171 32.5 30.1855 32.5 29.1663 32.5C28.9455 32.5 28.7338 32.4125 28.578 32.2567C28.4221 32.1009 28.3346 31.8892 28.3346 31.6684C28.3346 31.2084 27.9613 30.835 27.5013 30.835C27.0413 30.835 26.668 31.2084 26.668 31.6684C26.668 32.3309 26.9313 32.9667 27.3996 33.435C27.868 33.9034 28.5038 34.1667 29.1663 34.1667H29.168V35C29.168 35.46 29.5413 35.8334 30.0013 35.8334C30.4613 35.8334 30.8346 35.46 30.8346 35V34.1667H30.8363C31.4988 34.1667 32.1346 33.9034 32.603 33.435C33.0713 32.9667 33.3346 32.3309 33.3346 31.6684V31.6667C33.3346 30.2859 32.2155 29.1667 30.8346 29.1667H29.168C28.708 29.1667 28.3346 28.7934 28.3346 28.3334V28.3317C28.3346 28.1109 28.4221 27.8992 28.578 27.7434C28.7338 27.5875 28.9455 27.5 29.1663 27.5H30.8363C31.0571 27.5 31.2688 27.5875 31.4246 27.7434C31.5805 27.8992 31.668 28.1109 31.668 28.3317C31.668 28.7917 32.0413 29.165 32.5013 29.165C32.9613 29.165 33.3346 28.7917 33.3346 28.3317C33.3346 27.6692 33.0713 27.0334 32.603 26.565C32.1346 26.0967 31.4988 25.8334 30.8363 25.8334H30.8346V25C30.8346 24.54 30.4613 24.1667 30.0013 24.1667C29.5413 24.1667 29.168 24.54 29.168 25V25.8334Z" fill="white"/>
<path fill-rule="evenodd" clip-rule="evenodd" d="M30.0007 20.8334C24.9415 20.8334 20.834 24.9409 20.834 30C20.834 35.0592 24.9415 39.1667 30.0007 39.1667C35.0598 39.1667 39.1673 35.0592 39.1673 30C39.1673 24.9409 35.0598 20.8334 30.0007 20.8334ZM30.0007 22.5C34.1398 22.5 37.5007 25.8609 37.5007 30C37.5007 34.1392 34.1398 37.5 30.0007 37.5C25.8615 37.5 22.5007 34.1392 22.5007 30C22.5007 25.8609 25.8615 22.5 30.0007 22.5Z" fill="white"/>
<path fill-rule="evenodd" clip-rule="evenodd" d="M15.9771 20.8334H10.0013C9.5413 20.8334 9.16797 21.2067 9.16797 21.6667C9.16797 22.1267 9.5413 22.5 10.0013 22.5H15.9771C16.3205 23.4709 17.2471 24.1667 18.3346 24.1667C19.7146 24.1667 20.8346 23.0467 20.8346 21.6667C20.8346 20.2867 19.7146 19.1667 18.3346 19.1667C17.2471 19.1667 16.3205 19.8625 15.9771 20.8334ZM18.3346 20.8334C18.7946 20.8334 19.168 21.2067 19.168 21.6667C19.168 22.1267 18.7946 22.5 18.3346 22.5C17.8746 22.5 17.5013 22.1267 17.5013 21.6667C17.5013 21.2067 17.8746 20.8334 18.3346 20.8334Z" fill="white"/>
<path fill-rule="evenodd" clip-rule="evenodd" d="M18.3346 7.50006C23.5688 7.50006 28.143 10.3442 30.5963 14.5717C30.5988 14.5751 30.6013 14.5792 30.603 14.5834C30.6055 14.5867 30.6071 14.5901 30.6088 14.5934C31.253 15.7076 31.7496 16.9184 32.0721 18.1976C32.1846 18.6434 31.9138 19.0967 31.468 19.2092C31.0221 19.3217 30.5688 19.0509 30.4563 18.6051C30.2405 17.7492 29.9363 16.9276 29.5538 16.1517L28.8546 16.5551C28.4563 16.7851 27.9463 16.6484 27.7163 16.2501C27.4863 15.8517 27.623 15.3417 28.0213 15.1117L28.7188 14.7092C27.8105 13.3567 26.6446 12.1917 25.2921 11.2826L24.8896 11.9801C24.6596 12.3784 24.1496 12.5151 23.7513 12.2851C23.353 12.0551 23.2163 11.5451 23.4463 11.1467L23.8496 10.4476C22.4213 9.7434 20.8388 9.30423 19.168 9.19423V10.0001C19.168 10.4601 18.7946 10.8334 18.3346 10.8334C17.8746 10.8334 17.5013 10.4601 17.5013 10.0001V9.19423C15.8296 9.30423 14.248 9.7434 12.8196 10.4476L13.223 11.1467C13.453 11.5451 13.3163 12.0551 12.918 12.2851C12.5196 12.5151 12.0096 12.3784 11.7796 11.9801L11.3771 11.2826C10.0246 12.1917 8.8588 13.3576 7.95047 14.7092L8.64797 15.1117C9.04631 15.3417 9.18297 15.8517 8.95297 16.2501C8.72297 16.6484 8.21298 16.7851 7.81464 16.5551L7.11546 16.1517C6.41129 17.5792 5.97213 19.1617 5.86213 20.8334H6.66797C7.12797 20.8334 7.5013 21.2067 7.5013 21.6667C7.5013 22.1267 7.12797 22.5001 6.66797 22.5001H5.86213C5.97213 24.1717 6.41129 25.7534 7.11546 27.1817L7.81464 26.7784C8.21298 26.5484 8.72297 26.6851 8.95297 27.0834C9.18297 27.4817 9.04631 27.9917 8.64797 28.2217L7.95047 28.6242C8.85964 29.9767 10.0255 31.1426 11.3771 32.0509L11.7796 31.3534C12.0096 30.9551 12.5196 30.8184 12.918 31.0484C13.3163 31.2784 13.453 31.7884 13.223 32.1867L12.8196 32.8859C14.2471 33.5901 15.8296 34.0292 17.5013 34.1392V33.3334C17.5013 32.8734 17.8746 32.5001 18.3346 32.5001C18.7946 32.5001 19.168 32.8734 19.168 33.3334V34.1392C19.2355 34.1351 19.3021 34.1301 19.3696 34.1242C19.828 34.0867 20.2305 34.4284 20.268 34.8867C20.3063 35.3451 19.9646 35.7476 19.5063 35.7859C19.1205 35.8176 18.7296 35.8334 18.3346 35.8334C10.5155 35.8334 4.16797 29.4859 4.16797 21.6667C4.16797 13.8476 10.5155 7.50006 18.3346 7.50006Z" fill="white"/>
<path fill-rule="evenodd" clip-rule="evenodd" d="M14.1673 4.66671C6.51815 6.53755 0.833984 13.4434 0.833984 21.6667C0.833984 25.8667 2.31649 29.7225 4.78649 32.74C5.07816 33.0959 5.60315 33.1484 5.95898 32.8575C6.31481 32.5659 6.36731 32.04 6.07647 31.6842C3.84147 28.955 2.50065 25.4659 2.50065 21.6667C2.50065 12.9284 9.59565 5.83337 18.334 5.83337C26.3373 5.83337 32.9623 11.7842 34.0198 19.4984C34.0823 19.9542 34.5032 20.2734 34.959 20.2109C35.414 20.1484 35.7331 19.7275 35.6706 19.2725C34.6923 12.1292 29.3948 6.35338 22.5007 4.66671V2.91671C22.5007 2.36421 22.2815 1.8342 21.8907 1.44337C21.4998 1.05254 20.9698 0.833374 20.4173 0.833374C19.2257 0.833374 17.4423 0.833374 16.2507 0.833374C15.6982 0.833374 15.1681 1.05254 14.7773 1.44337C14.3865 1.8342 14.1673 2.36421 14.1673 2.91671V4.66671ZM20.834 4.34421V2.91671C20.834 2.80587 20.7898 2.70004 20.7123 2.6217C20.634 2.5442 20.5282 2.50004 20.4173 2.50004H16.2507C16.1398 2.50004 16.034 2.5442 15.9556 2.6217C15.8781 2.70004 15.834 2.80587 15.834 2.91671V4.34421C16.6498 4.22754 17.4848 4.16671 18.334 4.16671C19.1823 4.16671 20.0165 4.22754 20.834 4.34421Z" fill="white"/>
<path fill-rule="evenodd" clip-rule="evenodd" d="M21.3763 37.2075C20.3922 37.3992 19.3747 37.5 18.3338 37.5C14.5347 37.5 11.0455 36.1592 8.31633 33.9242C7.9605 33.6334 7.43468 33.6859 7.14301 34.0417C6.85218 34.3975 6.90467 34.9225 7.2605 35.2142C10.278 37.6842 14.1338 39.1667 18.3338 39.1667C19.4838 39.1667 20.608 39.055 21.6955 38.8434C22.1472 38.755 22.4422 38.3175 22.3538 37.8659C22.2655 37.4142 21.828 37.1192 21.3763 37.2075Z" fill="white"/>
</svg>
