<svg width="40" height="40" viewBox="0 0 40 40" fill="none" xmlns="http://www.w3.org/2000/svg">
<path d="M13.125 3.12506C13.125 2.9593 13.1908 2.80033 13.3081 2.68312C13.4253 2.56591 13.5842 2.50006 13.75 2.50006H28.125V5.62506C28.125 6.12234 28.3225 6.59926 28.6742 6.95089C29.0258 7.30252 29.5027 7.50006 30 7.50006H33.125V17.5001H34.375V6.87506C34.375 6.70931 34.3091 6.55037 34.1919 6.43319L29.1919 1.43319C29.0747 1.31597 28.9157 1.2501 28.75 1.25006H13.75C13.2527 1.25006 12.7758 1.44761 12.4242 1.79924C12.0725 2.15087 11.875 2.62778 11.875 3.12506V4.37506H13.125V3.12506ZM29.375 5.62506V3.38381L32.2412 6.25006H30C29.8342 6.25006 29.6753 6.18421 29.5581 6.067C29.4408 5.94979 29.375 5.79082 29.375 5.62506Z" fill="white"/>
<path d="M11.875 10.6251H13.125V13.7501H11.875V10.6251Z" fill="white"/>
<path d="M16.875 28.7501H18.125V30.0001H16.875V28.7501Z" fill="white"/>
<path d="M33.125 28.1251C33.125 28.2908 33.0592 28.4498 32.9419 28.567C32.8247 28.6842 32.6658 28.7501 32.5 28.7501H31.25V30.0001H32.5C32.9973 30.0001 33.4742 29.8025 33.8258 29.4509C34.1775 29.0993 34.375 28.6223 34.375 28.1251V23.7501H33.125V28.1251Z" fill="white"/>
<path d="M35 18.7501H32.5C32.1136 18.7517 31.7371 18.8726 31.4221 19.0964C31.107 19.3201 30.8688 19.6357 30.74 20.0001H30C29.8833 19.9994 29.7688 20.0315 29.6694 20.0925C29.57 20.1536 29.4897 20.2413 29.4375 20.3457L28.8125 21.5957C28.7703 21.6827 28.7489 21.7784 28.75 21.8751V22.5001H18.125C18.0342 22.5001 17.9445 22.5199 17.8622 22.5581C17.7798 22.5963 17.7068 22.652 17.6481 22.7213C17.5895 22.7906 17.5466 22.8718 17.5225 22.9594C17.4985 23.0469 17.4938 23.1386 17.5087 23.2282L18.7587 30.7282C18.7831 30.874 18.8584 31.0065 18.9713 31.102C19.0841 31.1976 19.2271 31.25 19.375 31.2501H28.75V32.5001H19.375C18.8777 32.5001 18.4008 32.6976 18.0492 33.0492C17.6975 33.4009 17.5 33.8778 17.5 34.3751C17.5 34.8723 17.6975 35.3493 18.0492 35.7009C18.4008 36.0525 18.8777 36.2501 19.375 36.2501H19.49C19.416 36.4502 19.3771 36.6617 19.375 36.8751C19.375 37.3723 19.5725 37.8493 19.9242 38.2009C20.2758 38.5525 20.7527 38.7501 21.25 38.7501C21.7473 38.7501 22.2242 38.5525 22.5758 38.2009C22.9275 37.8493 23.125 37.3723 23.125 36.8751C23.1229 36.6617 23.084 36.4502 23.01 36.2501H24.49C24.416 36.4502 24.3771 36.6617 24.375 36.8751C24.375 37.3723 24.5725 37.8493 24.9242 38.2009C25.2758 38.5525 25.7527 38.7501 26.25 38.7501C26.7473 38.7501 27.2242 38.5525 27.5758 38.2009C27.9275 37.8493 28.125 37.3723 28.125 36.8751C28.1229 36.6617 28.084 36.4502 28.01 36.2501H29.375V35.0001H19.375C19.2092 35.0001 19.0503 34.9342 18.9331 34.817C18.8158 34.6998 18.75 34.5408 18.75 34.3751C18.75 34.2093 18.8158 34.0503 18.9331 33.9331C19.0503 33.8159 19.2092 33.7501 19.375 33.7501H29.375C29.5408 33.7501 29.6997 33.6842 29.8169 33.567C29.9342 33.4498 30 33.2908 30 33.1251V22.0226L30.3862 21.2501H30.74C30.8688 21.6144 31.107 21.93 31.4221 22.1538C31.7371 22.3775 32.1136 22.4985 32.5 22.5001H35C35.4973 22.5001 35.9742 22.3025 36.3258 21.9509C36.6775 21.5993 36.875 21.1223 36.875 20.6251C36.875 20.1278 36.6775 19.6509 36.3258 19.2992C35.9742 18.9476 35.4973 18.7501 35 18.7501ZM21.875 36.8751C21.875 36.9987 21.8383 37.1195 21.7697 37.2223C21.701 37.3251 21.6034 37.4052 21.4892 37.4525C21.375 37.4998 21.2493 37.5122 21.1281 37.4881C21.0068 37.4639 20.8955 37.4044 20.8081 37.317C20.7206 37.2296 20.6611 37.1182 20.637 36.997C20.6129 36.8758 20.6253 36.7501 20.6726 36.6359C20.7199 36.5217 20.8 36.4241 20.9028 36.3554C21.0056 36.2867 21.1264 36.2501 21.25 36.2501C21.4158 36.2501 21.5747 36.3159 21.6919 36.4331C21.8092 36.5503 21.875 36.7093 21.875 36.8751ZM26.875 36.8751C26.875 36.9987 26.8383 37.1195 26.7697 37.2223C26.701 37.3251 26.6034 37.4052 26.4892 37.4525C26.375 37.4998 26.2493 37.5122 26.1281 37.4881C26.0068 37.4639 25.8955 37.4044 25.8081 37.317C25.7206 37.2296 25.6611 37.1182 25.637 36.997C25.6129 36.8758 25.6253 36.7501 25.6726 36.6359C25.7199 36.5217 25.8 36.4241 25.9028 36.3554C26.0056 36.2867 26.1264 36.2501 26.25 36.2501C26.4158 36.2501 26.5747 36.3159 26.6919 36.4331C26.8092 36.5503 26.875 36.7093 26.875 36.8751ZM19.2794 26.2501H21.25V27.5001H19.4875L19.2794 26.2501ZM22.5 26.2501H23.75V27.5001H22.5V26.2501ZM23.75 25.0001H22.5V23.7501H23.75V25.0001ZM25 23.7501H26.25V25.0001H25V23.7501ZM23.75 28.7501V30.0001H22.5V28.7501H23.75ZM25 28.7501H26.25V30.0001H25V28.7501ZM25 27.5001V26.2501H26.25V27.5001H25ZM27.5 26.2501H28.75V27.5001H27.5V26.2501ZM27.5 25.0001V23.7501H28.75V25.0001H27.5ZM21.25 23.7501V25.0001H19.0712L18.8631 23.7501H21.25ZM19.6956 28.7501H21.25V30.0001H19.9044L19.6956 28.7501ZM27.5 30.0001V28.7501H28.75V30.0001H27.5ZM35 21.2501H32.5C32.3342 21.2501 32.1753 21.1842 32.0581 21.067C31.9408 20.9498 31.875 20.7908 31.875 20.6251C31.875 20.4593 31.9408 20.3003 32.0581 20.1831C32.1753 20.0659 32.3342 20.0001 32.5 20.0001H35C35.1658 20.0001 35.3247 20.0659 35.4419 20.1831C35.5592 20.3003 35.625 20.4593 35.625 20.6251C35.625 20.7908 35.5592 20.9498 35.4419 21.067C35.3247 21.1842 35.1658 21.2501 35 21.2501Z" fill="white"/>
<path d="M22.5 10.6251H23.75C23.9158 10.6251 24.0747 10.6909 24.1919 10.8081C24.3092 10.9253 24.375 11.0843 24.375 11.2501H25.625C25.625 10.7528 25.4275 10.2759 25.0758 9.92424C24.7242 9.5726 24.2473 9.37506 23.75 9.37506V8.75006H22.5V9.37506C22.0027 9.37506 21.5258 9.5726 21.1742 9.92424C20.8225 10.2759 20.625 10.7528 20.625 11.2501C20.625 11.7473 20.8225 12.2243 21.1742 12.5759C21.5258 12.9275 22.0027 13.1251 22.5 13.1251H23.75C23.9158 13.1251 24.0747 13.1909 24.1919 13.3081C24.3092 13.4253 24.375 13.5843 24.375 13.7501C24.375 13.9158 24.3092 14.0748 24.1919 14.192C24.0747 14.3092 23.9158 14.3751 23.75 14.3751H22.5C22.3342 14.3751 22.1753 14.3092 22.0581 14.192C21.9408 14.0748 21.875 13.9158 21.875 13.7501H20.625C20.625 14.2473 20.8225 14.7243 21.1742 15.0759C21.5258 15.4275 22.0027 15.6251 22.5 15.6251V16.2501H23.75V15.6251C24.2473 15.6251 24.7242 15.4275 25.0758 15.0759C25.4275 14.7243 25.625 14.2473 25.625 13.7501C25.625 13.2528 25.4275 12.7759 25.0758 12.4242C24.7242 12.0726 24.2473 11.8751 23.75 11.8751H22.5C22.3342 11.8751 22.1753 11.8092 22.0581 11.692C21.9408 11.5748 21.875 11.4158 21.875 11.2501C21.875 11.0843 21.9408 10.9253 22.0581 10.8081C22.1753 10.6909 22.3342 10.6251 22.5 10.6251Z" fill="white"/>
<path d="M23.125 6.25006C21.8889 6.25006 20.6805 6.61662 19.6527 7.30338C18.6249 7.99013 17.8238 8.96625 17.3508 10.1083C16.8777 11.2503 16.7539 12.507 16.9951 13.7194C17.2363 14.9318 17.8315 16.0454 18.7056 16.9195C19.5797 17.7936 20.6933 18.3888 21.9057 18.63C23.1181 18.8711 24.3747 18.7474 25.5168 18.2743C26.6588 17.8013 27.6349 17.0002 28.3217 15.9724C29.0084 14.9446 29.375 13.7362 29.375 12.5001C29.3732 10.843 28.7141 9.25436 27.5424 8.08265C26.3707 6.91095 24.782 6.25188 23.125 6.25006ZM23.125 17.5001C22.1361 17.5001 21.1694 17.2068 20.3472 16.6574C19.5249 16.108 18.884 15.3271 18.5056 14.4135C18.1272 13.4998 18.0282 12.4945 18.2211 11.5246C18.414 10.5547 18.8902 9.66379 19.5895 8.96453C20.2887 8.26526 21.1796 7.78906 22.1496 7.59613C23.1195 7.40321 24.1248 7.50223 25.0384 7.88066C25.9521 8.2591 26.7329 8.89996 27.2824 9.72221C27.8318 10.5445 28.125 11.5112 28.125 12.5001C28.1235 13.8257 27.5963 15.0966 26.6589 16.0339C25.7215 16.9713 24.4506 17.4986 23.125 17.5001Z" fill="white"/>
<path d="M12.5 15.0001H6.25C5.4215 15.0011 4.62722 15.3306 4.04139 15.9164C3.45555 16.5023 3.12599 17.2966 3.125 18.1251V30.6251C3.12599 31.4536 3.45555 32.2478 4.04139 32.8337C4.62722 33.4195 5.4215 33.7491 6.25 33.7501H12.5C13.3285 33.7491 14.1228 33.4195 14.7086 32.8337C15.2944 32.2478 15.624 31.4536 15.625 30.6251V18.1251C15.624 17.2966 15.2944 16.5023 14.7086 15.9164C14.1228 15.3306 13.3285 15.0011 12.5 15.0001ZM14.375 30.6251C14.375 31.1223 14.1775 31.5993 13.8258 31.9509C13.4742 32.3025 12.9973 32.5001 12.5 32.5001H6.25C5.75272 32.5001 5.27581 32.3025 4.92417 31.9509C4.57254 31.5993 4.375 31.1223 4.375 30.6251V18.1251C4.375 17.6278 4.57254 17.1509 4.92417 16.7992C5.27581 16.4476 5.75272 16.2501 6.25 16.2501H12.5C12.9973 16.2501 13.4742 16.4476 13.8258 16.7992C14.1775 17.1509 14.375 17.6278 14.375 18.1251V30.6251Z" fill="white"/>
<path d="M8.125 17.5001H10.625V18.7501H8.125V17.5001Z" fill="white"/>
<path d="M5.625 17.5001H6.875V18.7501H5.625V17.5001Z" fill="white"/>
<path d="M8.125 30.0001H10.625V31.2501H8.125V30.0001Z" fill="white"/>
<path d="M8.75 26.2501H10V27.5001H8.75V26.2501Z" fill="white"/>
<path d="M7.16602 24.6651L8.04977 25.5488C8.40707 25.2082 8.88176 25.0182 9.37539 25.0182C9.86902 25.0182 10.3437 25.2082 10.701 25.5488L11.5848 24.6651C10.9987 24.0792 10.204 23.7501 9.37539 23.7501C8.54675 23.7501 7.75204 24.0792 7.16602 24.6651Z" fill="white"/>
<path d="M5.39844 22.8976L6.28219 23.7813C7.10356 22.9625 8.2161 22.5026 9.37594 22.5026C10.5358 22.5026 11.6483 22.9625 12.4697 23.7813L13.3534 22.8976C12.2977 21.8442 10.8673 21.2526 9.37594 21.2526C7.88459 21.2526 6.45414 21.8442 5.39844 22.8976Z" fill="white"/>
<path d="M10 9.37506H15V8.12506H9.375C9.20924 8.12506 9.05027 8.19091 8.93306 8.30812C8.81585 8.42533 8.75 8.5843 8.75 8.75006V13.7501H10V9.37506Z" fill="white"/>
<path d="M6.25 10.6251H7.5V11.8751H6.25V10.6251Z" fill="white"/>
<path d="M6.25 8.12506H7.5V9.37506H6.25V8.12506Z" fill="white"/>
<path d="M8.75 5.62506H10V6.87506H8.75V5.62506Z" fill="white"/>
<path d="M11.25 5.62506H12.5V6.87506H11.25V5.62506Z" fill="white"/>
<path d="M13.75 5.62506H15V6.87506H13.75V5.62506Z" fill="white"/>
</svg>
