<svg width="50" height="50" viewBox="0 0 50 50" fill="none" xmlns="http://www.w3.org/2000/svg">
<path d="M25 36.7188C25.2072 36.7188 25.4059 36.8011 25.5524 36.9476C25.6989 37.0941 25.7812 37.2928 25.7812 37.5H27.3438C27.3417 37.017 27.1906 36.5464 26.9109 36.1526C26.6312 35.7588 26.2366 35.461 25.7812 35.3V34.375H24.2188V35.3C23.6979 35.4835 23.2588 35.8453 22.9792 36.3215C22.6996 36.7977 22.5975 37.3575 22.6911 37.9017C22.7847 38.4459 23.0678 38.9395 23.4904 39.2949C23.913 39.6504 24.4478 39.8448 25 39.8438C25.1545 39.8438 25.3056 39.8896 25.434 39.9754C25.5625 40.0613 25.6626 40.1833 25.7218 40.326C25.7809 40.4688 25.7964 40.6259 25.7662 40.7774C25.7361 40.929 25.6617 41.0682 25.5524 41.1774C25.4432 41.2867 25.304 41.3611 25.1524 41.3912C25.0009 41.4214 24.8438 41.4059 24.701 41.3468C24.5583 41.2876 24.4363 41.1875 24.3504 41.059C24.2646 40.9306 24.2188 40.7795 24.2188 40.625H22.6562C22.6583 41.108 22.8094 41.5786 23.0891 41.9724C23.3688 42.3662 23.7634 42.664 24.2188 42.825V43.75H25.7812V42.825C26.3021 42.6415 26.7412 42.2797 27.0208 41.8035C27.3004 41.3273 27.4025 40.7675 27.3089 40.2233C27.2153 39.6791 26.9322 39.1855 26.5096 38.8301C26.087 38.4746 25.5522 38.2802 25 38.2812C24.7928 38.2812 24.5941 38.1989 24.4476 38.0524C24.3011 37.9059 24.2188 37.7072 24.2188 37.5C24.2188 37.2928 24.3011 37.0941 24.4476 36.9476C24.5941 36.8011 24.7928 36.7188 25 36.7188Z" fill="#0D1835"/>
<path d="M15.9156 23.493L14.8438 23.0648V20.3125C14.8438 20.1053 14.7614 19.9066 14.6149 19.7601C14.4684 19.6136 14.2697 19.5312 14.0625 19.5312H13.2812V17.1875H11.7188V19.5312H10.9375C10.7303 19.5312 10.5316 19.6136 10.3851 19.7601C10.2386 19.9066 10.1562 20.1053 10.1562 20.3125V21.1898L8.10312 20.368C7.98453 20.3204 7.85609 20.3027 7.72905 20.3164C7.60202 20.33 7.48027 20.3746 7.37447 20.4462C7.26868 20.5179 7.18207 20.6144 7.12223 20.7273C7.06239 20.8401 7.03115 20.966 7.03125 21.0938V27.6625L4.33281 29.0383C4.20444 29.1037 4.09665 29.2033 4.02137 29.3262C3.94609 29.449 3.90625 29.5903 3.90625 29.7344V46.875H2.34375V48.4375H47.6562V46.875H46.0938V29.7344C46.0938 29.5903 46.0539 29.449 45.9786 29.3262C45.9033 29.2033 45.7956 29.1037 45.6672 29.0383L42.9688 27.6625V21.0938C42.9688 20.966 42.9376 20.8401 42.8778 20.7273C42.8179 20.6144 42.7313 20.5179 42.6255 20.4462C42.5197 20.3746 42.398 20.33 42.271 20.3164C42.1439 20.3027 42.0155 20.3204 41.8969 20.368L39.8438 21.1898V20.3125C39.8438 20.1053 39.7614 19.9066 39.6149 19.7601C39.4684 19.6136 39.2697 19.5312 39.0625 19.5312H38.2812V17.1875H36.7188V19.5312H35.9375C35.7303 19.5312 35.5316 19.6136 35.3851 19.7601C35.2386 19.9066 35.1562 20.1053 35.1562 20.3125V23.0648L34.0844 23.493C33.9394 23.5511 33.8152 23.6513 33.7278 23.7806C33.6403 23.91 33.5936 24.0626 33.5938 24.2188V32.3297L25.3492 28.2031C25.2408 28.1489 25.1212 28.1207 25 28.1207C24.8788 28.1207 24.7592 28.1489 24.6508 28.2031L16.4062 32.3297V24.2188C16.4064 24.0626 16.3597 23.91 16.2722 23.7806C16.1848 23.6513 16.0606 23.5511 15.9156 23.493ZM11.7188 21.0938H13.2812V22.4398L11.7188 21.8148V21.0938ZM5.46875 30.2125L7.03125 29.4156V46.875H5.46875V30.2125ZM8.59375 46.875V22.2477L14.8438 24.7477V33.107L12.1508 34.4531C11.9909 34.5305 11.8622 34.6601 11.7859 34.8204C11.7095 34.9808 11.6901 35.1623 11.7307 35.3352C11.7714 35.5081 11.8698 35.662 12.0096 35.7714C12.1494 35.8809 12.3224 35.9395 12.5 35.9375H13.2812V46.875H8.59375ZM15.625 46.875H14.8438V35.9375H16.4062V46.875H15.625ZM18.7109 35.9375C18.2652 36.8269 18.0141 37.8011 17.9743 38.7951C17.9346 39.7892 18.1071 40.7803 18.4804 41.7024C18.8537 42.6246 19.4192 43.4566 20.1392 44.1431C20.8593 44.8296 21.7173 45.3547 22.6562 45.6836V46.875H17.9688V35.9375H18.7109ZM32.0312 46.875H27.3438V45.6836C28.2827 45.3547 29.1407 44.8296 29.8608 44.1431C30.5808 43.4566 31.1463 42.6246 31.5196 41.7024C31.8929 40.7803 32.0654 39.7892 32.0257 38.7951C31.9859 37.8011 31.7348 36.8269 31.2891 35.9375H32.0312V46.875ZM30.4688 39.0625C30.4688 40.1441 30.148 41.2014 29.5471 42.1008C28.9462 43.0001 28.0921 43.701 27.0928 44.115C26.0935 44.5289 24.9939 44.6372 23.9331 44.4262C22.8723 44.2152 21.8978 43.6943 21.133 42.9295C20.3682 42.1647 19.8473 41.1902 19.6363 40.1294C19.4253 39.0686 19.5336 37.969 19.9475 36.9697C20.3615 35.9704 21.0624 35.1163 21.9617 34.5154C22.8611 33.9145 23.9184 33.5938 25 33.5938C26.4499 33.5954 27.8399 34.1721 28.8652 35.1973C29.8904 36.2226 30.4671 37.6126 30.4688 39.0625ZM24.2188 46.875V46.0477C24.7378 46.1091 25.2622 46.1091 25.7812 46.0477V46.875H24.2188ZM34.375 46.875H33.5938V35.9375H35.1562V46.875H34.375ZM44.5312 30.2125V46.875H42.9688V29.4156L44.5312 30.2125ZM36.7188 21.0938H38.2812V21.8148L36.7188 22.4398V21.0938ZM35.1562 24.7477L41.4062 22.2477V46.875H36.7188V35.9375H37.5C37.6776 35.9395 37.8506 35.8809 37.9904 35.7714C38.1302 35.662 38.2286 35.5081 38.2693 35.3352C38.3099 35.1623 38.2905 34.9808 38.2141 34.8204C38.1378 34.6601 38.0091 34.5305 37.8492 34.4531L35.1562 33.1109V24.7477ZM25 29.7797L34.1906 34.375H30.2258C29.5693 33.6379 28.7643 33.0479 27.8637 32.644C26.963 32.24 25.9871 32.0312 25 32.0312C24.0129 32.0312 23.037 32.24 22.1363 32.644C21.2357 33.0479 20.4307 33.6379 19.7742 34.375H15.8094L25 29.7797Z" fill="#0D1835"/>
<path d="M21.4328 12.1875C21.1316 12.3961 20.7726 12.5054 20.4063 12.5H20.2187C19.4655 12.4545 18.7248 12.7079 18.1572 13.2052C17.5897 13.7025 17.2413 14.4036 17.1875 15.1562V18.75C17.1875 18.9572 17.2698 19.1559 17.4163 19.3024C17.5628 19.4489 17.7615 19.5312 17.9688 19.5312H32.0312C32.2385 19.5312 32.4372 19.4489 32.5837 19.3024C32.7302 19.1559 32.8125 18.9572 32.8125 18.75V15.1562C32.7587 14.4036 32.4103 13.7025 31.8428 13.2052C31.2752 12.7079 30.5345 12.4545 29.7812 12.5H29.5938C29.2287 12.5046 28.8712 12.3954 28.5711 12.1875C28.4576 12.1095 28.3609 12.0095 28.2868 11.8934C28.2127 11.7773 28.1628 11.6475 28.1398 11.5117C28.5143 10.961 28.7604 10.3334 28.8602 9.675C29.3469 9.47456 29.7613 9.13105 30.0485 8.68994C30.3358 8.24883 30.4823 7.7309 30.4688 7.20469C30.4784 6.72866 30.3593 6.25887 30.124 5.84494C29.8887 5.43102 29.546 5.08834 29.132 4.85312L29.9055 2.59687C29.9458 2.47925 29.9574 2.35372 29.9394 2.2307C29.9214 2.10768 29.8743 1.99073 29.802 1.88957C29.7297 1.78841 29.6344 1.70596 29.5238 1.64907C29.4133 1.59219 29.2907 1.56251 29.1664 1.5625H20.8336C20.7093 1.56251 20.5867 1.59219 20.4762 1.64907C20.3656 1.70596 20.2703 1.78841 20.198 1.88957C20.1257 1.99073 20.0786 2.10768 20.0606 2.2307C20.0426 2.35372 20.0542 2.47925 20.0945 2.59687L20.868 4.85312C20.454 5.08834 20.1113 5.43102 19.876 5.84494C19.6407 6.25887 19.5216 6.72866 19.5312 7.20469C19.5171 7.73143 19.6633 8.25004 19.9506 8.69177C20.2379 9.1335 20.6526 9.47749 21.1398 9.67812C21.2396 10.3365 21.4857 10.9642 21.8602 11.5148C21.8376 11.6499 21.7882 11.779 21.7148 11.8945C21.6413 12.0101 21.5455 12.1097 21.4328 12.1875ZM26.9797 12.7344C27.0616 12.8632 27.1544 12.9847 27.257 13.0977C27.1282 13.5986 26.8365 14.0425 26.4277 14.3594C26.019 14.6764 25.5165 14.8484 24.9992 14.8484C24.482 14.8484 23.9794 14.6764 23.5707 14.3594C23.1619 14.0425 22.8702 13.5986 22.7414 13.0977C22.8441 12.9845 22.9369 12.8627 23.0188 12.7336L24.5195 13.9016C24.6567 14.0082 24.8255 14.0662 24.9992 14.0662C25.173 14.0662 25.3418 14.0082 25.4789 13.9016L26.9797 12.7344ZM29.7812 14.0625C30.5773 14.0625 31.25 14.5633 31.25 15.1562V17.9688H18.75V15.1562C18.75 14.5633 19.4227 14.0625 20.2187 14.0625H20.4063C20.7328 14.062 21.0577 14.0152 21.3711 13.9234C21.6553 14.6547 22.1538 15.283 22.8013 15.726C23.4488 16.169 24.2151 16.4061 24.9996 16.4061C25.7842 16.4061 26.5504 16.169 27.1979 15.726C27.8454 15.283 28.3439 14.6547 28.6281 13.9234C28.9418 14.0152 29.2669 14.062 29.5938 14.0625H29.7812ZM21.0938 7.20469C21.0938 6.64062 21.4516 6.16328 21.875 6.16328C21.9994 6.16332 22.1221 6.13364 22.2327 6.07671C22.3433 6.01978 22.4388 5.93725 22.5111 5.83599C22.5833 5.73473 22.6304 5.61766 22.6483 5.49454C22.6662 5.37141 22.6545 5.24579 22.6141 5.12813L21.9266 3.125H28.0734L27.3859 5.12813C27.3455 5.24579 27.3338 5.37141 27.3517 5.49454C27.3696 5.61766 27.4167 5.73473 27.4889 5.83599C27.5612 5.93725 27.6567 6.01978 27.7673 6.07671C27.8779 6.13364 28.0006 6.16332 28.125 6.16328C28.5484 6.16328 28.9062 6.64062 28.9062 7.20469C28.9062 7.76875 28.5484 8.24687 28.125 8.24687C27.9178 8.24687 27.7191 8.32919 27.5726 8.4757C27.4261 8.62221 27.3438 8.82092 27.3438 9.02812C27.3452 9.47695 27.2433 9.92009 27.0461 10.3233C26.8488 10.7264 26.5615 11.0788 26.2062 11.3531L25 12.2914L23.7937 11.3539C23.4384 11.0795 23.151 10.727 22.9537 10.3237C22.7565 9.92038 22.6547 9.47708 22.6562 9.02812C22.6562 8.82092 22.5739 8.62221 22.4274 8.4757C22.2809 8.32919 22.0822 8.24687 21.875 8.24687C21.4516 8.24687 21.0938 7.76953 21.0938 7.20469Z" fill="#0D1835"/>
<path d="M14.7882 7.83277C10.8406 6.90465 10.2828 6.3484 9.35465 2.39918C9.31468 2.22734 9.21772 2.07408 9.07955 1.96436C8.94138 1.85464 8.77014 1.79492 8.59371 1.79492C8.41728 1.79492 8.24604 1.85464 8.10787 1.96436C7.96971 2.07408 7.87275 2.22734 7.83277 2.39918C6.90465 6.34684 6.3484 6.90465 2.39918 7.83277C2.22734 7.87275 2.07408 7.96971 1.96436 8.10787C1.85464 8.24604 1.79492 8.41728 1.79492 8.59371C1.79492 8.77014 1.85464 8.94138 1.96436 9.07955C2.07408 9.21772 2.22734 9.31468 2.39918 9.35465C6.34684 10.2828 6.90465 10.839 7.83277 14.7882C7.87275 14.9601 7.96971 15.1133 8.10787 15.2231C8.24604 15.3328 8.41728 15.3925 8.59371 15.3925C8.77014 15.3925 8.94138 15.3328 9.07955 15.2231C9.21772 15.1133 9.31468 14.9601 9.35465 14.7882C10.2828 10.8406 10.839 10.2828 14.7882 9.35465C14.9601 9.31468 15.1133 9.21772 15.2231 9.07955C15.3328 8.94138 15.3925 8.77014 15.3925 8.59371C15.3925 8.41728 15.3328 8.24604 15.2231 8.10787C15.1133 7.96971 14.9601 7.87275 14.7882 7.83277ZM8.59371 11.8586C8.33801 11.0995 7.91027 10.4099 7.34391 9.84352C6.77755 9.27716 6.08791 8.84942 5.32887 8.59371C6.08791 8.33801 6.77755 7.91027 7.34391 7.34391C7.91027 6.77755 8.33801 6.08791 8.59371 5.32887C8.84942 6.08791 9.27716 6.77755 9.84352 7.34391C10.4099 7.91027 11.0995 8.33801 11.8586 8.59371C11.0995 8.84942 10.4099 9.27716 9.84352 9.84352C9.27716 10.4099 8.84942 11.0995 8.59371 11.8586Z" fill="#0D1835"/>
<path d="M47.6007 7.83277C43.6531 6.90465 43.0953 6.3484 42.1672 2.39918C42.1272 2.22734 42.0302 2.07408 41.8921 1.96436C41.7539 1.85464 41.5826 1.79492 41.4062 1.79492C41.2298 1.79492 41.0585 1.85464 40.9204 1.96436C40.7822 2.07408 40.6852 2.22734 40.6453 2.39918C39.7172 6.34684 39.1609 6.90465 35.2117 7.83277C35.0398 7.87275 34.8866 7.96971 34.7769 8.10787C34.6671 8.24604 34.6074 8.41728 34.6074 8.59371C34.6074 8.77014 34.6671 8.94138 34.7769 9.07955C34.8866 9.21772 35.0398 9.31468 35.2117 9.35465C39.1593 10.2828 39.7172 10.839 40.6453 14.7882C40.6852 14.9601 40.7822 15.1133 40.9204 15.2231C41.0585 15.3328 41.2298 15.3925 41.4062 15.3925C41.5826 15.3925 41.7539 15.3328 41.8921 15.2231C42.0302 15.1133 42.1272 14.9601 42.1672 14.7882C43.0953 10.8406 43.6515 10.2828 47.6007 9.35465C47.7726 9.31468 47.9258 9.21772 48.0356 9.07955C48.1453 8.94138 48.205 8.77014 48.205 8.59371C48.205 8.41728 48.1453 8.24604 48.0356 8.10787C47.9258 7.96971 47.7726 7.87275 47.6007 7.83277ZM41.4062 11.8586C41.1505 11.0995 40.7228 10.4099 40.1564 9.84352C39.59 9.27716 38.9004 8.84942 38.1414 8.59371C38.9004 8.33801 39.59 7.91027 40.1564 7.34391C40.7228 6.77755 41.1505 6.08791 41.4062 5.32887C41.6619 6.08791 42.0897 6.77755 42.656 7.34391C43.2224 7.91027 43.912 8.33801 44.6711 8.59371C43.912 8.84942 43.2224 9.27716 42.656 9.84352C42.0897 10.4099 41.6619 11.0995 41.4062 11.8586Z" fill="#0D1835"/>
</svg>
