<svg width="269" height="60" viewBox="0 0 269 60" fill="none" xmlns="http://www.w3.org/2000/svg">
<g clip-path="url(#clip0_1075_2847)">
<path d="M8.57124 22.8675C8.67149 21.9655 8.9054 21.1303 9.27298 20.3786C9.79093 19.3597 10.5094 18.5579 11.4617 17.99C12.3974 17.422 13.4834 17.1381 14.7198 17.1381C15.9061 17.1381 16.9754 17.422 17.9111 17.99C18.8467 18.5579 19.5819 19.3597 20.0831 20.3786C20.4507 21.1303 20.6846 21.9655 20.8016 22.8675L29.3728 17.9232C27.3344 11.7595 21.52 7.31625 14.6697 7.31625C7.81938 7.31625 2.03838 11.7595 0 17.9232L8.57124 22.8675Z" fill="#0244C0"/>
<path d="M111.944 20.3786L104.526 42.1771L96.9239 20.3786H84.8105L97.893 52.0657H110.959L124.041 20.3786H111.944Z" fill="#0D1835"/>
<path d="M22.1212 51.147C19.4312 49.9944 17.2425 48.4076 15.555 46.3864C13.8507 44.3653 12.8148 42.01 12.4473 39.3541L23.8088 35.6626C24.1429 37.049 24.6107 38.2684 25.2289 39.2873C25.8471 40.3062 26.5656 41.0913 27.401 41.6258C28.2364 42.1604 29.172 42.4276 30.1912 42.4276C31.0935 42.4276 31.8955 42.1771 32.5805 41.6927C33.2822 41.2082 33.8169 40.5401 34.2012 39.7216C34.5855 38.9031 34.786 38.0011 34.786 37.0156V8.08464H48.119V37.7506C48.119 40.7405 47.4006 43.3797 45.947 45.6682C44.4934 47.9566 42.4717 49.7272 39.8652 50.98C37.2588 52.2327 34.2847 52.8508 30.9264 52.8508C27.7352 52.8675 24.7945 52.2829 22.1212 51.147Z" fill="#0D1835"/>
<path d="M72.1127 42.1102C73.0484 41.5423 73.7835 40.7405 74.2848 39.7216C74.786 38.7027 75.0533 37.5334 75.0533 36.2138C75.0533 34.9109 74.8027 33.7417 74.2848 32.706C73.7668 31.6871 73.0484 30.8853 72.1127 30.3174C71.1771 29.7494 70.1077 29.4655 68.9215 29.4655C67.6851 29.4655 66.599 29.7494 65.6634 30.3174C64.7277 30.8853 63.9926 31.6871 63.4746 32.706C62.9567 33.7249 62.7061 34.8942 62.7061 36.2138C62.7061 37.5167 62.9567 38.686 63.4746 39.7216C63.9926 40.7405 64.711 41.5423 65.6634 42.1102C66.599 42.6782 67.6851 42.9621 68.9215 42.9621C70.1077 42.9788 71.1603 42.6949 72.1127 42.1102ZM59.448 50.7962C56.7413 49.4265 54.6528 47.4889 53.149 45C51.662 42.5111 50.9102 39.5713 50.9102 36.2138C50.9102 32.8564 51.662 29.9165 53.149 27.3942C54.6361 24.8719 56.7413 22.9343 59.448 21.598C62.1547 20.245 65.3125 19.5768 68.9048 19.5768C72.4636 19.5768 75.588 20.245 78.278 21.598C80.968 22.951 83.0565 24.8886 84.5769 27.3942C86.0807 29.9165 86.8492 32.8564 86.8492 36.2138C86.8492 39.5713 86.0974 42.4944 84.5769 45C83.0565 47.5056 80.968 49.4265 78.278 50.7962C75.588 52.1659 72.4803 52.8508 68.9048 52.8508C65.3125 52.8675 62.1547 52.1826 59.448 50.7962Z" fill="#0D1835"/>
<path d="M122.252 20.3786H134.115V52.0657H122.252V20.3786ZM123.405 15.2506C122.135 14.0479 121.5 12.4944 121.5 10.6069C121.5 8.76949 122.135 7.23274 123.405 6.03007C124.675 4.8274 126.279 4.22606 128.2 4.22606C130.171 4.22606 131.775 4.8274 133.029 6.01336C134.282 7.19933 134.9 8.73608 134.9 10.6236C134.9 12.5445 134.282 14.098 133.029 15.284C131.775 16.4699 130.171 17.0713 128.2 17.0713C126.279 17.0546 124.675 16.4532 123.405 15.2506Z" fill="#0D1835"/>
<path d="M157.491 0H156.521V60H157.491V0Z" fill="#0D1835"/>
<path d="M187.315 31.5701C190.172 31.5701 191.859 29.9165 191.859 27.3441C191.859 24.7717 190.289 23.118 187.315 23.118H182.904V31.5701H187.315ZM179.896 20.3619H186.814C191.826 20.3619 194.867 23.1848 194.867 27.4109C194.867 30.3174 193.43 32.2049 190.957 33.608L196.003 42.2773H192.561L188.017 34.3263H182.904V42.2773H179.896V20.3619Z" fill="#0D1835"/>
<path d="M209.77 32.9399C209.553 30.1837 207.448 28.814 205.009 28.814C202.569 28.814 200.631 30.3174 200.18 32.9399H209.77ZM197.373 34.4432C197.373 29.5657 200.915 26.3085 205.009 26.3085C209.202 26.3085 212.36 29.2149 212.36 34.2595V35.3285H200.147C200.247 38.3352 202.218 40.0891 205.025 40.0891C207.465 40.0891 209.069 38.8029 209.637 36.9321H212.21C211.358 40.4065 208.851 42.5946 205.009 42.5946C200.247 42.5946 197.373 39.3374 197.373 34.4432Z" fill="#0D1835"/>
<path d="M224.942 37.6503V34.8274L220.247 35.3619C218.392 35.5791 217.524 36.6815 217.524 37.9343C217.524 39.4042 218.626 40.0891 220.063 40.0891C221.951 40.0891 223.555 39.02 224.942 37.6503ZM214.75 38.0512C214.75 34.9777 217.223 33.4243 220.046 33.1403L224.925 32.6392V31.5701C224.925 29.6993 223.455 28.814 221.45 28.814C219.796 28.814 218.476 29.5657 218.041 31.353H215.435C215.936 27.8452 218.827 26.3085 221.634 26.3085C225.293 26.3085 227.682 28.2795 227.682 31.2528V38.5857C227.682 39.588 228.116 40.206 229.052 40.206C229.303 40.206 229.553 40.1726 229.871 40.0891V42.1603C229.119 42.4109 228.618 42.4777 228.116 42.4777C226.746 42.4777 225.46 41.9098 225.009 40.039C223.939 41.2249 221.901 42.6114 219.712 42.6114C216.788 42.5946 214.75 40.8408 214.75 38.0512Z" fill="#0D1835"/>
<path d="M235.651 19.4265H232.895V42.2773H235.651V19.4265Z" fill="#0D1835"/>
<path d="M241.565 38.6526V29.1314H238.457V26.6258H241.565V21.9321L244.322 22.9343V26.6258H248.081V29.1314H244.322V38.4688C244.322 39.5045 244.923 40.1559 246.26 40.1559C246.978 40.1559 247.362 40.0557 247.914 39.9722V42.294C247.062 42.5111 246.477 42.6114 245.408 42.6114C243.035 42.5947 241.565 41.2416 241.565 38.6526Z" fill="#0D1835"/>
<path d="M256.101 41.5924L249.902 26.6258H252.776L256.97 36.6147L257.388 38.5189L261.949 26.6258H264.739L256.034 48.5412H253.311L256.101 41.5924Z" fill="#0D1835"/>
<path d="M264.488 40.0223C264.488 38.8029 265.524 37.7673 266.744 37.7673C267.964 37.7673 268.999 38.8029 268.999 40.0223C268.999 41.2417 267.964 42.2773 266.744 42.2773C265.524 42.2773 264.488 41.2417 264.488 40.0223Z" fill="#0D1835"/>
</g>
<defs>
<clipPath id="clip0_1075_2847">
<rect width="269" height="60" fill="white"/>
</clipPath>
</defs>
</svg>
