<svg width="83" height="34" viewBox="0 0 83 34" fill="none" xmlns="http://www.w3.org/2000/svg">
<g opacity="0.3">
<path d="M10.9825 3.39476C10.5935 3.78388 10.375 4.31157 10.375 4.86179C10.375 5.412 10.5935 5.93969 10.9825 6.32881L21.2538 16.6001L10.9825 26.8713C10.6046 27.2627 10.3954 27.7868 10.4001 28.3309C10.4049 28.8749 10.6231 29.3954 11.0078 29.7801C11.3925 30.1648 11.913 30.383 12.457 30.3878C13.0011 30.3925 13.5252 30.1833 13.9166 29.8054L25.6549 18.0671C26.0439 17.678 26.2624 17.1503 26.2624 16.6001C26.2624 16.0498 26.0439 15.5222 25.6549 15.133L13.9166 3.39476C13.5275 3.00576 12.9998 2.78723 12.4496 2.78723C11.8993 2.78723 11.3717 3.00576 10.9825 3.39476Z" fill="#0D1835"/>
<path d="M27.5821 3.39476C27.1931 3.78388 26.9746 4.31157 26.9746 4.86179C26.9746 5.412 27.1931 5.93969 27.5821 6.32881L37.8534 16.6001L27.5821 26.8713C27.2042 27.2627 26.995 27.7868 26.9997 28.3309C27.0045 28.8749 27.2227 29.3954 27.6074 29.7801C27.9921 30.1648 28.5126 30.383 29.0566 30.3878C29.6007 30.3925 30.1248 30.1833 30.5162 29.8054L42.2545 18.0671C42.6435 17.678 42.862 17.1503 42.862 16.6001C42.862 16.0498 42.6435 15.5222 42.2545 15.133L30.5162 3.39476C30.1271 3.00576 29.5994 2.78723 29.0492 2.78723C28.499 2.78723 27.9713 3.00576 27.5821 3.39476Z" fill="#0D1835"/>
<path d="M44.1818 3.39476C43.7927 3.78388 43.5742 4.31157 43.5742 4.86179C43.5742 5.412 43.7927 5.93969 44.1818 6.32881L54.453 16.6001L44.1818 26.8713C43.8038 27.2627 43.5946 27.7868 43.5994 28.3309C43.6041 28.8749 43.8223 29.3954 44.207 29.7801C44.5917 30.1648 45.1122 30.383 45.6562 30.3878C46.2003 30.3925 46.7245 30.1833 47.1158 29.8054L58.8541 18.0671C59.2431 17.678 59.4616 17.1503 59.4616 16.6001C59.4616 16.0498 59.2431 15.5222 58.8541 15.133L47.1158 3.39476C46.7267 3.00576 46.199 2.78723 45.6488 2.78723C45.0986 2.78723 44.5709 3.00576 44.1818 3.39476Z" fill="#0D1835"/>
<path d="M60.7833 3.39476C60.3943 3.78388 60.1758 4.31157 60.1758 4.86179C60.1758 5.412 60.3943 5.93969 60.7833 6.32881L71.0546 16.6001L60.7833 26.8713C60.4053 27.2627 60.1962 27.7868 60.2009 28.3309C60.2056 28.8749 60.4239 29.3954 60.8086 29.7801C61.1933 30.1648 61.7137 30.383 62.2578 30.3878C62.8019 30.3925 63.326 30.1833 63.7174 29.8054L75.4556 18.0671C75.8446 17.678 76.0632 17.1503 76.0632 16.6001C76.0632 16.0498 75.8446 15.5222 75.4556 15.133L63.7174 3.39476C63.3282 3.00576 62.8006 2.78723 62.2503 2.78723C61.7001 2.78723 61.1724 3.00576 60.7833 3.39476Z" fill="#0D1835"/>
</g>
</svg>
