<svg width="24" height="24" viewBox="0 0 24 24" fill="none" xmlns="http://www.w3.org/2000/svg">
<path d="M6.93945 4.99999C6.93919 5.53043 6.72822 6.03903 6.35296 6.41391C5.9777 6.7888 5.46889 6.99926 4.93845 6.99899C4.40802 6.99873 3.89942 6.78776 3.52453 6.4125C3.14965 6.03724 2.93919 5.52843 2.93945 4.99799C2.93972 4.46756 3.15069 3.95896 3.52595 3.58407C3.90121 3.20919 4.41002 2.99873 4.94045 2.99899C5.47089 2.99926 5.97949 3.21023 6.35437 3.58549C6.72926 3.96075 6.93972 4.46956 6.93945 4.99999ZM6.99945 8.47999H2.99945V21H6.99945V8.47999ZM13.3195 8.47999H9.33945V21H13.2795V14.43C13.2795 10.77 18.0495 10.43 18.0495 14.43V21H21.9995V13.07C21.9995 6.89999 14.9395 7.12999 13.2795 10.16L13.3195 8.47999Z" fill="#0D1835"/>
</svg>
