<svg width="45" height="45" viewBox="0 0 45 45" fill="none" xmlns="http://www.w3.org/2000/svg">
<circle opacity="0.08" cx="22.5" cy="22.5" r="22" fill="white" stroke="#0D1835"/>
<path d="M16.9395 16C16.9392 16.5305 16.7282 17.0391 16.353 17.4139C15.9777 17.7888 15.4689 17.9993 14.9385 17.999C14.408 17.9988 13.8994 17.7878 13.5245 17.4125C13.1496 17.0373 12.9392 16.5285 12.9395 15.998C12.9397 15.4676 13.1507 14.959 13.5259 14.5841C13.9012 14.2092 14.41 13.9988 14.9405 13.999C15.4709 13.9993 15.9795 14.2103 16.3544 14.5855C16.7293 14.9608 16.9397 15.4696 16.9395 16ZM16.9995 19.48H12.9995V32H16.9995V19.48ZM23.3195 19.48H19.3395V32H23.2795V25.43C23.2795 21.77 28.0495 21.43 28.0495 25.43V32H31.9995V24.07C31.9995 17.9 24.9395 18.13 23.2795 21.16L23.3195 19.48Z" fill="#599FF8"/>
</svg>
