<svg width="40" height="40" viewBox="0 0 40 40" fill="none" xmlns="http://www.w3.org/2000/svg">
<g clip-path="url(#clip0_693_2629)">
<path d="M20.2552 8.8912H27.2718C27.4327 8.8912 27.5869 8.95509 27.7006 9.0688C27.8143 9.18252 27.8782 9.33676 27.8782 9.49758C27.8782 9.65841 27.8143 9.81264 27.7006 9.92636C27.5869 10.0401 27.4327 10.104 27.2718 10.104H20.2552C20.0944 10.104 19.9401 10.0401 19.8264 9.92636C19.7127 9.81264 19.6488 9.65841 19.6488 9.49758C19.6488 9.33676 19.7127 9.18252 19.8264 9.0688C19.9401 8.95509 20.0944 8.8912 20.2552 8.8912ZM11.9138 10.1022H17.0171C17.1779 10.1022 17.3322 10.0383 17.4459 9.92458C17.5596 9.81086 17.6235 9.65663 17.6235 9.49581C17.6235 9.33498 17.5596 9.18075 17.4459 9.06703C17.3322 8.95331 17.1779 8.88942 17.0171 8.88942H11.9138C11.7529 8.88942 11.5987 8.95331 11.485 9.06703C11.3713 9.18075 11.3074 9.33498 11.3074 9.49581C11.3074 9.65663 11.3713 9.81086 11.485 9.92458C11.5987 10.0383 11.7529 10.1022 11.9138 10.1022ZM11.9138 18.1826H18.3774C18.5323 18.1742 18.6781 18.1067 18.7848 17.9941C18.8915 17.8815 18.9509 17.7322 18.9509 17.5771C18.9509 17.4219 18.8915 17.2727 18.7848 17.1601C18.6781 17.0474 18.5323 16.98 18.3774 16.9716H11.9138C11.7589 16.98 11.6131 17.0474 11.5064 17.1601C11.3997 17.2727 11.3402 17.4219 11.3402 17.5771C11.3402 17.7322 11.3997 17.8815 11.5064 17.9941C11.6131 18.1067 11.7589 18.1742 11.9138 18.1826ZM6.66637 12.1223C5.96982 12.1223 5.30179 11.8456 4.80925 11.353C4.31671 10.8604 4.04001 10.1924 4.04001 9.49581C4.04001 8.79922 4.31671 8.13116 4.80925 7.6386C5.30179 7.14604 5.96982 6.86933 6.66637 6.86933C7.36292 6.86933 8.03095 7.14604 8.52349 7.6386C9.01603 8.13116 9.29273 8.79922 9.29273 9.49581C9.29273 10.1924 9.01603 10.8604 8.52349 11.353C8.03095 11.8456 7.36292 12.1223 6.66637 12.1223ZM6.66637 8.0821C6.31877 8.12114 5.99774 8.28689 5.76462 8.54768C5.5315 8.80847 5.40263 9.14601 5.40263 9.49581C5.40263 9.84561 5.5315 10.1831 5.76462 10.4439C5.99774 10.7047 6.31877 10.8705 6.66637 10.9095C7.01397 10.8705 7.335 10.7047 7.56812 10.4439C7.80124 10.1831 7.93011 9.84561 7.93011 9.49581C7.93011 9.14601 7.80124 8.80847 7.56812 8.54768C7.335 8.28689 7.01397 8.12114 6.66637 8.0821ZM6.66637 20.2044C5.96982 20.2044 5.30179 19.9277 4.80925 19.4352C4.31671 18.9426 4.04001 18.2745 4.04001 17.578C4.04001 16.8814 4.31671 16.2133 4.80925 15.7208C5.30179 15.2282 5.96982 14.9515 6.66637 14.9515C7.36292 14.9515 8.03095 15.2282 8.52349 15.7208C9.01603 16.2133 9.29273 16.8814 9.29273 17.578C9.29273 18.2745 9.01603 18.9426 8.52349 19.4352C8.03095 19.9277 7.36292 20.2044 6.66637 20.2044ZM6.66637 16.1625C6.31715 16.1997 5.99404 16.3647 5.75922 16.6259C5.52441 16.8871 5.3945 17.2259 5.3945 17.5771C5.3945 17.9283 5.52441 18.2671 5.75922 18.5282C5.99404 18.7894 6.31715 18.9545 6.66637 18.9917C7.01559 18.9545 7.3387 18.7894 7.57351 18.5282C7.80833 18.2671 7.93824 17.9283 7.93824 17.5771C7.93824 17.2259 7.80833 16.8871 7.57351 16.6259C7.3387 16.3647 7.01559 16.1997 6.66637 16.1625ZM11.9138 26.2665H17.5755C17.7363 26.2665 17.8905 26.2026 18.0042 26.0889C18.1179 25.9752 18.1818 25.8209 18.1818 25.6601C18.1818 25.4993 18.1179 25.3451 18.0042 25.2313C17.8905 25.1176 17.7363 25.0537 17.5755 25.0537H11.9138C11.7529 25.0537 11.5987 25.1176 11.485 25.2313C11.3713 25.3451 11.3074 25.4993 11.3074 25.6601C11.3074 25.8209 11.3713 25.9752 11.485 26.0889C11.5987 26.2026 11.7529 26.2665 11.9138 26.2665ZM6.66637 28.2866C5.96982 28.2866 5.30179 28.0099 4.80925 27.5173C4.31671 27.0248 4.04001 26.3567 4.04001 25.6601C4.04001 24.9635 4.31671 24.2955 4.80925 23.8029C5.30179 23.3104 5.96982 23.0336 6.66637 23.0336C7.36292 23.0336 8.03095 23.3104 8.52349 23.8029C9.01603 24.2955 9.29273 24.9635 9.29273 25.6601C9.29273 26.3567 9.01603 27.0248 8.52349 27.5173C8.03095 28.0099 7.36292 28.2866 6.66637 28.2866ZM6.66637 24.2446C6.31715 24.2818 5.99404 24.4469 5.75922 24.7081C5.52441 24.9692 5.3945 25.308 5.3945 25.6592C5.3945 26.0104 5.52441 26.3492 5.75922 26.6104C5.99404 26.8716 6.31715 27.0366 6.66637 27.0738C7.01559 27.0366 7.3387 26.8716 7.57351 26.6104C7.80833 26.3492 7.93824 26.0104 7.93824 25.6592C7.93824 25.308 7.80833 24.9692 7.57351 24.7081C7.3387 24.4469 7.01559 24.2818 6.66637 24.2446ZM23.2318 33.1359H11.9138C11.7589 33.1443 11.6131 33.2117 11.5064 33.3244C11.3997 33.437 11.3402 33.5862 11.3402 33.7414C11.3402 33.8965 11.3997 34.0458 11.5064 34.1584C11.6131 34.271 11.7589 34.3385 11.9138 34.3469H23.2265C23.3815 34.3392 23.5276 34.2724 23.6348 34.1602C23.742 34.0481 23.8021 33.8991 23.8028 33.7439C23.8035 33.5888 23.7447 33.4392 23.6385 33.3261C23.5322 33.213 23.3867 33.1449 23.2318 33.1359ZM6.66637 36.3688C5.98141 36.3509 5.3305 36.0663 4.85234 35.5755C4.37418 35.0847 4.10659 34.4266 4.10659 33.7414C4.10659 33.0562 4.37418 32.398 4.85234 31.9073C5.3305 31.4165 5.98141 31.1318 6.66637 31.114C7.35133 31.1318 8.00224 31.4165 8.4804 31.9073C8.95856 32.398 9.22615 33.0562 9.22615 33.7414C9.22615 34.4266 8.95856 35.0847 8.4804 35.5755C8.00224 36.0663 7.35133 36.3509 6.66637 36.3688ZM6.66637 32.3268C6.31715 32.364 5.99404 32.5291 5.75922 32.7902C5.52441 33.0514 5.3945 33.3902 5.3945 33.7414C5.3945 34.0926 5.52441 34.4314 5.75922 34.6926C5.99404 34.9537 6.31715 35.1188 6.66637 35.156C7.01559 35.1188 7.3387 34.9537 7.57351 34.6926C7.80833 34.4314 7.93824 34.0926 7.93824 33.7414C7.93824 33.3902 7.80833 33.0514 7.57351 32.7902C7.3387 32.5291 7.01559 32.364 6.66637 32.3268ZM31.9164 32.4797V36.9698C31.9141 37.7708 31.5948 38.5384 31.0285 39.1048C30.4621 39.6712 29.6945 39.9905 28.8935 39.9928H3.02289C2.22204 39.99 1.45479 39.6706 0.888491 39.1043C0.322197 38.538 0.00281169 37.7707 0 36.9698L0 3.02297C0.00327685 2.22222 0.322812 1.4552 0.889005 0.888984C1.4552 0.322765 2.22218 0.00321596 3.02289 -6.10352e-05L28.8882 -6.10352e-05C29.6891 0.00275078 30.4563 0.32215 31.0226 0.88847C31.5889 1.45479 31.9083 2.22208 31.9111 3.02297V12.3695C34.2021 12.874 36.252 14.1459 37.7217 15.9744C39.1913 17.803 39.9924 20.0786 39.9924 22.4246C39.9924 24.7706 39.1913 27.0462 37.7217 28.8748C36.252 30.7033 34.2021 31.9752 31.9111 32.4797H31.9164ZM10.3027 4.04013H21.6155C23.038 4.00634 22.5401 2.10895 22.6255 1.21093H9.28918C9.37808 2.11072 8.8713 4.00456 10.3027 4.04013ZM30.7073 32.67C15.7208 33.3333 15.7137 11.5088 30.7073 12.165V3.02297C30.7049 2.54188 30.5123 2.08127 30.1715 1.74175C29.8306 1.40223 29.3693 1.21139 28.8882 1.21093H23.8382V3.02297C23.8382 3.61249 23.604 4.17788 23.1872 4.59474C22.7703 5.01159 22.205 5.24578 21.6155 5.24578H10.3027C9.71338 5.24531 9.14829 5.01097 8.73156 4.59421C8.31482 4.17746 8.08049 3.61235 8.08002 3.02297V1.21093H3.02289C2.54322 1.21327 2.08388 1.40499 1.74486 1.74436C1.40584 2.08372 1.21458 2.54327 1.21271 3.02297V36.9698C1.21271 37.4507 1.40314 37.9121 1.74236 38.253C2.08158 38.5939 2.54199 38.7866 3.02289 38.789H28.8882C29.3705 38.7885 29.8329 38.5967 30.174 38.2556C30.515 37.9146 30.7068 37.4521 30.7073 36.9698V32.67ZM38.7873 22.4184C38.7862 20.6203 38.2521 18.863 37.2524 17.3685C36.2528 15.874 34.8325 14.7094 33.1711 14.0221C31.5097 13.3347 29.6818 13.1554 27.9185 13.5069C26.1552 13.8583 24.5357 14.7246 23.2647 15.9964C21.9938 17.2682 21.1284 18.8883 20.778 20.6519C20.4276 22.4154 20.608 24.2433 21.2963 25.9044C21.9846 27.5654 23.1499 28.9851 24.6449 29.984C26.1399 30.9828 27.8975 31.5159 29.6955 31.5159C32.1065 31.5159 34.4187 30.5582 36.1237 28.8535C37.8287 27.1488 38.7868 24.8366 38.7873 22.4255V22.4184ZM36.1805 20.962L33.3781 23.6934L34.0396 27.5504C34.0584 27.6619 34.0459 27.7765 34.0035 27.8813C33.9611 27.9862 33.8905 28.0772 33.7995 28.1443C33.7079 28.2107 33.5995 28.2501 33.4867 28.2579C33.3738 28.2658 33.2611 28.2418 33.1611 28.1888L29.6955 26.375L26.2316 28.1959C26.1313 28.2511 26.0174 28.2768 25.9031 28.2699C25.7887 28.2631 25.6787 28.224 25.5857 28.1572C25.4927 28.0904 25.4205 27.9986 25.3774 27.8925C25.3344 27.7864 25.3223 27.6702 25.3425 27.5575L26.004 23.7005L23.2034 20.9691C23.1221 20.8905 23.0644 20.7906 23.037 20.6809C23.0096 20.5711 23.0135 20.4559 23.0484 20.3483C23.0832 20.2406 23.1475 20.1449 23.234 20.0721C23.3205 19.9992 23.4257 19.952 23.5377 19.9359L27.4105 19.3722L29.162 15.8637C29.2175 15.7689 29.2969 15.6903 29.3922 15.6356C29.4875 15.581 29.5954 15.5523 29.7053 15.5523C29.8151 15.5523 29.9231 15.581 30.0184 15.6356C30.1137 15.6903 30.193 15.7689 30.2485 15.8637L31.9804 19.3722L35.8533 19.9359C35.965 19.9524 36.07 19.9997 36.1563 20.0725C36.2426 20.1454 36.3068 20.2409 36.3417 20.3483C36.3767 20.4557 36.3809 20.5707 36.354 20.6804C36.3271 20.7901 36.2701 20.8901 36.1894 20.9691L36.1805 20.962ZM34.4557 20.9513L31.4737 20.5263C31.3765 20.512 31.2842 20.4745 31.2046 20.4169C31.1251 20.3594 31.0606 20.2834 31.0167 20.1955L29.6955 17.5015L28.3654 20.1955C28.3222 20.2835 28.2581 20.3597 28.1788 20.4173C28.0994 20.4749 28.0073 20.5124 27.9102 20.5263L24.9371 20.9584L27.0887 23.055C27.1591 23.123 27.212 23.2071 27.243 23.2999C27.2739 23.3928 27.282 23.4918 27.2665 23.5885L26.7597 26.5492C27.7134 26.008 28.6952 25.5177 29.7008 25.0804C30.7065 25.5177 31.6882 26.008 32.6419 26.5492L32.1334 23.5885C32.1179 23.4918 32.126 23.3928 32.1569 23.2999C32.1879 23.2071 32.2408 23.123 32.3112 23.055L34.4557 20.9513Z" fill="white"/>
</g>
<defs>
<clipPath id="clip0_693_2629">
<rect width="40" height="40" fill="white"/>
</clipPath>
</defs>
</svg>
