<svg width="40" height="40" viewBox="0 0 40 40" fill="none" xmlns="http://www.w3.org/2000/svg">
<g clip-path="url(#clip0_59_410)">
<path d="M29.387 22.6006C26.8803 22.6006 24.8409 24.64 24.8409 27.1468C24.8409 29.6536 26.8803 31.6929 29.387 31.6929C31.8937 31.6929 33.9332 29.6535 33.9332 27.1468C33.9332 24.64 31.8937 22.6006 29.387 22.6006ZM29.387 30.5209C27.5265 30.5209 26.0128 29.0072 26.0128 27.1467C26.0128 25.2861 27.5265 23.7725 29.387 23.7725C31.2476 23.7725 32.7612 25.2861 32.7612 27.1467C32.7612 29.0072 31.2476 30.5209 29.387 30.5209Z" fill="#0D1835"/>
<path d="M31.2919 25.8349L30.4492 25.7124L30.0725 24.9489C29.7921 24.3813 28.9819 24.3813 28.7016 24.949L28.3248 25.7125L27.4821 25.8349C26.8555 25.9261 26.6052 26.6967 27.0586 27.1386L27.6683 27.7329L27.5243 28.5723C27.4175 29.1964 28.073 29.6724 28.6334 29.378L29.387 28.9818L30.1406 29.378C30.7016 29.6727 31.3568 29.1961 31.2496 28.5722L31.1057 27.733L31.7154 27.1387C32.1688 26.6966 31.9186 25.926 31.2919 25.8349ZM29.9551 27.9562C29.3891 27.6586 29.2842 27.7117 28.819 27.9562C28.9273 27.324 28.8434 27.2419 28.468 26.8757C28.9798 26.8013 29.1007 26.7883 29.387 26.2081C29.6709 26.7835 29.7885 26.8006 30.3062 26.8757C29.8442 27.3262 29.8671 27.4431 29.9551 27.9562Z" fill="#0D1835"/>
<path d="M30.8902 20.8398C30.5748 20.7648 30.2594 20.9591 30.1844 21.2739C30.1094 21.5887 30.3037 21.9047 30.6185 21.9798C33.0216 22.5525 34.6998 24.6772 34.6998 27.1466C34.6998 30.0751 32.3129 32.4593 29.3872 32.4593C26.4567 32.4593 24.0745 30.0641 24.0745 27.1466C24.0745 24.6564 25.7972 22.542 28.1559 21.9798C28.4706 21.9047 28.665 21.5887 28.59 21.2739C28.515 20.9592 28.1991 20.7648 27.8841 20.8398C27.4493 20.9434 27.027 21.0929 26.6245 21.2837L21.3477 19.2402V17.5428C22.4893 16.6572 23.2801 15.3416 23.4755 13.8407C24.8673 13.7483 25.883 12.6219 25.883 11.3026C25.883 10.688 25.6605 10.101 25.2644 9.64445V7.41805C25.2641 3.32773 21.9365 0 17.8461 0C13.7557 0 10.4281 3.32773 10.4281 7.41805V9.70273C10.0277 10.1548 9.80985 10.7119 9.80985 11.3025C9.80985 12.6225 10.8255 13.748 12.2165 13.8405C12.4093 15.3356 13.1995 16.7138 14.4659 17.6312V19.2402L7.2957 22.0201C7.29203 22.0216 7.28836 22.023 7.28469 22.0245C7.15586 22.0775 4.1282 23.3629 4.1282 26.8991V33.9663C4.1282 34.6476 4.68258 35.202 5.36399 35.202C6.16188 35.202 23.9477 35.202 24.7423 35.202V39.2118C24.7423 39.7636 25.2938 40.1397 25.8034 39.9505L29.387 38.6239L32.9704 39.9504C33.4841 40.1408 34.0318 39.7601 34.0318 39.2118V31.6655C35.1692 30.4966 35.8717 28.9027 35.8717 27.1468C35.8717 24.1155 33.7653 21.5252 30.8902 20.8398ZM22.677 21.0118L20.9002 24.5727C20.8927 24.5674 19.8854 23.8519 18.7552 23.0491L20.9481 20.3423C22.5838 20.9757 22.1626 20.8126 22.677 21.0118ZM17.9087 23.8856L19.1323 24.7547L18.6637 25.4599H17.1537L16.6851 24.7548L17.9087 23.8856ZM17.9086 22.2322L15.6379 19.4292V18.2818C17.0452 18.8541 18.7192 18.8861 20.1755 18.2434V19.434C18.9959 20.8902 18.04 22.0701 17.9086 22.2322ZM24.7109 11.3025C24.7109 11.9695 24.2303 12.5498 23.5242 12.657V9.94859C24.2345 10.0568 24.7109 10.6419 24.7109 11.3025ZM12.1686 12.657C11.4634 12.5501 10.9819 11.971 10.9819 11.3025C10.9819 10.647 11.5309 10.1173 12.1686 9.97711V12.657ZM12.198 8.78523C12.0062 8.80664 11.7772 8.85953 11.6002 8.92102V7.41805C11.6002 3.97398 14.4021 1.17195 17.8462 1.17195C21.2902 1.17195 24.0922 3.97398 24.0922 7.41805V8.87922C23.9095 8.82227 23.7194 8.78523 23.5241 8.76875C23.5241 8.18305 23.5457 8.31242 21.64 6.26344C21.2904 5.88789 20.7249 5.81875 20.2953 6.09945C18.2037 7.46578 15.6521 8.15187 13.2977 7.98312C12.7839 7.94359 12.3188 8.28773 12.198 8.78523ZM13.3405 13.1132C13.3405 12.266 13.3405 9.90227 13.3405 9.16047C15.9424 9.31656 18.6585 8.54289 20.8509 7.13594C21.7293 8.07922 22.2028 8.57125 22.3523 8.7557C22.3523 9.2293 22.3523 12.575 22.3523 13.1131C22.3523 15.5275 20.391 17.5462 17.919 17.5462C15.2009 17.5462 13.3405 15.4434 13.3405 13.1132ZM14.8663 20.3434L17.0598 23.0509C15.9556 23.8351 15.0195 24.5 14.9173 24.5727L13.1405 21.0118L14.8663 20.3434ZM10.0543 34.0299V27.9936C10.0543 27.6699 9.79203 27.4077 9.46836 27.4077C9.14469 27.4077 8.88242 27.6699 8.88242 27.9936V34.0299H5.36406C5.32883 34.0299 5.30024 34.0013 5.30024 33.9662V26.899C5.30024 24.1884 7.58844 23.1689 7.72703 23.1098L12.0429 21.4366L13.9395 25.2377C14.2234 25.8066 14.9487 25.9879 15.4667 25.62L15.7292 25.4336L16.2231 26.177L14.8938 34.0299H10.0543ZM24.7423 34.0299H20.9236L20.5123 31.6002C20.4584 31.2812 20.1566 31.0662 19.8369 31.1203C19.5178 31.1743 19.303 31.4768 19.357 31.7958L19.7351 34.0298H16.0825L17.3347 26.6316H18.4829L18.8941 29.0613C18.9481 29.3803 19.2505 29.5956 19.5696 29.5412C19.8887 29.4873 20.1035 29.1848 20.0495 28.8658L19.5944 26.1768L20.0882 25.4335L20.3507 25.6199C20.8692 25.9882 21.5941 25.8063 21.8779 25.2377L21.878 25.2377L23.7745 21.4368L25.3738 22.0562C23.8077 23.2885 22.9024 25.162 22.9024 27.1466C22.9024 28.849 23.5689 30.4601 24.7423 31.6659V34.0299ZM26.4966 38.4442L25.9143 38.6598C25.9143 38.0497 25.9143 33.2016 25.9143 32.6217C25.9927 32.6716 26.2392 32.8226 26.4966 32.9512V38.4442ZM31.1055 38.0103L29.6604 37.4754C29.4841 37.4102 29.29 37.4102 29.1136 37.4755L27.6685 38.0104V33.3995C28.7698 33.7015 29.957 33.7146 31.1055 33.3995V38.0103ZM32.8598 38.6597L32.2775 38.4441V32.9512C32.4941 32.843 32.7263 32.7067 32.8598 32.6217V38.6597Z" fill="#0D1835"/>
</g>
<defs>
<clipPath id="clip0_59_410">
<rect width="40" height="40" fill="white"/>
</clipPath>
</defs>
</svg>
