<svg width="20" height="17" viewBox="0 0 20 17" fill="none" xmlns="http://www.w3.org/2000/svg">
<path d="M2 16.5C1.45 16.5 0.979333 16.3043 0.588 15.913C0.196667 15.5217 0.000666667 15.0507 0 14.5V2.5C0 1.95 0.196 1.47933 0.588 1.088C0.98 0.696666 1.45067 0.500667 2 0.5H18C18.55 0.5 19.021 0.696 19.413 1.088C19.805 1.48 20.0007 1.95067 20 2.5V14.5C20 15.05 19.8043 15.521 19.413 15.913C19.0217 16.305 18.5507 16.5007 18 16.5H2ZM10 9.325C10.0833 9.325 10.171 9.31233 10.263 9.287C10.355 9.26167 10.4423 9.22433 10.525 9.175L17.6 4.75C17.7333 4.66667 17.8333 4.56267 17.9 4.438C17.9667 4.31333 18 4.17567 18 4.025C18 3.69167 17.8583 3.44167 17.575 3.275C17.2917 3.10833 17 3.11667 16.7 3.3L10 7.5L3.3 3.3C3 3.11667 2.70833 3.11267 2.425 3.288C2.14167 3.46333 2 3.709 2 4.025C2 4.19167 2.03333 4.33767 2.1 4.463C2.16667 4.58833 2.26667 4.684 2.4 4.75L9.475 9.175C9.55833 9.225 9.646 9.26267 9.738 9.288C9.83 9.31333 9.91733 9.32567 10 9.325Z" fill="white"/>
</svg>
