<svg width="40" height="40" viewBox="0 0 40 40" fill="none" xmlns="http://www.w3.org/2000/svg">
<path d="M32.9836 17.1281C32.1078 17.1313 31.2898 17.4703 30.6781 18.0836L26.9188 21.2961C26.9273 21.2008 26.9312 21.1047 26.9312 21.0078C26.9312 19.1852 25.4484 17.7023 23.6258 17.7023H14.0711C12.8383 17.7023 11.7719 18.1445 10.9 19.0156L6.89531 23.0203L6.00781 22.1328C5.75469 21.8797 5.41719 21.7406 5.05781 21.7406C4.69844 21.7406 4.36094 21.8797 4.10781 22.1328L1.56406 24.6766C1.31094 24.9281 1.17188 25.2656 1.17188 25.625C1.17188 25.9844 1.31172 26.3219 1.56484 26.575L12.3039 37.3141C12.5656 37.5758 12.9102 37.707 13.2539 37.707C13.5977 37.707 13.9422 37.5758 14.2039 37.3141L16.7477 34.7703C17.2719 34.2461 17.2719 33.3937 16.7477 32.8703L15.8586 31.9812C16.7812 31.0461 17.2602 30.575 18.7242 30.3852L26.3117 29.4023C27.3875 29.2633 28.275 28.8648 29.1055 28.1484L35.3164 22.7953L35.3422 22.7719C36.6312 21.4828 36.6312 19.3859 35.3422 18.0969C34.7141 17.4687 33.875 17.1242 32.9836 17.1281ZM16.0844 34.1078L13.5406 36.6516C13.382 36.8102 13.1242 36.8102 12.9664 36.6516L2.22734 25.9125C2.15156 25.8359 2.10938 25.7344 2.10938 25.625C2.10938 25.5156 2.15156 25.4141 2.22734 25.3375L4.77109 22.7938C4.84687 22.718 4.94922 22.6758 5.05859 22.6758C5.16797 22.6758 5.26953 22.718 5.34609 22.7938L16.0852 33.5328C16.243 33.6914 16.243 33.9492 16.0844 34.1078ZM34.6898 22.0961L28.493 27.4375C27.7984 28.0367 27.0883 28.3555 26.1906 28.4719L18.6031 29.4547C16.8242 29.6852 16.1648 30.3352 15.1945 31.318L7.55859 23.682L11.5633 19.6773C12.2523 18.9883 13.0961 18.6383 14.0711 18.6383H23.625C24.9312 18.6383 25.993 19.7008 25.993 21.0063C25.993 21.6539 25.732 22.2414 25.3094 22.6688L25.3008 22.6766C24.8297 23.0781 24.1766 23.2805 23.4453 23.3742H16.9094C16.6508 23.3742 16.4406 23.5844 16.4406 23.843C16.4406 24.1016 16.6508 24.3117 16.9094 24.3117H19.6016C19.9305 24.3164 20.2758 24.3305 20.6414 24.3453C21.5789 24.3836 22.5789 24.425 23.5086 24.3117H23.6234C24.525 24.3117 25.3438 23.9492 25.9406 23.3617L31.3008 18.7828C31.3109 18.7742 31.3211 18.7648 31.3305 18.7555C31.7664 18.3125 32.3547 18.0672 32.9859 18.0648H32.9953C33.6328 18.0648 34.2297 18.3109 34.6773 18.7586C35.5977 19.6781 35.6016 21.1719 34.6898 22.0961ZM14.3672 16.5117H23.0812C24.5984 16.5117 25.8336 15.2773 25.8336 13.7594V5.04531C25.8336 3.52813 24.5992 2.29297 23.0812 2.29297H14.3672C12.85 2.29297 11.6148 3.52734 11.6148 5.04531V13.7594C11.6148 15.2766 12.85 16.5117 14.3672 16.5117ZM12.5523 5.04531C12.5523 4.04453 13.3664 3.23047 14.3672 3.23047H23.0812C24.082 3.23047 24.8961 4.04453 24.8961 5.04531V13.7594C24.8961 14.7602 24.082 15.5742 23.0812 15.5742H14.3672C13.3664 15.5742 12.5523 14.7602 12.5523 13.7594V5.04531ZM15.282 9.45547C15.0992 9.27266 15.0992 8.97578 15.282 8.79219C15.4648 8.60938 15.7617 8.60938 15.9445 8.79219L17.8727 10.7203L21.5031 7.08984C21.6859 6.90703 21.9828 6.90703 22.1656 7.08984C22.3484 7.27266 22.3484 7.56953 22.1656 7.75313L18.2031 11.7156C18.1117 11.807 17.9914 11.8531 17.8719 11.8531C17.7523 11.8531 17.632 11.807 17.5406 11.7156L15.282 9.45547ZM38.6305 8.25313L33.7992 4.83047C33.6562 4.72891 33.4688 4.71641 33.3133 4.79688C33.1578 4.87734 33.0602 5.03828 33.0602 5.21328V6.65313H27.7617C27.5031 6.65313 27.293 6.86328 27.293 7.12188V10.15C27.293 10.4086 27.5031 10.6187 27.7617 10.6187H33.0602V12.0586C33.0602 12.2336 33.1578 12.3945 33.3133 12.475C33.3812 12.5102 33.4547 12.5273 33.5281 12.5273C33.6234 12.5273 33.7188 12.4984 33.7992 12.4414L38.6305 9.01875C38.7547 8.93125 38.8281 8.78828 38.8281 8.63594C38.8281 8.48359 38.7547 8.34063 38.6305 8.25313ZM33.9969 11.1516V10.15C33.9969 9.89141 33.7867 9.68125 33.5281 9.68125H28.2297V7.58984H33.5281C33.7867 7.58984 33.9969 7.37969 33.9969 7.12109V6.11953L37.5484 8.63516L33.9969 11.1516Z" fill="#0D1835"/>
</svg>
