<svg width="51" height="51" viewBox="0 0 51 51" fill="none" xmlns="http://www.w3.org/2000/svg">
<path d="M25.2676 49.3655V42.0413" stroke="#0D1835" stroke-width="1.5" stroke-miterlimit="10" stroke-linecap="round" stroke-linejoin="round"/>
<path d="M25.2676 25.928C30.5801 25.928 34.8867 21.6213 34.8867 16.3088C34.8867 10.9963 30.5801 6.6897 25.2676 6.6897C19.9551 6.6897 15.6484 10.9963 15.6484 16.3088C15.6484 21.6213 19.9551 25.928 25.2676 25.928Z" stroke="#0D1835" stroke-width="1.5" stroke-miterlimit="10" stroke-linecap="round" stroke-linejoin="round"/>
<path d="M25.2676 9.61938C24.8258 9.61938 24.3941 9.66235 23.9765 9.74438C22.8355 9.96821 22.4217 11.3914 23.2438 12.2134L24.0738 13.0436C24.6459 13.6157 24.6459 14.5431 24.0738 15.1152C23.5018 15.6873 22.5743 15.6873 22.0022 15.1152L21.1722 14.2851C20.35 13.4629 18.927 13.8769 18.7031 15.0178C18.6212 15.4355 18.5781 15.8671 18.5781 16.3089C18.5781 18.6102 19.7405 20.6391 21.5101 21.8422C22.4844 22.5047 23.8027 21.8112 23.8027 20.6331C23.8027 19.8241 24.4586 19.1682 25.2676 19.1682C26.0766 19.1682 26.7324 19.8241 26.7324 20.6331C26.7324 21.8112 28.0509 22.5047 29.0252 21.8422C30.7947 20.6391 31.957 18.6102 31.957 16.3089C31.957 12.6143 28.9621 9.61938 25.2676 9.61938Z" stroke="#0D1835" stroke-width="1.5" stroke-miterlimit="10" stroke-linecap="round" stroke-linejoin="round"/>
<path d="M13.3358 6.44858C11.1205 9.12632 9.78906 12.5621 9.78906 16.3088C9.78906 19.6344 10.8382 22.7148 12.623 25.2377C12.6226 25.2377 24.0709 41.4214 24.0709 41.4214C24.3377 41.796 24.7736 42.0413 25.2676 42.0413C25.7615 42.0413 26.1975 41.796 26.4628 41.4214C26.4643 41.4214 37.9127 25.2377 37.9127 25.2377C39.697 22.7148 40.7461 19.6344 40.7461 16.3088C40.7461 7.7603 33.8161 0.830322 25.2676 0.830322C21.5208 0.830322 18.0851 2.16177 15.4074 4.3771" stroke="#0D1835" stroke-width="1.5" stroke-miterlimit="10" stroke-linecap="round" stroke-linejoin="round"/>
<path d="M13.1328 43.5061L15.3301 34.1566" stroke="#0D1835" stroke-width="1.5" stroke-miterlimit="10" stroke-linecap="round" stroke-linejoin="round"/>
<path d="M37.4004 43.5061L35.2031 34.1566" stroke="#0D1835" stroke-width="1.5" stroke-miterlimit="10" stroke-linecap="round" stroke-linejoin="round"/>
<path d="M20.8 36.7975L15.3311 34.1566L5.39453 38.955L1 49.3655L5.74785 47.0728" stroke="#0D1835" stroke-width="1.5" stroke-miterlimit="10" stroke-linecap="round" stroke-linejoin="round"/>
<path d="M8.38672 45.7988L13.1346 43.5061L25.2684 49.3655L37.4021 43.5061L49.5359 49.3655L45.1414 38.955L35.2049 34.1566L29.7354 36.7978" stroke="#0D1835" stroke-width="1.5" stroke-miterlimit="10" stroke-linecap="round" stroke-linejoin="round"/>
</svg>
