<svg width="40" height="40" viewBox="0 0 40 40" fill="none" xmlns="http://www.w3.org/2000/svg">
<g clip-path="url(#clip0_59_421)">
<path d="M35.2625 25.45V14.5438C36.1188 14.3688 36.875 13.8438 37.3188 13.075C37.7313 12.3625 37.8375 11.5375 37.625 10.7375C37.4125 9.94375 36.9 9.28125 36.1938 8.86875C35.725 8.6 35.1938 8.45625 34.6563 8.45625C33.7625 8.45625 32.9313 8.85 32.35 9.50625L22.9063 4.05C22.925 3.9875 22.9563 3.93125 22.975 3.875C23.1875 3.08125 23.075 2.25 22.6688 1.54375C22.1125 0.5875 21.0938 0 19.9938 0C19.4563 0 18.925 0.14375 18.4563 0.4125C17.7438 0.825 17.2375 1.4875 17.025 2.28125C16.8688 2.875 16.8875 3.49375 17.0813 4.0625L7.63126 9.5125C7.06876 8.875 6.25001 8.4625 5.33751 8.4625C3.64376 8.4625 2.26251 9.84375 2.26251 11.5375C2.26251 13.025 3.32501 14.2688 4.73751 14.55V25.45C3.88126 25.625 3.12501 26.1563 2.68126 26.925C1.83126 28.3938 2.33751 30.2812 3.80626 31.125C4.27501 31.3937 4.80626 31.5375 5.34376 31.5375C6.22501 31.5375 7.05001 31.1562 7.62501 30.5125L17.1125 35.9125C17.0875 35.9875 17.05 36.05 17.0313 36.125C16.8188 36.9188 16.925 37.75 17.3375 38.4562C17.8813 39.4125 18.9063 40 20 40C20.5375 40 21.0688 39.8563 21.5375 39.5875C22.25 39.175 22.7563 38.5125 22.9688 37.7188C23.1313 37.1125 23.1 36.4875 22.9 35.9125L32.375 30.5125C32.9375 31.1375 33.7438 31.5375 34.65 31.5375C36.3438 31.5375 37.725 30.1562 37.725 28.4625C37.7313 26.975 36.6688 25.7313 35.2625 25.45ZM34.6563 9.675C34.9813 9.675 35.3 9.7625 35.5875 9.925C36.0188 10.175 36.325 10.575 36.4563 11.0563C36.5875 11.5375 36.5188 12.0375 36.2688 12.4688C35.9375 13.0375 35.325 13.3938 34.6688 13.4H34.6625C34.6563 13.4 34.6563 13.4 34.65 13.4C34.325 13.4 34.0063 13.3125 33.725 13.15C32.8375 12.6375 32.5313 11.4937 33.0438 10.6062C33.375 10.0312 33.9938 9.675 34.6563 9.675ZM31.7438 10.5562C31.525 11.2062 31.5438 11.8875 31.7563 12.5125L26.4313 15.5875C25.6313 14.2375 24.4 13.225 22.9 12.7C22.15 12.4375 21.3813 12.3187 20.6125 12.3312V6.0875C20.9375 6.01875 21.25 5.9125 21.5438 5.74375C21.8375 5.575 22.0875 5.35 22.3063 5.10625L31.7438 10.5562ZM22.5 13.8438C23.875 14.325 24.9813 15.3125 25.6188 16.625C25.95 17.3125 26.1313 18.05 26.1563 18.8L21.0938 18.4187L18.8875 13.8438C20.05 13.4312 21.3125 13.425 22.5 13.8438ZM18.2 2.59375C18.3313 2.1125 18.6375 1.7125 19.0688 1.4625C19.35 1.3 19.675 1.2125 20 1.2125C20.6625 1.2125 21.2875 1.56875 21.6188 2.14375C21.8688 2.575 21.9313 3.075 21.8063 3.55625C21.675 4.0375 21.3688 4.4375 20.9375 4.6875C20.6563 4.85 20.3313 4.9375 20.0063 4.9375C19.3375 4.9375 18.7188 4.58125 18.3875 4.00625C18.1375 3.575 18.0688 3.075 18.2 2.59375ZM17.7 5.10625C18.1438 5.60625 18.7438 5.95625 19.4 6.0875V12.4563C18.8563 12.5625 18.3188 12.7375 17.8 12.9875C17.6563 13.0563 17.5438 13.1812 17.4938 13.3313C17.4375 13.4812 17.45 13.65 17.5188 13.7937L20.1563 19.2625C20.25 19.4562 20.4438 19.5875 20.6563 19.6063L26.7063 20.0625H26.75C27.0625 20.0625 27.3313 19.8187 27.3563 19.5062C27.4313 18.5562 27.2875 17.5938 26.95 16.6937L32.3625 13.5687C32.575 13.8125 32.825 14.0375 33.1188 14.2062C33.4125 14.375 33.725 14.4875 34.0563 14.55V25.45C33.3813 25.5875 32.8 25.9438 32.3625 26.4438L25.7688 22.6375C25.8625 22.2688 25.9375 21.8937 25.9625 21.5125C25.9875 21.1812 25.7375 20.8875 25.4063 20.8625L19.7063 20.4312L17.225 15.2812C17.0813 14.9813 16.7188 14.8562 16.4188 15C15.7625 15.3188 15.1813 15.7312 14.6688 16.225L8.25626 12.525C8.36251 12.2188 8.43126 11.8938 8.43126 11.55C8.43126 11.2062 8.36251 10.8813 8.25626 10.5688L17.7 5.10625ZM18.0875 26.3188L19.725 21.6375L24.675 22.0062C24.3563 23.6938 23.25 25.1625 21.6813 25.9188C20.5188 26.4813 19.2563 26.5875 18.0875 26.3188ZM14.3875 23.375C13.7563 22.0625 13.6688 20.5812 14.15 19.2C14.3813 18.5312 14.7375 17.9312 15.1938 17.4125C15.2 17.4062 15.2063 17.4 15.2063 17.3937C15.55 17 15.95 16.6562 16.4 16.375L18.65 21.0375L16.9438 25.9188C15.8625 25.4062 14.9438 24.5375 14.3875 23.375ZM6.88126 25.8C6.59376 25.6312 6.27501 25.5187 5.95001 25.4562V14.55C6.61876 14.4125 7.20001 14.0563 7.63751 13.5625L13.8563 17.15C13.5 17.65 13.2125 18.2062 13.0063 18.8C12.4875 20.2812 12.5063 21.8688 13.05 23.3188L7.65001 26.4375C7.42501 26.1875 7.17501 25.9688 6.88126 25.8ZM3.48126 11.5375C3.48126 10.5125 4.31876 9.675 5.34376 9.675C6.36876 9.675 7.20626 10.5125 7.20626 11.5375C7.20626 12.5625 6.37501 13.3938 5.35001 13.4H5.34376C5.33751 13.4 5.33751 13.4 5.33126 13.4C4.31251 13.4 3.48126 12.5625 3.48126 11.5375ZM5.33751 30.325C5.01251 30.325 4.69376 30.2375 4.40626 30.075C3.51876 29.5625 3.21251 28.4187 3.72501 27.5312C4.05626 26.9562 4.67501 26.6 5.34376 26.6C5.66876 26.6 5.98751 26.6875 6.27501 26.85C6.70626 27.1 7.01251 27.5 7.14376 27.9813C7.27501 28.4625 7.20626 28.9625 6.95626 29.3937C6.95001 29.4 6.94376 29.4062 6.93751 29.4125C6.93751 29.4188 6.93126 29.4188 6.93126 29.425C6.59376 29.9813 5.99376 30.325 5.33751 30.325ZM8.24376 29.475C8.45001 28.8937 8.47501 28.2687 8.31251 27.6625C8.29376 27.6 8.26876 27.5437 8.24376 27.4875L13.5813 24.4062C14.3875 25.7625 15.6125 26.7375 17.0188 27.25C17.0438 27.2625 17.0688 27.2875 17.1 27.3C17.1313 27.3125 17.1688 27.3125 17.2 27.3187C17.8813 27.5437 18.5875 27.675 19.3125 27.675C19.3375 27.675 19.3625 27.6688 19.3875 27.6688V33.9125C19.0625 33.9813 18.75 34.0875 18.4563 34.2563C18.175 34.4188 17.9313 34.6313 17.7188 34.8688L8.24376 29.475ZM21.8 37.4062C21.6688 37.8875 21.3625 38.2875 20.9313 38.5375C20.65 38.7 20.325 38.7875 20 38.7875C19.3313 38.7875 18.7125 38.4313 18.3813 37.8563C18.1313 37.425 18.0688 36.925 18.1938 36.4438C18.325 35.9625 18.6313 35.5625 19.0625 35.3125C19.3438 35.15 19.6688 35.0625 19.9938 35.0625C20.6563 35.0625 21.2813 35.4188 21.6125 35.9938C21.8625 36.425 21.9313 36.925 21.8 37.4062ZM22.2813 34.8688C21.8375 34.3813 21.25 34.0438 20.6063 33.9125V27.5438C21.15 27.4375 21.6875 27.2687 22.2063 27.0187C23.6188 26.3375 24.7188 25.1812 25.3563 23.7938L31.7563 27.4875C31.65 27.7937 31.5813 28.1187 31.5813 28.4625C31.5813 28.8188 31.6563 29.15 31.7625 29.4688L22.2813 34.8688ZM34.6563 30.325C33.6313 30.325 32.7938 29.4875 32.7938 28.4625C32.7938 27.4375 33.6313 26.6 34.6563 26.6C35.6813 26.6 36.5188 27.4375 36.5188 28.4625C36.5188 29.4875 35.6813 30.325 34.6563 30.325Z" fill="#0D1835"/>
</g>
<defs>
<clipPath id="clip0_59_421">
<rect width="40" height="40" fill="white"/>
</clipPath>
</defs>
</svg>
