<svg width="50" height="50" viewBox="0 0 50 50" fill="none" xmlns="http://www.w3.org/2000/svg">
<path d="M44.0781 31.8125V18.1797C45.1484 17.9609 46.0938 17.3047 46.6484 16.3438C47.1641 15.4531 47.2969 14.4219 47.0312 13.4219C46.7656 12.4297 46.125 11.6016 45.2422 11.0859C44.6562 10.75 43.9922 10.5703 43.3203 10.5703C42.2031 10.5703 41.1641 11.0625 40.4375 11.8828L28.6328 5.0625C28.6563 4.98438 28.6953 4.91406 28.7188 4.84375C28.9844 3.85156 28.8438 2.8125 28.3359 1.92969C27.6406 0.734375 26.3672 0 24.9922 0C24.3203 0 23.6562 0.179688 23.0703 0.515625C22.1797 1.03125 21.5469 1.85938 21.2812 2.85156C21.0859 3.59375 21.1094 4.36719 21.3516 5.07812L9.53906 11.8906C8.83594 11.0938 7.8125 10.5781 6.67188 10.5781C4.55469 10.5781 2.82812 12.3047 2.82812 14.4219C2.82812 16.2812 4.15625 17.8359 5.92188 18.1875V31.8125C4.85156 32.0312 3.90625 32.6953 3.35156 33.6562C2.28906 35.4922 2.92188 37.8516 4.75781 38.9062C5.34375 39.2422 6.00781 39.4219 6.67969 39.4219C7.78125 39.4219 8.8125 38.9453 9.53125 38.1406L21.3906 44.8906C21.3594 44.9844 21.3125 45.0625 21.2891 45.1562C21.0234 46.1484 21.1562 47.1875 21.6719 48.0703C22.3516 49.2656 23.6328 50 25 50C25.6719 50 26.3359 49.8203 26.9219 49.4844C27.8125 48.9688 28.4453 48.1406 28.7109 47.1484C28.9141 46.3906 28.875 45.6094 28.625 44.8906L40.4688 38.1406C41.1719 38.9219 42.1797 39.4219 43.3125 39.4219C45.4297 39.4219 47.1562 37.6953 47.1562 35.5781C47.1641 33.7188 45.8359 32.1641 44.0781 31.8125ZM43.3203 12.0938C43.7266 12.0938 44.125 12.2031 44.4844 12.4062C45.0234 12.7188 45.4063 13.2188 45.5703 13.8203C45.7344 14.4219 45.6484 15.0469 45.3359 15.5859C44.9219 16.2969 44.1562 16.7422 43.3359 16.75H43.3281C43.3203 16.75 43.3203 16.75 43.3125 16.75C42.9062 16.75 42.5078 16.6406 42.1562 16.4375C41.0469 15.7969 40.6641 14.3672 41.3047 13.2578C41.7188 12.5391 42.4922 12.0938 43.3203 12.0938ZM39.6797 13.1953C39.4062 14.0078 39.4297 14.8594 39.6953 15.6406L33.0391 19.4844C32.0391 17.7969 30.5 16.5312 28.625 15.875C27.6875 15.5469 26.7266 15.3984 25.7656 15.4141V7.60938C26.1719 7.52344 26.5625 7.39062 26.9297 7.17969C27.2969 6.96875 27.6094 6.6875 27.8828 6.38281L39.6797 13.1953ZM28.125 17.3047C29.8438 17.9062 31.2266 19.1406 32.0234 20.7812C32.4375 21.6406 32.6641 22.5625 32.6953 23.5L26.3672 23.0234L23.6094 17.3047C25.0625 16.7891 26.6406 16.7812 28.125 17.3047ZM22.75 3.24219C22.9141 2.64062 23.2969 2.14062 23.8359 1.82812C24.1875 1.625 24.5938 1.51562 25 1.51562C25.8281 1.51562 26.6094 1.96094 27.0234 2.67969C27.3359 3.21875 27.4141 3.84375 27.2578 4.44531C27.0938 5.04688 26.7109 5.54688 26.1719 5.85938C25.8203 6.0625 25.4141 6.17188 25.0078 6.17188C24.1719 6.17188 23.3984 5.72656 22.9844 5.00781C22.6719 4.46875 22.5859 3.84375 22.75 3.24219ZM22.125 6.38281C22.6797 7.00781 23.4297 7.44531 24.25 7.60938V15.5703C23.5703 15.7031 22.8984 15.9219 22.25 16.2344C22.0703 16.3203 21.9297 16.4766 21.8672 16.6641C21.7969 16.8516 21.8125 17.0625 21.8984 17.2422L25.1953 24.0781C25.3125 24.3203 25.5547 24.4844 25.8203 24.5078L33.3828 25.0781H33.4375C33.8281 25.0781 34.1641 24.7734 34.1953 24.3828C34.2891 23.1953 34.1094 21.9922 33.6875 20.8672L40.4531 16.9609C40.7188 17.2656 41.0313 17.5469 41.3984 17.7578C41.7656 17.9688 42.1563 18.1094 42.5703 18.1875V31.8125C41.7266 31.9844 41 32.4297 40.4531 33.0547L32.2109 28.2969C32.3281 27.8359 32.4219 27.3672 32.4531 26.8906C32.4844 26.4766 32.1719 26.1094 31.7578 26.0781L24.6328 25.5391L21.5312 19.1016C21.3516 18.7266 20.8984 18.5703 20.5234 18.75C19.7031 19.1484 18.9766 19.6641 18.3359 20.2812L10.3203 15.6563C10.4531 15.2734 10.5391 14.8672 10.5391 14.4375C10.5391 14.0078 10.4531 13.6016 10.3203 13.2109L22.125 6.38281ZM22.6094 32.8984L24.6562 27.0469L30.8438 27.5078C30.4453 29.6172 29.0625 31.4531 27.1016 32.3984C25.6484 33.1016 24.0703 33.2344 22.6094 32.8984ZM17.9844 29.2188C17.1953 27.5781 17.0859 25.7266 17.6875 24C17.9766 23.1641 18.4219 22.4141 18.9922 21.7656C19 21.7578 19.0078 21.75 19.0078 21.7422C19.4375 21.25 19.9375 20.8203 20.5 20.4688L23.3125 26.2969L21.1797 32.3984C19.8281 31.7578 18.6797 30.6719 17.9844 29.2188ZM8.60156 32.25C8.24219 32.0391 7.84375 31.8984 7.4375 31.8203V18.1875C8.27344 18.0156 9 17.5703 9.54688 16.9531L17.3203 21.4375C16.875 22.0625 16.5156 22.7578 16.2578 23.5C15.6094 25.3516 15.6328 27.3359 16.3125 29.1484L9.5625 33.0469C9.28125 32.7344 8.96875 32.4609 8.60156 32.25ZM4.35156 14.4219C4.35156 13.1406 5.39844 12.0938 6.67969 12.0938C7.96094 12.0938 9.00781 13.1406 9.00781 14.4219C9.00781 15.7031 7.96875 16.7422 6.6875 16.75H6.67969C6.67188 16.75 6.67187 16.75 6.66406 16.75C5.39062 16.75 4.35156 15.7031 4.35156 14.4219ZM6.67188 37.9062C6.26562 37.9062 5.86719 37.7969 5.50781 37.5938C4.39844 36.9531 4.01563 35.5234 4.65625 34.4141C5.07031 33.6953 5.84375 33.25 6.67969 33.25C7.08594 33.25 7.48438 33.3594 7.84375 33.5625C8.38281 33.875 8.76563 34.375 8.92969 34.9766C9.09375 35.5781 9.00781 36.2031 8.69531 36.7422C8.6875 36.75 8.67969 36.7578 8.67188 36.7656C8.67188 36.7734 8.66406 36.7734 8.66406 36.7812C8.24219 37.4766 7.49219 37.9062 6.67188 37.9062ZM10.3047 36.8438C10.5625 36.1172 10.5938 35.3359 10.3906 34.5781C10.3672 34.5 10.3359 34.4297 10.3047 34.3594L16.9766 30.5078C17.9844 32.2031 19.5156 33.4219 21.2734 34.0625C21.3047 34.0781 21.3359 34.1094 21.375 34.125C21.4141 34.1406 21.4609 34.1406 21.5 34.1484C22.3516 34.4297 23.2344 34.5938 24.1406 34.5938C24.1719 34.5938 24.2031 34.5859 24.2344 34.5859V42.3906C23.8281 42.4766 23.4375 42.6094 23.0703 42.8203C22.7188 43.0234 22.4141 43.2891 22.1484 43.5859L10.3047 36.8438ZM27.25 46.7578C27.0859 47.3594 26.7031 47.8594 26.1641 48.1719C25.8125 48.375 25.4062 48.4844 25 48.4844C24.1641 48.4844 23.3906 48.0391 22.9766 47.3203C22.6641 46.7812 22.5859 46.1562 22.7422 45.5547C22.9063 44.9531 23.2891 44.4531 23.8281 44.1406C24.1797 43.9375 24.5859 43.8281 24.9922 43.8281C25.8203 43.8281 26.6016 44.2734 27.0156 44.9922C27.3281 45.5312 27.4141 46.1562 27.25 46.7578ZM27.8516 43.5859C27.2969 42.9766 26.5625 42.5547 25.7578 42.3906V34.4297C26.4375 34.2969 27.1094 34.0859 27.7578 33.7734C29.5234 32.9219 30.8984 31.4766 31.6953 29.7422L39.6953 34.3594C39.5625 34.7422 39.4766 35.1484 39.4766 35.5781C39.4766 36.0234 39.5703 36.4375 39.7031 36.8359L27.8516 43.5859ZM43.3203 37.9062C42.0391 37.9062 40.9922 36.8594 40.9922 35.5781C40.9922 34.2969 42.0391 33.25 43.3203 33.25C44.6016 33.25 45.6484 34.2969 45.6484 35.5781C45.6484 36.8594 44.6016 37.9062 43.3203 37.9062Z" fill="#0D1835"/>
</svg>
