<svg width="40" height="40" viewBox="0 0 40 40" fill="none" xmlns="http://www.w3.org/2000/svg">
<path d="M6.8063 7.61821C7.93357 7.61821 8.85478 6.697 8.85478 5.56973C8.85478 4.44245 7.93357 3.52124 6.8063 3.52124C5.67902 3.52124 4.75781 4.44245 4.75781 5.56973C4.75781 6.697 5.67902 7.61821 6.8063 7.61821ZM6.8063 4.69094C7.29115 4.69094 7.68509 5.08488 7.68509 5.56973C7.68509 6.05457 7.29115 6.44851 6.8063 6.44851C6.32145 6.44851 5.92751 6.05457 5.92751 5.56973C5.92751 5.08488 6.32145 4.69094 6.8063 4.69094Z" fill="white"/>
<path d="M4.46678 8.79398C4.79146 8.79398 5.05466 8.53078 5.05466 8.2061C5.05466 7.88143 4.79146 7.61823 4.46678 7.61823C4.14211 7.61823 3.87891 7.88143 3.87891 8.2061C3.87891 8.53078 4.14211 8.79398 4.46678 8.79398Z" fill="white"/>
<path d="M35.5286 33C34.5952 32.6788 33.874 31.9576 33.5528 31.0242C33.474 30.7879 33.2498 30.6303 33.0013 30.6303C32.7528 30.6303 32.5286 30.7879 32.4498 31.0242C32.1286 31.9576 31.4073 32.6788 30.474 33C30.2377 33.0788 30.0801 33.303 30.0801 33.5515C30.0801 33.8 30.2377 34.0242 30.474 34.103C31.4073 34.4242 32.1286 35.1455 32.4498 36.0788C32.5286 36.3152 32.7528 36.4727 33.0013 36.4727C33.2498 36.4727 33.474 36.3152 33.5528 36.0788C33.874 35.1455 34.5952 34.4242 35.5286 34.103C35.7649 34.0242 35.9225 33.8 35.9225 33.5515C35.9286 33.303 35.7649 33.0788 35.5286 33ZM33.0013 34.6121C32.7104 34.2 32.3528 33.8424 31.9407 33.5515C32.3528 33.2606 32.7104 32.903 33.0013 32.4909C33.2922 32.903 33.6498 33.2606 34.0619 33.5515C33.6498 33.8424 33.2922 34.2 33.0013 34.6121Z" fill="white"/>
<path d="M9.87981 30.6061H8.14647C7.82526 30.6061 7.55859 30.8667 7.55859 31.194C7.55859 31.5152 7.8192 31.7818 8.14647 31.7818H9.87981C10.201 31.7818 10.4677 31.5212 10.4677 31.194C10.4677 30.8727 10.201 30.6061 9.87981 30.6061Z" fill="white"/>
<path d="M5.75851 30.6061H4.03124C3.71003 30.6061 3.44336 30.8667 3.44336 31.194C3.44336 31.5152 3.70397 31.7818 4.03124 31.7818H5.75851C6.07972 31.7818 6.34639 31.5212 6.34639 31.194C6.34639 30.8727 6.08578 30.6061 5.75851 30.6061Z" fill="white"/>
<path d="M6.95311 31.8C6.6319 31.8 6.36523 32.0607 6.36523 32.3879V34.1213C6.36523 34.4425 6.62584 34.7091 6.95311 34.7091C7.27433 34.7091 7.54099 34.4485 7.54099 34.1213V32.3879C7.54099 32.0667 7.28039 31.8 6.95311 31.8Z" fill="white"/>
<path d="M6.95311 27.6849C6.6319 27.6849 6.36523 27.9455 6.36523 28.2728V30.0061C6.36523 30.3273 6.62584 30.594 6.95311 30.594C7.27433 30.594 7.54099 30.3334 7.54099 30.0061V28.2728C7.54099 27.9455 7.28039 27.6849 6.95311 27.6849Z" fill="white"/>
<path d="M35.9716 8.37579H7.88671C7.56549 8.37579 7.29883 8.6364 7.29883 8.96367V12.4C7.29883 12.7212 7.55943 12.9879 7.88671 12.9879H8.91095V28.8485C8.91095 29.1697 9.17156 29.4364 9.49883 29.4364H16.7534L13.7837 35.6243C13.6988 35.8061 13.7109 36.0182 13.814 36.1879C13.9231 36.3576 14.1109 36.4606 14.3109 36.4606H17.6625C17.8867 36.4606 18.0928 36.3334 18.1897 36.1273L21.4079 29.4303H22.4746L25.6928 36.1273C25.7897 36.3273 25.9958 36.4606 26.22 36.4606H29.5716C29.7716 36.4606 29.9594 36.3576 30.0685 36.1879C30.1776 36.0182 30.1897 35.8061 30.0988 35.6243L27.1291 29.4364H34.3655C34.6867 29.4364 34.9534 29.1758 34.9534 28.8485V12.9819H35.9776C36.2988 12.9819 36.5655 12.7212 36.5655 12.394V8.95761C36.5594 8.6364 36.2988 8.37579 35.9716 8.37579ZM17.2867 35.2909H15.2322L18.0443 29.4303H20.0988L17.2867 35.2909ZM28.6322 35.2909H26.5776L23.7655 29.4303H25.82L28.6322 35.2909ZM33.7837 28.2667H10.0806V12.9819H33.7837V28.2667ZM35.3897 11.8122H8.46853V9.54549H35.3897V11.8122Z" fill="white"/>
<path d="M21.0494 26.9273C24.0373 26.9273 26.4737 24.497 26.4737 21.503C26.4737 21.1818 26.2131 20.9152 25.8858 20.9152H21.6313V16.6667C21.6313 16.3455 21.3707 16.0788 21.0434 16.0788C18.0555 16.0788 15.6191 18.5091 15.6191 21.503C15.6252 24.497 18.0555 26.9273 21.0494 26.9273ZM20.4616 17.2909V21.503C20.4616 21.8243 20.7222 22.0909 21.0494 22.0909H25.2616C24.9767 24.1576 23.1949 25.7576 21.0494 25.7576C18.704 25.7576 16.7949 23.8485 16.7949 21.503C16.7949 19.3576 18.3949 17.5758 20.4616 17.2909Z" fill="white"/>
<path d="M22.8066 20.3273H27.643C27.9642 20.3273 28.2309 20.0667 28.2309 19.7394C28.2309 16.7515 25.8006 14.3152 22.8066 14.3152C22.4854 14.3152 22.2188 14.5758 22.2188 14.9031V19.7394C22.2248 20.0667 22.4854 20.3273 22.8066 20.3273ZM23.3945 15.5334C25.2733 15.794 26.7642 17.2849 27.0248 19.1637H23.3945V15.5334Z" fill="white"/>
</svg>
