<svg width="40" height="40" viewBox="0 0 40 40" fill="none" xmlns="http://www.w3.org/2000/svg">
<path fill-rule="evenodd" clip-rule="evenodd" d="M34.6795 8.1H27.3995C26.8795 8.1 26.8795 7.3 27.3995 7.3H34.6795C35.1995 7.3 35.1995 8.1 34.6795 8.1ZM34.8395 32.78H33.2195V36.66C33.2195 36.88 33.0395 37.06 32.8195 37.06H30.4595C30.2395 37.06 30.0595 36.88 30.0595 36.66V32.78H9.93945V36.66C9.93945 36.88 9.75945 37.06 9.53945 37.06H7.17945C6.95945 37.06 6.77945 36.88 6.77945 36.66V32.78H5.15945C4.93945 32.78 4.75945 32.6 4.75945 32.38V29.68H3.33945C3.11945 29.68 2.93945 29.5 2.93945 29.28V26.18C2.93945 25.96 3.11945 25.78 3.33945 25.78H4.79945V22.14C4.79945 19.7 6.77945 17.72 9.21945 17.72H10.3795L10.6995 16.58C9.07945 15.7 8.29945 14.24 8.45945 12.42C7.65945 11.64 6.79945 8.42 8.17945 6.88C7.09945 5.48 7.49945 3.82 8.27945 4.3C8.41945 4.38 8.65945 4.5 8.91945 4.6C8.65945 3.82 9.11945 3.34 9.49945 3.58C10.5795 4.26 10.5395 3.66 11.6195 3.26C14.1995 2.3 18.6595 3.52 19.5395 6.9C20.0595 8.9 19.0395 11.68 18.6395 12.38C18.9195 14.82 17.6195 16.06 16.4795 16.66C16.4395 16.66 16.4195 16.68 16.3795 16.7L16.6795 17.72H17.8995C20.3395 17.72 22.3195 19.7 22.3195 22.14V25.78H36.6595C36.8795 25.78 37.0595 25.96 37.0595 26.18V29.28C37.0595 29.5 36.8795 29.68 36.6595 29.68H35.2395V32.38C35.2395 32.6 35.0595 32.78 34.8395 32.78ZM5.55945 31.98H34.4395V29.68H5.55945V31.98ZM3.73945 28.88H36.2595V26.58H3.73945V28.88ZM30.5995 19.24C30.4195 19.24 29.4595 18.74 29.2395 18.64L28.0595 19.2C27.7795 19.34 27.4395 19.1 27.4795 18.78L27.6595 17.48L26.7595 16.54C26.5395 16.3 26.6595 15.92 26.9795 15.86L28.2595 15.62L28.8995 14.48C29.0395 14.18 29.4395 14.18 29.5995 14.48L30.2195 15.62L31.5195 15.86C31.8395 15.92 31.9595 16.3 31.7395 16.54L30.8195 17.48L30.9995 18.78C31.0395 19.04 30.8395 19.24 30.5995 19.24ZM29.2395 17.78L30.0995 18.16C29.9595 17.04 29.8595 17.32 30.6395 16.52C29.5395 16.32 29.7795 16.5 29.2395 15.5C28.6995 16.5 28.9395 16.32 27.8395 16.52C28.6195 17.32 28.5395 17.04 28.3795 18.16L29.2395 17.78ZM33.8995 24.44C33.7195 24.44 32.7795 23.94 32.5395 23.84L31.3595 24.4C31.0795 24.54 30.7595 24.3 30.7995 24L30.9795 22.68L30.0595 21.74C29.8395 21.52 29.9595 21.12 30.2795 21.06L31.5795 20.84L32.1995 19.68C32.3395 19.4 32.7595 19.4 32.8995 19.68L33.5195 20.84L34.8195 21.06C35.1395 21.12 35.2595 21.52 35.0395 21.74L34.1195 22.68L34.2995 24C34.3395 24.24 34.1595 24.44 33.8995 24.44ZM32.5395 23L33.3995 23.36C33.2595 22.26 33.1595 22.54 33.9395 21.72C32.8395 21.52 33.0795 21.7 32.5395 20.7C32.0195 21.7 32.2595 21.52 31.1595 21.72C31.9195 22.54 31.8395 22.26 31.6795 23.36L32.5395 23ZM27.2995 24.44C27.1195 24.44 26.1595 23.94 25.9395 23.84L24.7595 24.4C24.4595 24.54 24.1395 24.3 24.1795 24L24.3595 22.68L23.4595 21.74C23.2395 21.52 23.3595 21.12 23.6595 21.06L24.9595 20.84L25.5795 19.68C25.7395 19.4 26.1395 19.4 26.2995 19.68L26.9195 20.84L28.2195 21.06C28.5195 21.12 28.6395 21.52 28.4395 21.74L27.5195 22.68L27.6995 24C27.7395 24.24 27.5395 24.44 27.2995 24.44ZM25.9395 23L26.7995 23.36C26.6395 22.26 26.5595 22.54 27.3395 21.72C26.2395 21.52 26.4795 21.7 25.9395 20.7C25.3995 21.7 25.6395 21.52 24.5395 21.72C25.3195 22.54 25.2195 22.26 25.0795 23.36L25.9395 23ZM11.2995 15.98C11.3395 15.98 11.3595 16 11.3795 16.02C12.4595 16.6 14.5995 16.66 15.7195 16.12L16.0995 15.94C17.4595 15.22 18.0395 14.02 17.8195 12.36L16.7995 9.58C16.3195 8.84 16.2195 8.88 15.5795 9.2C14.7595 9.62 13.4195 10.3 10.6795 9.2C10.1995 9 10.0195 9.12 9.95945 9.16C9.41945 9.52 9.33945 11.06 9.29945 12.22C9.29945 12.24 9.29945 12.26 9.27945 12.28C9.03945 13.98 9.75945 15.24 11.2995 15.98ZM11.4395 16.9L11.1395 17.92L13.5595 19.5L15.9195 17.96L15.6395 17C14.2995 17.42 12.7595 17.38 11.4395 16.9ZM7.83945 25.76V24.06C7.83945 23.54 8.63945 23.54 8.63945 24.06V25.76H11.9195L12.5795 22L12.4795 21.78C12.4195 21.84 12.3195 21.88 12.2395 21.88C12.2195 21.86 12.0795 21.88 11.9395 21.76L9.73945 19.6C9.45945 19.32 9.77945 18.94 9.99945 18.52H9.21945C7.21945 18.52 5.59945 20.14 5.59945 22.14V25.76H7.83945ZM18.3995 25.76V24.06C18.3995 23.54 19.1995 23.54 19.1995 24.06V25.76H21.5195V22.14C21.5195 20.14 19.8995 18.52 17.8995 18.52H17.0395C17.2795 18.94 17.5995 19.32 17.2995 19.6L15.1195 21.76C14.9595 21.9 14.7195 21.92 14.5595 21.76L14.4595 22L15.1395 25.76H18.3995ZM10.8395 18.66L10.5195 19.24L12.1995 20.9L12.9395 20.04L10.8395 18.66ZM13.5195 20.58L13.0595 21.12L13.2595 21.56H13.7795L13.9795 21.1L13.5195 20.58ZM14.1395 20.08L14.8595 20.88L16.5395 19.24L16.2395 18.7L14.1395 20.08ZM13.7195 22.36H13.3395L12.7195 25.76H14.3195L13.7195 22.36ZM16.1795 8.18C17.3195 8.18 17.7795 9.8 18.2795 11.24C19.2595 8.54 19.3395 5.92 16.5395 4.46C14.8595 3.6 12.7195 3.42 11.2995 4.32C10.8395 4.62 10.4395 4.82 9.79945 4.62C9.97945 4.88 10.1995 5.04 10.0795 5.34C9.81945 5.88 8.63945 5.36 8.33945 5.22C8.39945 6.4 9.53945 6.76 8.97945 7.24C7.95945 8.06 8.17945 9.82 8.55945 10.94C8.71945 9.32 9.23945 7.76 10.9795 8.46C14.3795 9.84 15.0595 8.18 16.1795 8.18ZM31.5795 10.32H21.2995C21.0795 10.32 20.8995 10.14 20.8995 9.92V3.34C20.8995 3.12 21.0795 2.94 21.2995 2.94H36.6595C36.8795 2.94 37.0595 3.12 37.0595 3.34V9.92L36.8395 10.28L32.1795 13C31.9195 13.14 31.5795 12.96 31.5795 12.64V10.32ZM21.6995 9.52H36.2595V3.74H21.6995V9.52ZM32.3795 10.32V11.96L35.1795 10.32H32.3795ZM7.57945 36.26H9.13945V32.78H7.57945V36.26ZM30.8595 36.26H32.4195V32.78H30.8595V36.26ZM25.7995 5.96H23.2795C22.7595 5.96 22.7595 5.16 23.2795 5.16H25.7995C26.3195 5.16 26.3195 5.96 25.7995 5.96ZM25.7995 8.1H23.2795C22.7595 8.1 22.7595 7.3 23.2795 7.3H25.7995C26.3195 7.3 26.3195 8.1 25.7995 8.1ZM34.6795 5.96H27.3995C26.8795 5.96 26.8795 5.16 27.3995 5.16H34.6795C35.1995 5.16 35.1995 5.96 34.6795 5.96Z" fill="white"/>
</svg>
