<svg width="34" height="44" viewBox="0 0 34 44" fill="none" xmlns="http://www.w3.org/2000/svg">
<path d="M17 21.2188C15.4548 21.2188 13.9444 21.6769 12.6596 22.5354C11.3748 23.3938 10.3735 24.614 9.78219 26.0415C9.19088 27.4691 9.03617 29.0399 9.33761 30.5554C9.63906 32.0709 10.3831 33.4629 11.4757 34.5555C12.5683 35.6481 13.9604 36.3922 15.4759 36.6936C16.9913 36.9951 18.5622 36.8404 19.9897 36.2491C21.4173 35.6577 22.6374 34.6564 23.4959 33.3716C24.3543 32.0869 24.8125 30.5764 24.8125 29.0312C24.8101 26.96 23.9863 24.9742 22.5216 23.5096C21.057 22.045 19.0713 21.2211 17 21.2188ZM17 35.2812C15.7639 35.2812 14.5555 34.9147 13.5277 34.2279C12.4999 33.5412 11.6988 32.5651 11.2258 31.423C10.7527 30.281 10.6289 29.0243 10.8701 27.8119C11.1112 26.5996 11.7065 25.4859 12.5806 24.6118C13.4547 23.7378 14.5683 23.1425 15.7807 22.9013C16.9931 22.6602 18.2497 22.784 19.3918 23.257C20.5338 23.73 21.5099 24.5311 22.1967 25.5589C22.8834 26.5867 23.25 27.7951 23.25 29.0312C23.2481 30.6883 22.589 32.2769 21.4173 33.4486C20.2456 34.6203 18.657 35.2793 17 35.2812ZM17 25.125C15.9644 25.1262 14.9715 25.5382 14.2392 26.2705C13.5069 27.0028 13.095 27.9956 13.0938 29.0312C13.0938 29.2385 13.0114 29.4372 12.8649 29.5837C12.7184 29.7302 12.5197 29.8125 12.3125 29.8125C12.1053 29.8125 11.9066 29.7302 11.7601 29.5837C11.6136 29.4372 11.5312 29.2385 11.5312 29.0312C11.5329 27.5814 12.1097 26.1914 13.1349 25.1661C14.1601 24.1409 15.5501 23.5642 17 23.5625C17.2072 23.5625 17.4059 23.6448 17.5524 23.7913C17.6989 23.9378 17.7812 24.1365 17.7812 24.3438C17.7812 24.551 17.6989 24.7497 17.5524 24.8962C17.4059 25.0427 17.2072 25.125 17 25.125ZM17 26.6875C16.5365 26.6875 16.0833 26.825 15.6979 27.0825C15.3125 27.34 15.012 27.7061 14.8347 28.1343C14.6573 28.5626 14.6109 29.0338 14.7013 29.4885C14.7917 29.9431 15.0149 30.3608 15.3427 30.6885C15.6705 31.0163 16.0881 31.2395 16.5428 31.33C16.9974 31.4204 17.4686 31.374 17.8969 31.1966C18.3252 31.0192 18.6912 30.7188 18.9488 30.3334C19.2063 29.9479 19.3438 29.4948 19.3438 29.0312C19.3431 28.4099 19.0959 27.8141 18.6565 27.3747C18.2171 26.9353 17.6214 26.6882 17 26.6875ZM17 29.8125C16.8455 29.8125 16.6944 29.7667 16.566 29.6808C16.4375 29.595 16.3373 29.473 16.2782 29.3302C16.2191 29.1875 16.2036 29.0304 16.2338 28.8788C16.2639 28.7273 16.3383 28.5881 16.4476 28.4788C16.5568 28.3696 16.696 28.2952 16.8476 28.265C16.9991 28.2349 17.1562 28.2503 17.299 28.3095C17.4417 28.3686 17.5637 28.4687 17.6496 28.5972C17.7354 28.7257 17.7812 28.8767 17.7812 29.0312C17.781 29.2384 17.6987 29.437 17.5522 29.5834C17.4057 29.7299 17.2071 29.8123 17 29.8125ZM32.7845 10.0829L24.2884 0.87875C24.0686 0.641428 23.8023 0.451996 23.506 0.322301C23.2097 0.192607 22.8898 0.12544 22.5664 0.125H2.9375C2.31611 0.125682 1.72036 0.372832 1.28097 0.812222C0.841582 1.25161 0.594432 1.84736 0.59375 2.46875V41.5312C0.594432 42.1526 0.841582 42.7484 1.28097 43.1878C1.72036 43.6272 2.31611 43.8743 2.9375 43.875H31.0625C31.6839 43.8743 32.2796 43.6272 32.719 43.1878C33.1584 42.7484 33.4056 42.1526 33.4062 41.5312V11.6736C33.4067 11.084 33.1846 10.5159 32.7845 10.0829ZM24.0312 2.90383L30.8412 10.2812H24.0312V2.90383ZM31.0625 42.3125H2.9375C2.73036 42.3123 2.53177 42.2299 2.3853 42.0834C2.23883 41.937 2.15646 41.7384 2.15625 41.5312V2.46875C2.15646 2.26161 2.23883 2.06302 2.3853 1.91655C2.53177 1.77008 2.73036 1.68771 2.9375 1.6875H22.4688V10.2812C22.4693 10.6955 22.6341 11.0926 22.927 11.3855C23.2199 11.6784 23.617 11.8432 24.0312 11.8438H31.8438V41.5312C31.8436 41.7384 31.7612 41.937 31.6148 42.0835C31.4683 42.23 31.2697 42.3124 31.0625 42.3125ZM4.5 6.375C4.5 6.1678 4.58231 5.96909 4.72882 5.82257C4.87534 5.67606 5.07405 5.59375 5.28125 5.59375H13.0938C13.301 5.59375 13.4997 5.67606 13.6462 5.82257C13.7927 5.96909 13.875 6.1678 13.875 6.375C13.875 6.5822 13.7927 6.78091 13.6462 6.92743C13.4997 7.07394 13.301 7.15625 13.0938 7.15625H5.28125C5.07405 7.15625 4.87534 7.07394 4.72882 6.92743C4.58231 6.78091 4.5 6.5822 4.5 6.375ZM4.5 11.0625C4.5 10.8553 4.58231 10.6566 4.72882 10.5101C4.87534 10.3636 5.07405 10.2812 5.28125 10.2812H19.3438C19.551 10.2812 19.7497 10.3636 19.8962 10.5101C20.0427 10.6566 20.125 10.8553 20.125 11.0625C20.125 11.2697 20.0427 11.4684 19.8962 11.6149C19.7497 11.7614 19.551 11.8438 19.3438 11.8438H5.28125C5.07405 11.8438 4.87534 11.7614 4.72882 11.6149C4.58231 11.4684 4.5 11.2697 4.5 11.0625ZM29.5 15.75C29.5001 15.8526 29.4799 15.9542 29.4407 16.049C29.4014 16.1439 29.3439 16.23 29.2713 16.3026C29.1988 16.3751 29.1126 16.4327 29.0178 16.4719C28.923 16.5111 28.8214 16.5313 28.7188 16.5312H5.28125C5.07405 16.5312 4.87534 16.4489 4.72882 16.3024C4.58231 16.1559 4.5 15.9572 4.5 15.75C4.5 15.5428 4.58231 15.3441 4.72882 15.1976C4.87534 15.0511 5.07405 14.9688 5.28125 14.9688H28.7188C28.8214 14.9687 28.923 14.9889 29.0178 15.0281C29.1126 15.0673 29.1988 15.1249 29.2713 15.1974C29.3439 15.27 29.4014 15.3561 29.4407 15.451C29.4799 15.5458 29.5001 15.6474 29.5 15.75ZM18.5625 6.375C18.5625 6.22048 18.6083 6.06944 18.6942 5.94096C18.78 5.81248 18.902 5.71235 19.0448 5.65322C19.1875 5.59409 19.3446 5.57862 19.4962 5.60876C19.6477 5.63891 19.7869 5.71331 19.8962 5.82257C20.0054 5.93183 20.0798 6.07104 20.11 6.22259C20.1401 6.37413 20.1247 6.53122 20.0655 6.67397C20.0064 6.81673 19.9063 6.93874 19.7778 7.02459C19.6493 7.11043 19.4983 7.15625 19.3438 7.15625C19.1365 7.15625 18.9378 7.07394 18.7913 6.92743C18.6448 6.78091 18.5625 6.5822 18.5625 6.375ZM15.4375 6.375C15.4375 6.22048 15.4833 6.06944 15.5692 5.94096C15.655 5.81248 15.777 5.71235 15.9198 5.65322C16.0625 5.59409 16.2196 5.57862 16.3712 5.60876C16.5227 5.63891 16.6619 5.71331 16.7712 5.82257C16.8804 5.93183 16.9548 6.07104 16.985 6.22259C17.0151 6.37413 16.9997 6.53122 16.9405 6.67397C16.8814 6.81673 16.7813 6.93874 16.6528 7.02459C16.5243 7.11043 16.3733 7.15625 16.2188 7.15625C16.0115 7.15625 15.8128 7.07394 15.6663 6.92743C15.5198 6.78091 15.4375 6.5822 15.4375 6.375ZM27.9375 18.875H6.0625C5.64825 18.8755 5.25109 19.0402 4.95817 19.3332C4.66525 19.6261 4.50048 20.0232 4.5 20.4375V37.625C4.50048 38.0393 4.66525 38.4364 4.95817 38.7293C5.25109 39.0223 5.64825 39.187 6.0625 39.1875H27.9375C28.3517 39.187 28.7488 39.0222 29.0418 38.7293C29.3347 38.4364 29.4995 38.0392 29.5 37.625V20.4375C29.4995 20.0233 29.3347 19.6261 29.0418 19.3332C28.7488 19.0403 28.3517 18.8755 27.9375 18.875ZM6.0625 37.625V20.4375H27.9375L27.9391 37.625H6.0625Z" fill="#0D1835"/>
</svg>
