<svg width="24" height="24" viewBox="0 0 24 24" fill="none" xmlns="http://www.w3.org/2000/svg">
<path d="M19.6 21.0001L13.3 14.7001C12.8 15.1001 12.225 15.4167 11.575 15.6501C10.925 15.8834 10.2333 16.0001 9.5 16.0001C7.68333 16.0001 6.14583 15.3709 4.8875 14.1126C3.62917 12.8542 3 11.3167 3 9.50006C3 7.68339 3.62917 6.14589 4.8875 4.88756C6.14583 3.62923 7.68333 3.00006 9.5 3.00006C11.3167 3.00006 12.8542 3.62923 14.1125 4.88756C15.3708 6.14589 16 7.68339 16 9.50006C16 10.2334 15.8833 10.9251 15.65 11.5751C15.4167 12.2251 15.1 12.8001 14.7 13.3001L21 19.6001L19.6 21.0001ZM9.5 14.0001C10.75 14.0001 11.8125 13.5626 12.6875 12.6876C13.5625 11.8126 14 10.7501 14 9.50006C14 8.25006 13.5625 7.18756 12.6875 6.31256C11.8125 5.43756 10.75 5.00006 9.5 5.00006C8.25 5.00006 7.1875 5.43756 6.3125 6.31256C5.4375 7.18756 5 8.25006 5 9.50006C5 10.7501 5.4375 11.8126 6.3125 12.6876C7.1875 13.5626 8.25 14.0001 9.5 14.0001Z" fill="white"/>
</svg>
