<svg width="40" height="40" viewBox="0 0 40 40" fill="none" xmlns="http://www.w3.org/2000/svg">
<g clip-path="url(#clip0_59_335)">
<path fill-rule="evenodd" clip-rule="evenodd" d="M5.24417 5.24399L1.91083 8.57733C1.58583 8.90233 1.58583 9.43066 1.91083 9.75566C2.23583 10.0807 2.76417 10.0807 3.08917 9.75566L6.4225 6.42233C6.7475 6.09733 6.7475 5.56899 6.4225 5.24399C6.0975 4.91899 5.56917 4.91899 5.24417 5.24399Z" fill="#0D1835"/>
<path fill-rule="evenodd" clip-rule="evenodd" d="M29.4108 5.58908L32.7442 8.92241C33.0692 9.24741 33.5975 9.24741 33.9225 8.92241C34.2475 8.59741 34.2475 8.06908 33.9225 7.74408L30.5892 4.41074C30.2642 4.08574 29.7358 4.08574 29.4108 4.41074C29.0858 4.73574 29.0858 5.26408 29.4108 5.58908Z" fill="#0D1835"/>
<path fill-rule="evenodd" clip-rule="evenodd" d="M29.1667 25.8332H29.165C28.5025 25.8332 27.8667 26.0965 27.3983 26.5648C26.93 27.0332 26.6667 27.669 26.6667 28.3315V28.3332C26.6667 29.714 27.7858 30.8332 29.1667 30.8332H30.8333C31.2933 30.8332 31.6667 31.2065 31.6667 31.6665V31.6682C31.6667 31.889 31.5792 32.1007 31.4233 32.2565C31.2675 32.4123 31.0558 32.4998 30.835 32.4998C29.8158 32.4998 30.1842 32.4998 29.165 32.4998C28.9442 32.4998 28.7325 32.4123 28.5767 32.2565C28.4208 32.1007 28.3333 31.889 28.3333 31.6682C28.3333 31.2082 27.96 30.8348 27.5 30.8348C27.04 30.8348 26.6667 31.2082 26.6667 31.6682C26.6667 32.3307 26.93 32.9665 27.3983 33.4348C27.8667 33.9032 28.5025 34.1665 29.165 34.1665H29.1667V34.9998C29.1667 35.4598 29.54 35.8332 30 35.8332C30.46 35.8332 30.8333 35.4598 30.8333 34.9998V34.1665H30.835C31.4975 34.1665 32.1333 33.9032 32.6017 33.4348C33.07 32.9665 33.3333 32.3307 33.3333 31.6682V31.6665C33.3333 30.2857 32.2142 29.1665 30.8333 29.1665H29.1667C28.7067 29.1665 28.3333 28.7932 28.3333 28.3332V28.3315C28.3333 28.1107 28.4208 27.899 28.5767 27.7432C28.7325 27.5873 28.9442 27.4998 29.165 27.4998H30.835C31.0558 27.4998 31.2675 27.5873 31.4233 27.7432C31.5792 27.899 31.6667 28.1107 31.6667 28.3315C31.6667 28.7915 32.04 29.1648 32.5 29.1648C32.96 29.1648 33.3333 28.7915 33.3333 28.3315C33.3333 27.669 33.07 27.0332 32.6017 26.5648C32.1333 26.0965 31.4975 25.8332 30.835 25.8332H30.8333V24.9998C30.8333 24.5398 30.46 24.1665 30 24.1665C29.54 24.1665 29.1667 24.5398 29.1667 24.9998V25.8332Z" fill="#0D1835"/>
<path fill-rule="evenodd" clip-rule="evenodd" d="M30 20.8333C24.9408 20.8333 20.8333 24.9408 20.8333 29.9999C20.8333 35.0591 24.9408 39.1666 30 39.1666C35.0592 39.1666 39.1667 35.0591 39.1667 29.9999C39.1667 24.9408 35.0592 20.8333 30 20.8333ZM30 22.4999C34.1392 22.4999 37.5 25.8608 37.5 29.9999C37.5 34.1391 34.1392 37.4999 30 37.4999C25.8608 37.4999 22.5 34.1391 22.5 29.9999C22.5 25.8608 25.8608 22.4999 30 22.4999Z" fill="#0D1835"/>
<path fill-rule="evenodd" clip-rule="evenodd" d="M15.9758 20.8332H9.99999C9.53999 20.8332 9.16666 21.2065 9.16666 21.6665C9.16666 22.1265 9.53999 22.4998 9.99999 22.4998H15.9758C16.3191 23.4707 17.2458 24.1665 18.3333 24.1665C19.7133 24.1665 20.8333 23.0465 20.8333 21.6665C20.8333 20.2865 19.7133 19.1665 18.3333 19.1665C17.2458 19.1665 16.3191 19.8623 15.9758 20.8332ZM18.3333 20.8332C18.7933 20.8332 19.1667 21.2065 19.1667 21.6665C19.1667 22.1265 18.7933 22.4998 18.3333 22.4998C17.8733 22.4998 17.5 22.1265 17.5 21.6665C17.5 21.2065 17.8733 20.8332 18.3333 20.8332Z" fill="#0D1835"/>
<path fill-rule="evenodd" clip-rule="evenodd" d="M18.3333 7.5C23.5675 7.5 28.1416 10.3442 30.595 14.5717C30.5975 14.575 30.6 14.5792 30.6016 14.5833C30.6041 14.5867 30.6058 14.59 30.6075 14.5933C31.2517 15.7075 31.7483 16.9183 32.0708 18.1975C32.1833 18.6433 31.9125 19.0967 31.4667 19.2092C31.0208 19.3217 30.5675 19.0508 30.455 18.605C30.2391 17.7492 29.935 16.9275 29.5525 16.1517L28.8533 16.555C28.455 16.785 27.945 16.6483 27.715 16.25C27.485 15.8517 27.6217 15.3417 28.02 15.1117L28.7175 14.7092C27.8092 13.3567 26.6433 12.1917 25.2908 11.2825L24.8883 11.98C24.6583 12.3783 24.1483 12.515 23.75 12.285C23.3517 12.055 23.215 11.545 23.445 11.1467L23.8483 10.4475C22.42 9.74334 20.8375 9.30417 19.1667 9.19417V10C19.1667 10.46 18.7933 10.8333 18.3333 10.8333C17.8733 10.8333 17.5 10.46 17.5 10V9.19417C15.8283 9.30417 14.2466 9.74334 12.8183 10.4475L13.2217 11.1467C13.4517 11.545 13.315 12.055 12.9167 12.285C12.5183 12.515 12.0083 12.3783 11.7783 11.98L11.3758 11.2825C10.0233 12.1917 8.85749 13.3575 7.94916 14.7092L8.64666 15.1117C9.045 15.3417 9.18166 15.8517 8.95166 16.25C8.72166 16.6483 8.21166 16.785 7.81333 16.555L7.11415 16.1517C6.40998 17.5792 5.97081 19.1617 5.86081 20.8333H6.66666C7.12666 20.8333 7.49999 21.2067 7.49999 21.6667C7.49999 22.1267 7.12666 22.5 6.66666 22.5H5.86081C5.97081 24.1717 6.40998 25.7533 7.11415 27.1817L7.81333 26.7783C8.21166 26.5483 8.72166 26.685 8.95166 27.0833C9.18166 27.4817 9.045 27.9917 8.64666 28.2217L7.94916 28.6242C8.85832 29.9767 10.0242 31.1425 11.3758 32.0508L11.7783 31.3533C12.0083 30.955 12.5183 30.8183 12.9167 31.0483C13.315 31.2783 13.4517 31.7883 13.2217 32.1867L12.8183 32.8858C14.2458 33.59 15.8283 34.0292 17.5 34.1392V33.3333C17.5 32.8733 17.8733 32.5 18.3333 32.5C18.7933 32.5 19.1667 32.8733 19.1667 33.3333V34.1392C19.2342 34.135 19.3008 34.13 19.3683 34.1242C19.8267 34.0867 20.2292 34.4283 20.2667 34.8867C20.305 35.345 19.9633 35.7475 19.505 35.7858C19.1192 35.8175 18.7283 35.8333 18.3333 35.8333C10.5142 35.8333 4.16666 29.4858 4.16666 21.6667C4.16666 13.8475 10.5142 7.5 18.3333 7.5Z" fill="#0D1835"/>
<path fill-rule="evenodd" clip-rule="evenodd" d="M14.1667 4.66659C6.51751 6.53742 0.833344 13.4433 0.833344 21.6666C0.833344 25.8666 2.31585 29.7224 4.78585 32.7399C5.07752 33.0957 5.60251 33.1483 5.95834 32.8574C6.31417 32.5658 6.36666 32.0399 6.07583 31.6841C3.84083 28.9549 2.50001 25.4658 2.50001 21.6666C2.50001 12.9283 9.59501 5.83325 18.3333 5.83325C26.3367 5.83325 32.9617 11.7841 34.0192 19.4982C34.0817 19.9541 34.5025 20.2733 34.9584 20.2108C35.4134 20.1483 35.7325 19.7274 35.67 19.2724C34.6917 12.1291 29.3942 6.35326 22.5 4.66659V2.91659C22.5 2.36409 22.2808 1.83408 21.89 1.44325C21.4992 1.05241 20.9692 0.833252 20.4167 0.833252C19.225 0.833252 17.4417 0.833252 16.25 0.833252C15.6975 0.833252 15.1675 1.05241 14.7767 1.44325C14.3858 1.83408 14.1667 2.36409 14.1667 2.91659V4.66659ZM20.8333 4.34408V2.91659C20.8333 2.80575 20.7892 2.69992 20.7117 2.62158C20.6333 2.54408 20.5275 2.49992 20.4167 2.49992H16.25C16.1392 2.49992 16.0333 2.54408 15.955 2.62158C15.8775 2.69992 15.8333 2.80575 15.8333 2.91659V4.34408C16.6492 4.22742 17.4842 4.16659 18.3333 4.16659C19.1817 4.16659 20.0158 4.22742 20.8333 4.34408Z" fill="#0D1835"/>
<path fill-rule="evenodd" clip-rule="evenodd" d="M21.3758 37.2073C20.3917 37.399 19.3742 37.4998 18.3333 37.4998C14.5342 37.4998 11.045 36.159 8.31585 33.924C7.96001 33.6332 7.43419 33.6857 7.14252 34.0415C6.85169 34.3973 6.90418 34.9223 7.26001 35.214C10.2775 37.684 14.1333 39.1665 18.3333 39.1665C19.4833 39.1665 20.6075 39.0548 21.695 38.8432C22.1467 38.7548 22.4417 38.3173 22.3533 37.8657C22.265 37.414 21.8275 37.119 21.3758 37.2073Z" fill="#0D1835"/>
</g>
<defs>
<clipPath id="clip0_59_335">
<rect width="40" height="40" fill="white"/>
</clipPath>
</defs>
</svg>
