<svg width="50" height="50" viewBox="0 0 50 50" fill="none" xmlns="http://www.w3.org/2000/svg">
<path d="M24.9999 41.6667H43.7499M31.2499 10.4167L37.4999 16.6667M34.1165 7.54589C34.9459 6.71654 36.0707 6.25061 37.2436 6.25061C38.4165 6.25061 39.5413 6.71654 40.3707 7.54589C41.2001 8.37524 41.666 9.50009 41.666 10.673C41.666 11.8459 41.2001 12.9707 40.3707 13.8001L15.3499 38.823C14.8542 39.3186 14.2416 39.6812 13.5686 39.8771L7.58529 41.623C7.40602 41.6753 7.21599 41.6784 7.0351 41.632C6.8542 41.5857 6.68909 41.4916 6.55705 41.3595C6.42501 41.2275 6.33089 41.0624 6.28454 40.8815C6.2382 40.7006 6.24133 40.5106 6.29362 40.3313L8.03945 34.348C8.23575 33.6758 8.5983 33.0639 9.09362 32.5688L34.1165 7.54589Z" stroke="#0D1835" stroke-width="2" stroke-linecap="round" stroke-linejoin="round"/>
</svg>
