<svg width="50" height="50" viewBox="0 0 50 50" fill="none" xmlns="http://www.w3.org/2000/svg">
<g clip-path="url(#clip0_554_2581)">
<path d="M24.999 49.2675C35.1316 49.2675 43.3457 41.0535 43.3457 30.9209C43.3457 20.7883 35.1316 12.5742 24.999 12.5742C14.8664 12.5742 6.65234 20.7883 6.65234 30.9209C6.65234 41.0535 14.8664 49.2675 24.999 49.2675Z" stroke="#0D1835" stroke-width="1.5" stroke-miterlimit="10" stroke-linecap="round" stroke-linejoin="round"/>
<path d="M37.9668 17.9541L35.416 20.5049C38.0846 23.1735 39.7374 26.8579 39.7374 30.921H43.3466C43.3466 25.8629 41.289 21.2762 37.9668 17.9541Z" stroke="#0D1835" stroke-width="1.5" stroke-miterlimit="10" stroke-linecap="round" stroke-linejoin="round"/>
<path d="M24.9983 16.1834V12.5742C19.9401 12.5742 15.3534 14.6319 12.0312 17.954L14.5822 20.5049C17.2507 17.8363 20.9351 16.1834 24.9983 16.1834Z" stroke="#0D1835" stroke-width="1.5" stroke-miterlimit="10" stroke-linecap="round" stroke-linejoin="round"/>
<path d="M25 12.5742V16.1834C29.0631 16.1834 32.7475 17.8362 35.4161 20.5048L37.9669 17.954C34.6449 14.6319 30.0583 12.5742 25 12.5742Z" stroke="#0D1835" stroke-width="1.5" stroke-miterlimit="10" stroke-linecap="round" stroke-linejoin="round"/>
<path d="M12.032 17.9541C8.70988 21.2762 6.65234 25.8629 6.65234 30.9211H10.2616C10.2616 26.858 11.9144 23.1736 14.583 20.505L12.032 17.9541Z" stroke="#0D1835" stroke-width="1.5" stroke-miterlimit="10" stroke-linecap="round" stroke-linejoin="round"/>
<path d="M10.2616 30.9209H6.65234C6.65234 35.9792 8.70998 40.5658 12.032 43.8879L13.8422 42.0777C14.2439 41.676 14.2701 41.0305 13.8965 40.6025C11.6338 38.011 10.2616 34.6232 10.2616 30.9209Z" stroke="#0D1835" stroke-width="1.5" stroke-miterlimit="10" stroke-linecap="round" stroke-linejoin="round"/>
<path d="M39.7373 30.9209C39.7373 34.6233 38.365 38.0111 36.1023 40.6024C35.7287 41.0304 35.7548 41.676 36.1566 42.0777L37.9668 43.8879C41.2889 40.5658 43.3464 35.9792 43.3464 30.9209H39.7373Z" stroke="#0D1835" stroke-width="1.5" stroke-miterlimit="10" stroke-linecap="round" stroke-linejoin="round"/>
<path d="M20.6808 7.62814H22.3799C22.6636 7.62814 22.8936 7.85813 22.8936 8.14182V12.6952C23.5845 12.6163 24.2866 12.5743 24.9988 12.5743C25.7109 12.5743 26.4129 12.6163 27.104 12.6952V8.14182C27.104 7.85813 27.3339 7.62814 27.6176 7.62814H29.3167C29.6997 7.62814 29.9212 7.19396 29.6965 6.8838L25.3785 0.926223C25.1913 0.667822 24.8063 0.667822 24.619 0.926223L20.3011 6.8838C20.0762 7.19396 20.2978 7.62814 20.6808 7.62814Z" stroke="#0D1835" stroke-width="1.5" stroke-miterlimit="10" stroke-linecap="round" stroke-linejoin="round"/>
<path d="M8.7588 12.3349V22.3808C9.82502 20.3575 11.2574 18.5571 12.9691 17.0692V12.3349C12.9691 12.0512 13.199 11.8213 13.4828 11.8213H15.1818C15.5648 11.8213 15.7864 11.3871 15.5616 11.0769L11.2437 5.11934C11.0565 4.86094 10.6714 4.86094 10.4841 5.11934L6.16629 11.0769C5.94148 11.3871 6.16307 11.8213 6.54608 11.8213H8.24512C8.52881 11.8213 8.7588 12.0512 8.7588 12.3349Z" stroke="#0D1835" stroke-width="1.5" stroke-miterlimit="10" stroke-linecap="round" stroke-linejoin="round"/>
<path d="M24.9991 34.715C27.0945 34.715 28.7932 33.0164 28.7932 30.921C28.7932 28.8256 27.0945 27.127 24.9991 27.127C22.9037 27.127 21.2051 28.8256 21.2051 30.921C21.2051 33.0164 22.9037 34.715 24.9991 34.715Z" stroke="#0D1835" stroke-width="1.5" stroke-miterlimit="10" stroke-linecap="round" stroke-linejoin="round"/>
<path d="M33.0903 36.9587L28.7924 30.8525C28.8103 31.8462 28.441 32.8455 27.6828 33.6037C26.9246 34.3619 25.9253 34.7312 24.9316 34.7134L31.0378 39.0112C32.3889 39.9622 34.0413 38.3098 33.0903 36.9587Z" stroke="#0D1835" stroke-width="1.5" stroke-miterlimit="10" stroke-linecap="round" stroke-linejoin="round"/>
<path d="M26.7085 40.2505C28.0523 40.0051 29.3536 39.4685 30.5106 38.6405L24.9311 34.7133C25.9248 34.7311 26.9241 34.3619 27.6823 33.6036C28.4405 32.8453 28.8098 31.8461 28.7919 30.8524L32.7191 36.4319C35.371 32.7264 35.0349 27.5414 31.7069 24.2134C28.0024 20.509 21.9964 20.509 18.292 24.2134C14.5876 27.9178 14.5876 33.9238 18.292 37.6283C19.7076 39.0439 21.4596 39.9162 23.2904 40.2494" stroke="#0D1835" stroke-width="1.5" stroke-miterlimit="10" stroke-linecap="round" stroke-linejoin="round"/>
<path d="M41.2387 14.1221V12.3347C41.2387 12.051 41.4687 11.821 41.7524 11.821H43.4514C43.8344 11.821 44.0559 11.3868 43.8312 11.0767L39.5133 5.11909C39.3261 4.86069 38.941 4.86069 38.7537 5.11909L34.4358 11.0767C34.211 11.3868 34.4326 11.821 34.8156 11.821H36.5147C36.7983 11.821 37.0283 12.051 37.0283 12.3347V17.0689C38.7401 18.5568 40.1724 20.3572 41.2386 22.3806V17.5401" stroke="#0D1835" stroke-width="1.5" stroke-miterlimit="10" stroke-linecap="round" stroke-linejoin="round"/>
</g>
<defs>
<clipPath id="clip0_554_2581">
<rect width="50" height="50" fill="white"/>
</clipPath>
</defs>
</svg>
