<svg width="50" height="51" viewBox="0 0 50 51" fill="none" xmlns="http://www.w3.org/2000/svg">
<mask id="mask0_158_641" style="mask-type:luminance" maskUnits="userSpaceOnUse" x="0" y="0" width="50" height="51">
<path d="M0 0.830326H50V50.8303H0V0.830326Z" fill="white"/>
</mask>
<g mask="url(#mask0_158_641)">
<path d="M22.1125 17.0842L16.8937 11.8655C16.4162 11.3879 15.6428 11.3879 15.1661 11.8655L13.8449 13.1857C11.7013 15.3292 11.1222 18.5998 12.4678 21.3155C14.8615 26.1486 19.7872 33.5569 29.2774 38.2101C32.0021 39.5451 35.2883 38.9786 37.4328 36.8341L38.7834 35.4835C39.2609 35.0061 39.2609 34.2326 38.7834 33.7551L33.5655 28.5372C33.0881 28.0598 32.3146 28.0598 31.837 28.5372L29.6203 30.754C28.9816 31.3928 27.9738 31.5393 27.213 31.0539C24.1534 29.0988 21.5529 26.4991 19.5958 23.4358C19.1095 22.675 19.256 21.6672 19.8947 21.0294L22.1125 18.8116C22.589 18.3352 22.589 17.5608 22.1125 17.0842Z" stroke="#0D1835" stroke-width="1.5" stroke-miterlimit="10" stroke-linecap="round" stroke-linejoin="round"/>
<path d="M25.9766 1.80688C25.9766 2.34614 25.5393 2.78345 25 2.78345C24.4607 2.78345 24.0234 2.34614 24.0234 1.80688C24.0234 1.26763 24.4607 0.830322 25 0.830322C25.5393 0.830322 25.9766 1.26763 25.9766 1.80688Z" fill="#0D1835"/>
<path d="M29.3769 2.2022C34.1275 3.07183 38.4995 5.35522 41.9873 8.84302C46.5244 13.3801 49.0234 19.4133 49.0234 25.8303C49.0234 32.2473 46.5244 38.2805 41.9873 42.8176C37.4502 47.3547 31.417 49.8538 25 49.8538C20.958 49.8538 16.9707 48.8333 13.4502 46.8997L0.976562 49.8538L3.93066 37.3801C1.99707 33.8596 0.976562 29.8723 0.976562 25.8303C0.976562 19.4133 3.47559 13.3801 8.0126 8.84302C11.5004 5.35522 15.8724 3.07183 20.623 2.2022" stroke="#0D1835" stroke-width="1.5" stroke-miterlimit="10" stroke-linecap="round" stroke-linejoin="round"/>
</g>
</svg>
